<?xml version="1.0" encoding="UTF-8" standalone="no"?>
<!-- Created with Inkscape (http://www.inkscape.org/) -->

<svg
   xmlns:dc="http://purl.org/dc/elements/1.1/"
   xmlns:cc="http://creativecommons.org/ns#"
   xmlns:rdf="http://www.w3.org/1999/02/22-rdf-syntax-ns#"
   xmlns:svg="http://www.w3.org/2000/svg"
   xmlns="http://www.w3.org/2000/svg"
   xmlns:sodipodi="http://sodipodi.sourceforge.net/DTD/sodipodi-0.dtd"
   xmlns:inkscape="http://www.inkscape.org/namespaces/inkscape"
   width="744.09448819"
   height="1052.3622047"
   id="svg4342"
   version="1.1"
   inkscape:version="0.48.4 r9939"
   sodipodi:docname="cloud.svg">
  <defs
     id="defs4344" />
  <sodipodi:namedview
     id="base"
     pagecolor="#ffffff"
     bordercolor="#666666"
     borderopacity="1.0"
     inkscape:pageopacity="0.0"
     inkscape:pageshadow="2"
     inkscape:zoom="2.8"
     inkscape:cx="73.419512"
     inkscape:cy="1306.1307"
     inkscape:document-units="px"
     inkscape:current-layer="layer1"
     showgrid="false"
     showborder="false"
     inkscape:window-width="1920"
     inkscape:window-height="1030"
     inkscape:window-x="0"
     inkscape:window-y="0"
     inkscape:window-maximized="1" />
  <metadata
     id="metadata4347">
    <rdf:RDF>
      <cc:Work
         rdf:about="">
        <dc:format>image/svg+xml</dc:format>
        <dc:type
           rdf:resource="http://purl.org/dc/dcmitype/StillImage" />
        <dc:title></dc:title>
      </cc:Work>
    </rdf:RDF>
  </metadata>
  <g
     inkscape:label="Layer 1"
     inkscape:groupmode="layer"
     id="layer1">
    <path
       style="fill:#ffffff;stroke:#000000;stroke-width:2.89999999999999991;stroke-linecap:butt;stroke-linejoin:miter;stroke-opacity:1;stroke-miterlimit:4;stroke-dasharray:none;fill-opacity:1"
       d="m 56.785714,-217.28068 c 113.894796,0.28863 113.872166,-0.12687 203.214286,1.42857 41.30733,0.71916 53.94635,-67.30547 -11.78571,-56.42857 22.4213,-23.11423 -3.84516,-57.76956 -41.22865,-31.03693 -14.13285,-35.61489 -49.19205,-48.18053 -69.0044,-15.12472 -23.27111,-9.4781 -39.69174,12.57671 -40.471624,23.69705 -15.398241,-21.35531 -55.370125,-4.88234 -32.152473,26.39317 -36.140224,-9.66707 -35.120031,51.00415 -8.571429,51.07143 z"
       id="path4862"
       inkscape:connector-curvature="0"
       sodipodi:nodetypes="sscccccs"
       inkscape:export-filename="/home/toreinar/projects/pekeboken/img/cloud.png"
       inkscape:export-xdpi="90"
       inkscape:export-ydpi="90" />
    <path
       style="fill:#5aacac;fill-opacity:1;stroke:none"
       d="m 80.714286,-254.42353 c 16.535866,5.79976 26.122234,5.62055 38.571424,0.35714 -9.33959,10.23445 -22.640738,16.5444 -38.571424,-0.35714 z"
       id="path4864"
       inkscape:connector-curvature="0"
       sodipodi:nodetypes="ccc" />
    <path
       style="fill:#5aacac;fill-opacity:1;stroke:none"
       d="m 111.07142,-250.01767 c 9.79903,4.21767 15.47985,4.08735 22.85714,0.25972 -5.53457,7.44265 -13.41673,12.03134 -22.85714,-0.25972 z"
       id="path4864-8"
       inkscape:connector-curvature="0"
       sodipodi:nodetypes="ccc" />
    <path
       style="fill:#5aacac;fill-opacity:1;stroke:none"
       d="m 68.928573,-248.94624 c 9.79903,4.21767 15.47985,4.08735 22.85714,0.25972 -5.53457,7.44265 -13.41673,12.03134 -22.85714,-0.25972 z"
       id="path4864-8-6"
       inkscape:connector-curvature="0"
       sodipodi:nodetypes="ccc" />
    <path
       style="fill:#5aacac;fill-opacity:1;stroke:none"
       d="m 146.42857,-243.47059 c 16.53587,5.79976 26.12224,5.62055 38.57143,0.35714 -9.33959,10.23445 -22.64074,16.5444 -38.57143,-0.35714 z"
       id="path4864-3"
       inkscape:connector-curvature="0"
       sodipodi:nodetypes="ccc" />
    <path
       style="fill:#5aacac;fill-opacity:1;stroke:none"
       d="m 176.78571,-239.06473 c 9.79903,4.21767 15.47985,4.08735 22.85714,0.25972 -5.53457,7.44265 -13.41673,12.03134 -22.85714,-0.25972 z"
       id="path4864-8-7"
       inkscape:connector-curvature="0"
       sodipodi:nodetypes="ccc" />
    <path
       style="fill:#5aacac;fill-opacity:1;stroke:none"
       d="m 134.64286,-237.9933 c 9.79903,4.21767 15.47985,4.08735 22.85714,0.25972 -5.53457,7.44265 -13.41673,12.03134 -22.85714,-0.25972 z"
       id="path4864-8-6-3"
       inkscape:connector-curvature="0"
       sodipodi:nodetypes="ccc" />
    <path
       style="fill:#5aacac;fill-opacity:1;stroke:none"
       d="m 218.92857,-252.39918 c 16.53587,5.79976 26.12224,5.62055 38.57143,0.35714 -9.33959,10.23445 -22.64074,16.5444 -38.57143,-0.35714 z"
       id="path4864-0"
       inkscape:connector-curvature="0"
       sodipodi:nodetypes="ccc" />
    <path
       style="fill:#5aacac;fill-opacity:1;stroke:none"
       d="m 249.28571,-247.99332 c 9.79903,4.21767 15.47985,4.08735 22.85714,0.25972 -5.53457,7.44265 -13.41673,12.03134 -22.85714,-0.25972 z"
       id="path4864-8-9"
       inkscape:connector-curvature="0"
       sodipodi:nodetypes="ccc" />
    <path
       style="fill:#5aacac;fill-opacity:1;stroke:none"
       d="m 207.14286,-246.92189 c 9.79903,4.21767 15.47985,4.08735 22.85714,0.25972 -5.53457,7.44265 -13.41673,12.03134 -22.85714,-0.25972 z"
       id="path4864-8-6-5"
       inkscape:connector-curvature="0"
       sodipodi:nodetypes="ccc" />
    <path
       style="fill:#5aacac;fill-opacity:1;stroke:none"
       d="m 127.77594,-309.6846 c -8.05595,3.29503 -11.60565,6.49452 -14.62348,12.48088 0.27502,-6.77932 3.28218,-13.42517 14.62348,-12.48088 z"
       id="path4864-8-71-1"
       inkscape:connector-curvature="0"
       sodipodi:nodetypes="ccc" />
    <path
       style="fill:#5aacac;fill-opacity:1;stroke:none"
       d="m 164.50368,-322.44605 c -7.13905,4.40126 -9.79979,8.4721 -11.15563,15.917 -1.60601,-8.28199 -0.4438,-16.53074 11.15563,-15.917 z"
       id="path4864-8-71-11"
       inkscape:connector-curvature="0"
       sodipodi:nodetypes="ccc" />
    <path
       style="fill:#5aacac;fill-opacity:1;stroke:none"
       d="m 87.191803,-286.63614 c -8.365676,2.56428 -11.860136,5.69996 -14.472758,12.11463 -0.445655,-7.73935 2.083082,-14.91258 14.472758,-12.11463 z"
       id="path4864-8-71-5"
       inkscape:connector-curvature="0"
       sodipodi:nodetypes="ccc" />
    <path
       style="fill:#5aacac;fill-opacity:1;stroke:none"
       d="m 244.95704,-283.41949 c -3.13656,-8.11897 -6.26588,-11.73068 -12.19197,-14.86522 6.77264,0.4078 13.35829,3.54459 12.19197,14.86522 z"
       id="path4864-8-71-1-2"
       inkscape:connector-curvature="0"
       sodipodi:nodetypes="ccc" />
    <path
       style="fill:#5aacac;fill-opacity:1;stroke:none"
       d="m 185.31419,-303.4195 c -3.13656,-8.11897 -6.26588,-11.73068 -12.19197,-14.86522 6.77264,0.4078 13.35829,3.54459 12.19197,14.86522 z"
       id="path4864-8-71-1-2-5"
       inkscape:connector-curvature="0"
       sodipodi:nodetypes="ccc" />
    <path
       style="fill:#5aacac;fill-opacity:1;stroke:none"
       d="m 157.36716,-299.11549 c 6.41899,5.87812 10.82771,7.7221 17.52949,7.89531 -6.24786,2.64561 -13.54144,2.7636 -17.52949,-7.89531 z"
       id="path4864-8-71-1-5"
       inkscape:connector-curvature="0"
       sodipodi:nodetypes="ccc" />
    <path
       style="fill:#5aacac;fill-opacity:1;stroke:none"
       d="m 119.49171,-286.32439 c 8.61925,1.21001 13.2972,0.23333 18.91903,-3.4189 -3.65148,5.71852 -9.59619,9.94589 -18.91903,3.4189 z"
       id="path4864-8-71-1-3"
       inkscape:connector-curvature="0"
       sodipodi:nodetypes="ccc" />
  </g>
</svg>
