<?xml version="1.0" encoding="UTF-8" standalone="no"?>
<!-- Created with Inkscape (http://www.inkscape.org/) -->

<svg
   xmlns:dc="http://purl.org/dc/elements/1.1/"
   xmlns:cc="http://creativecommons.org/ns#"
   xmlns:rdf="http://www.w3.org/1999/02/22-rdf-syntax-ns#"
   xmlns:svg="http://www.w3.org/2000/svg"
   xmlns="http://www.w3.org/2000/svg"
   xmlns:sodipodi="http://sodipodi.sourceforge.net/DTD/sodipodi-0.dtd"
   xmlns:inkscape="http://www.inkscape.org/namespaces/inkscape"
   width="1200"
   height="250"
   id="svg4342"
   version="1.1"
   inkscape:version="0.48.4 r9939"
   sodipodi:docname="cloud_sprite.svg">
  <defs
     id="defs4344" />
  <sodipodi:namedview
     id="base"
     pagecolor="#ffffff"
     bordercolor="#666666"
     borderopacity="1.0"
     inkscape:pageopacity="0.0"
     inkscape:pageshadow="2"
     inkscape:zoom="1.979899"
     inkscape:cx="501.24208"
     inkscape:cy="72.158098"
     inkscape:document-units="px"
     inkscape:current-layer="g5198"
     showgrid="false"
     showborder="true"
     inkscape:window-width="1920"
     inkscape:window-height="1030"
     inkscape:window-x="0"
     inkscape:window-y="0"
     inkscape:window-maximized="1" />
  <metadata
     id="metadata4347">
    <rdf:RDF>
      <cc:Work
         rdf:about="">
        <dc:format>image/svg+xml</dc:format>
        <dc:type
           rdf:resource="http://purl.org/dc/dcmitype/StillImage" />
        <dc:title></dc:title>
      </cc:Work>
    </rdf:RDF>
  </metadata>
  <g
     inkscape:label="Cloud"
     inkscape:groupmode="layer"
     id="layer1"
     transform="translate(0,-802.36218)"
     style="display:inline"
     sodipodi:insensitive="true">
    <path
       style="fill:#ffffff;fill-opacity:0.87980772;stroke:#000000;stroke-width:0.89999998;stroke-linecap:butt;stroke-linejoin:miter;stroke-miterlimit:4;stroke-opacity:0.625;stroke-dasharray:none"
       d="m 25.800507,922.09657 c 8.515523,1.2991 15.149687,2.9181 27.642083,-4.1431 9.894092,12.6294 38.881316,23.1379 52.74633,5.9044 18.51629,15.8334 51.93631,12.2179 64.69021,-0.7306 18.30954,7.9104 29.74328,7.7393 41.02853,5.7193 36.60057,-6.551 34.08742,-55.11064 -8.67857,-58.50001 11.17917,-13.40994 -6.3535,-45.88546 -37.10578,-27.93323 -2.11243,-24.66054 -49.41571,-41.11248 -67.246834,-11.36225 -20.94399,-8.53029 -35.722561,11.31904 -36.424457,21.32734 -14.822703,-12.7912 -40.511684,5.89161 -28.937226,23.75389 -32.52620129,-8.7004 -31.3347993,42.36066 -7.714286,45.96426 z"
       id="path4862"
       inkscape:connector-curvature="0"
       sodipodi:nodetypes="scccscccccs"
       inkscape:export-filename="/home/toreinar/projects/pekeboken/img/cloud.png"
       inkscape:export-xdpi="90"
       inkscape:export-ydpi="90" />
    <path
       style="fill:#5aacac;fill-opacity:0.28365389;stroke:none"
       d="m 47.336222,888.66796 c 14.88228,5.21981 23.510011,5.05853 34.714284,0.32148 -8.405633,9.21093 -20.376666,14.88993 -34.714284,-0.32148 z"
       id="path4864"
       inkscape:connector-curvature="0"
       sodipodi:nodetypes="ccc" />
    <path
       style="fill:#5aacac;fill-opacity:0.28365389;stroke:none"
       d="m 74.657643,892.63326 c 8.819123,3.79591 13.931863,3.67871 20.571423,0.23373 -4.98111,6.69848 -12.07505,10.82828 -20.571423,-0.23373 z"
       id="path4864-8"
       inkscape:connector-curvature="0"
       sodipodi:nodetypes="ccc" />
    <path
       style="fill:#5aacac;fill-opacity:0.28365389;stroke:none"
       d="m 36.72908,893.59752 c 8.819127,3.79595 13.931865,3.67865 20.571426,0.23382 -4.981113,6.69833 -12.075057,10.82813 -20.571426,-0.23382 z"
       id="path4864-8-6"
       inkscape:connector-curvature="0"
       sodipodi:nodetypes="ccc" />
    <path
       style="fill:#5aacac;fill-opacity:0.28365389;stroke:none"
       d="m 106.47908,898.52567 c 14.88228,5.2197 23.51002,5.0584 34.71429,0.3214 -8.40563,9.211 -20.37667,14.8899 -34.71429,-0.3214 z"
       id="path4864-3"
       inkscape:connector-curvature="0"
       sodipodi:nodetypes="ccc" />
    <path
       style="fill:#5aacac;fill-opacity:0.28365389;stroke:none"
       d="m 133.80051,902.49087 c 8.81912,3.7959 13.93186,3.6787 20.57142,0.2338 -4.98111,6.6984 -12.07505,10.8282 -20.57142,-0.2338 z"
       id="path4864-8-7"
       inkscape:connector-curvature="0"
       sodipodi:nodetypes="ccc" />
    <path
       style="fill:#5aacac;fill-opacity:0.28365389;stroke:none"
       d="m 95.871936,903.45527 c 8.819134,3.7958 13.931874,3.6785 20.571434,0.2337 -4.98111,6.6983 -12.07506,10.8282 -20.571434,-0.2337 z"
       id="path4864-8-6-3"
       inkscape:connector-curvature="0"
       sodipodi:nodetypes="ccc" />
    <path
       style="fill:#5aacac;fill-opacity:0.28365389;stroke:none"
       d="m 171.72908,890.48992 c 14.88228,5.21985 23.51002,5.05845 34.71429,0.32139 -8.40563,9.21106 -20.37667,14.88996 -34.71429,-0.32139 z"
       id="path4864-0"
       inkscape:connector-curvature="0"
       sodipodi:nodetypes="ccc" />
    <path
       style="fill:#5aacac;fill-opacity:0.28365389;stroke:none"
       d="m 199.05051,894.45527 c 8.81912,3.7958 13.93186,3.6785 20.57142,0.2337 -4.98111,6.6983 -12.07505,10.8282 -20.57142,-0.2337 z"
       id="path4864-8-9"
       inkscape:connector-curvature="0"
       sodipodi:nodetypes="ccc" />
    <path
       style="fill:#5aacac;fill-opacity:0.28365389;stroke:none"
       d="m 161.12194,895.41947 c 8.81913,3.7959 13.93187,3.6786 20.57143,0.2337 -4.98111,6.6985 -12.07506,10.8282 -20.57143,-0.2337 z"
       id="path4864-8-6-5"
       inkscape:connector-curvature="0"
       sodipodi:nodetypes="ccc" />
    <path
       style="fill:#5aacac;fill-opacity:0.28365389;stroke:none"
       d="m 89.691706,838.93304 c -7.25035,2.96552 -10.44508,5.84506 -13.16113,11.23279 0.24752,-6.10139 2.95396,-12.08265 13.16113,-11.23279 z"
       id="path4864-8-71-1"
       inkscape:connector-curvature="0"
       sodipodi:nodetypes="ccc" />
    <path
       style="fill:#5aacac;fill-opacity:0.28365389;stroke:none"
       d="m 122.74668,827.44773 c -6.42514,3.96114 -8.81981,7.62489 -10.04007,14.3253 -1.44541,-7.45379 -0.39942,-14.87766 10.04007,-14.3253 z"
       id="path4864-8-71-11"
       inkscape:connector-curvature="0"
       sodipodi:nodetypes="ccc" />
    <path
       style="fill:#5aacac;fill-opacity:0.28365389;stroke:none"
       d="m 53.165987,859.67665 c -7.529108,2.30785 -10.674122,5.12996 -13.025482,10.90317 -0.401089,-6.96542 1.874774,-13.42132 13.025482,-10.90317 z"
       id="path4864-8-71-5"
       inkscape:connector-curvature="0"
       sodipodi:nodetypes="ccc" />
    <path
       style="fill:#5aacac;fill-opacity:0.28365389;stroke:none"
       d="m 195.1547,862.57164 c -2.8229,-7.30708 -5.63929,-10.55762 -10.97277,-13.3787 6.09538,0.36702 12.02246,3.19013 10.97277,13.3787 z"
       id="path4864-8-71-1-2"
       inkscape:connector-curvature="0"
       sodipodi:nodetypes="ccc" />
    <path
       style="fill:#5aacac;fill-opacity:0.28365389;stroke:none"
       d="m 141.47614,844.57163 c -2.8229,-7.30708 -5.63929,-10.55762 -10.97277,-13.3787 6.09537,0.36702 12.02246,3.19013 10.97277,13.3787 z"
       id="path4864-8-71-1-2-5"
       inkscape:connector-curvature="0"
       sodipodi:nodetypes="ccc" />
    <path
       style="fill:#5aacac;fill-opacity:0.28365389;stroke:none"
       d="m 116.32381,848.44524 c 5.77709,5.2903 9.74494,6.94989 15.77654,7.10577 -5.62307,2.38105 -12.18729,2.48724 -15.77654,-7.10577 z"
       id="path4864-8-71-1-5"
       inkscape:connector-curvature="0"
       sodipodi:nodetypes="ccc" />
    <path
       style="fill:#5aacac;fill-opacity:0.28365389;stroke:none"
       d="m 82.235906,859.95723 c 7.75732,1.089 11.96748,0.20999 17.02712,-3.07701 -3.28633,5.14666 -8.63657,8.9513 -17.02712,3.07701 z"
       id="path4864-8-71-1-3"
       inkscape:connector-curvature="0"
       sodipodi:nodetypes="ccc" />
  </g>
  <g
     inkscape:label="Rain 2"
     inkscape:groupmode="layer"
     id="g5198"
     transform="translate(0,-802.36218)"
     style="display:inline" />
  <g
     transform="translate(0,-802.36218)"
     id="g5162"
     inkscape:groupmode="layer"
     inkscape:label="Cloud 2"
     style="display:inline"
     sodipodi:insensitive="true">
    <path
       inkscape:export-ydpi="90"
       inkscape:export-xdpi="90"
       inkscape:export-filename="/home/toreinar/projects/pekeboken/img/cloud.png"
       sodipodi:nodetypes="scccscccccs"
       inkscape:connector-curvature="0"
       id="path5164"
       d="m 275.80051,922.09657 c 8.51552,1.2991 15.14968,2.9181 27.64208,-4.1431 9.89409,12.6294 38.88132,23.1379 52.74633,5.9044 18.51629,15.8334 51.93631,12.2179 64.69021,-0.7306 18.30954,7.9104 29.74328,7.7393 41.02853,5.7193 36.60057,-6.551 34.08742,-55.11064 -8.67857,-58.50001 11.17917,-13.40994 -6.3535,-45.88546 -37.10578,-27.93323 -2.11243,-24.66054 -49.41571,-41.11248 -67.24683,-11.36225 -20.94399,-8.53029 -35.72257,11.31904 -36.42446,21.32734 -14.8227,-12.7912 -40.51169,5.89161 -28.93723,23.75389 -32.5262,-8.7004 -31.3348,42.36066 -7.71428,45.96426 z"
       style="fill:#e9f7f4;fill-opacity:1;stroke:#000000;stroke-width:0.89999998;stroke-linecap:butt;stroke-linejoin:miter;stroke-miterlimit:4;stroke-opacity:0.625;stroke-dasharray:none" />
    <path
       sodipodi:nodetypes="ccc"
       inkscape:connector-curvature="0"
       id="path5166"
       d="m 297.33622,888.66796 c 14.88228,5.21981 23.51001,5.05853 34.71429,0.32148 -8.40564,9.21093 -20.37667,14.88993 -34.71429,-0.32148 z"
       style="fill:#5aacac;fill-opacity:0.28365389;stroke:none" />
    <path
       sodipodi:nodetypes="ccc"
       inkscape:connector-curvature="0"
       id="path5168"
       d="m 324.65764,892.63326 c 8.81913,3.79591 13.93187,3.67871 20.57143,0.23373 -4.98111,6.69848 -12.07505,10.82828 -20.57143,-0.23373 z"
       style="fill:#5aacac;fill-opacity:0.28365389;stroke:none" />
    <path
       sodipodi:nodetypes="ccc"
       inkscape:connector-curvature="0"
       id="path5170"
       d="m 286.72908,893.59752 c 8.81913,3.79595 13.93186,3.67865 20.57143,0.23382 -4.98112,6.69833 -12.07506,10.82813 -20.57143,-0.23382 z"
       style="fill:#5aacac;fill-opacity:0.28365389;stroke:none" />
    <path
       sodipodi:nodetypes="ccc"
       inkscape:connector-curvature="0"
       id="path5172"
       d="m 366.07553,900.0409 c 14.88228,5.2197 23.51002,5.0584 34.71429,0.3214 -8.40563,9.211 -20.37667,14.8899 -34.71429,-0.3214 z"
       style="fill:#5aacac;fill-opacity:0.28365389;stroke:none" />
    <path
       sodipodi:nodetypes="ccc"
       inkscape:connector-curvature="0"
       id="path5174"
       d="m 393.39696,904.0061 c 8.81912,3.7959 13.93186,3.6787 20.57142,0.2338 -4.98111,6.6984 -12.07505,10.8282 -20.57142,-0.2338 z"
       style="fill:#5aacac;fill-opacity:0.28365389;stroke:none" />
    <path
       sodipodi:nodetypes="ccc"
       inkscape:connector-curvature="0"
       id="path5176"
       d="m 355.46839,904.9705 c 8.81913,3.7958 13.93187,3.6785 20.57143,0.2337 -4.98111,6.6983 -12.07506,10.8282 -20.57143,-0.2337 z"
       style="fill:#5aacac;fill-opacity:0.28365389;stroke:none" />
    <path
       sodipodi:nodetypes="ccc"
       inkscape:connector-curvature="0"
       id="path5178"
       d="m 421.72908,890.48992 c 14.88228,5.21985 23.51002,5.05845 34.71429,0.32139 -8.40563,9.21106 -20.37667,14.88996 -34.71429,-0.32139 z"
       style="fill:#5aacac;fill-opacity:0.28365389;stroke:none" />
    <path
       sodipodi:nodetypes="ccc"
       inkscape:connector-curvature="0"
       id="path5180"
       d="m 449.05051,894.45527 c 8.81912,3.7958 13.93186,3.6785 20.57142,0.2337 -4.98111,6.6983 -12.07505,10.8282 -20.57142,-0.2337 z"
       style="fill:#5aacac;fill-opacity:0.28365389;stroke:none" />
    <path
       sodipodi:nodetypes="ccc"
       inkscape:connector-curvature="0"
       id="path5182"
       d="m 411.12194,895.41947 c 8.81913,3.7959 13.93187,3.6786 20.57143,0.2337 -4.98111,6.6985 -12.07506,10.8282 -20.57143,-0.2337 z"
       style="fill:#5aacac;fill-opacity:0.28365389;stroke:none" />
    <path
       sodipodi:nodetypes="ccc"
       inkscape:connector-curvature="0"
       id="path5184"
       d="m 339.69171,838.93304 c -7.25035,2.96552 -10.44508,5.84506 -13.16113,11.23279 0.24752,-6.10139 2.95396,-12.08265 13.16113,-11.23279 z"
       style="fill:#5aacac;fill-opacity:0.28365389;stroke:none" />
    <path
       sodipodi:nodetypes="ccc"
       inkscape:connector-curvature="0"
       id="path5186"
       d="m 372.74668,827.44773 c -6.42514,3.96114 -8.81981,7.62489 -10.04007,14.3253 -1.44541,-7.45379 -0.39942,-14.87766 10.04007,-14.3253 z"
       style="fill:#5aacac;fill-opacity:0.28365389;stroke:none" />
    <path
       sodipodi:nodetypes="ccc"
       inkscape:connector-curvature="0"
       id="path5188"
       d="m 303.16599,859.67665 c -7.52911,2.30785 -10.67413,5.12996 -13.02549,10.90317 -0.40108,-6.96542 1.87478,-13.42132 13.02549,-10.90317 z"
       style="fill:#5aacac;fill-opacity:0.28365389;stroke:none" />
    <path
       sodipodi:nodetypes="ccc"
       inkscape:connector-curvature="0"
       id="path5190"
       d="m 445.1547,862.57164 c -2.8229,-7.30708 -5.63929,-10.55762 -10.97277,-13.3787 6.09538,0.36702 12.02246,3.19013 10.97277,13.3787 z"
       style="fill:#5aacac;fill-opacity:0.28365389;stroke:none" />
    <path
       sodipodi:nodetypes="ccc"
       inkscape:connector-curvature="0"
       id="path5192"
       d="m 391.47614,844.57163 c -2.8229,-7.30708 -5.63929,-10.55762 -10.97277,-13.3787 6.09537,0.36702 12.02246,3.19013 10.97277,13.3787 z"
       style="fill:#5aacac;fill-opacity:0.28365389;stroke:none" />
    <path
       sodipodi:nodetypes="ccc"
       inkscape:connector-curvature="0"
       id="path5194"
       d="m 366.32381,848.44524 c 5.77709,5.2903 9.74494,6.94989 15.77654,7.10577 -5.62307,2.38105 -12.18729,2.48724 -15.77654,-7.10577 z"
       style="fill:#5aacac;fill-opacity:0.28365389;stroke:none" />
    <path
       sodipodi:nodetypes="ccc"
       inkscape:connector-curvature="0"
       id="path5196"
       d="m 332.23591,859.95723 c 7.75732,1.089 11.96748,0.20999 17.02712,-3.07701 -3.28633,5.14666 -8.63657,8.9513 -17.02712,3.07701 z"
       style="fill:#5aacac;fill-opacity:0.28365389;stroke:none" />
  </g>
</svg>
