<?xml version="1.0" encoding="UTF-8" standalone="no"?>
<!-- Created with Inkscape (http://www.inkscape.org/) -->

<svg
   xmlns:dc="http://purl.org/dc/elements/1.1/"
   xmlns:cc="http://creativecommons.org/ns#"
   xmlns:rdf="http://www.w3.org/1999/02/22-rdf-syntax-ns#"
   xmlns:svg="http://www.w3.org/2000/svg"
   xmlns="http://www.w3.org/2000/svg"
   xmlns:sodipodi="http://sodipodi.sourceforge.net/DTD/sodipodi-0.dtd"
   xmlns:inkscape="http://www.inkscape.org/namespaces/inkscape"
   width="744.09448819"
   height="1052.3622047"
   id="svg3776"
   version="1.1"
   inkscape:version="0.48.4 r9939"
   inkscape:export-filename="/home/toreinar/projects/pekeboken/img/flower.png"
   inkscape:export-xdpi="90"
   inkscape:export-ydpi="90"
   sodipodi:docname="flower.svg">
  <defs
     id="defs3778" />
  <sodipodi:namedview
     id="base"
     pagecolor="#ffffff"
     bordercolor="#666666"
     borderopacity="1.0"
     inkscape:pageopacity="0.0"
     inkscape:pageshadow="2"
     inkscape:zoom="1.4"
     inkscape:cx="172.23054"
     inkscape:cy="712.01659"
     inkscape:document-units="px"
     inkscape:current-layer="layer1"
     showgrid="false"
     showborder="false"
     inkscape:window-width="1920"
     inkscape:window-height="1030"
     inkscape:window-x="0"
     inkscape:window-y="0"
     inkscape:window-maximized="1" />
  <metadata
     id="metadata3781">
    <rdf:RDF>
      <cc:Work
         rdf:about="">
        <dc:format>image/svg+xml</dc:format>
        <dc:type
           rdf:resource="http://purl.org/dc/dcmitype/StillImage" />
        <dc:title></dc:title>
      </cc:Work>
    </rdf:RDF>
  </metadata>
  <g
     inkscape:label="Layer 1"
     inkscape:groupmode="layer"
     id="layer1">
    <path
       sodipodi:type="arc"
       style="fill:#ffffff;fill-opacity:1;stroke:#000000;stroke-width:0.917;stroke-miterlimit:4;stroke-opacity:1;stroke-dasharray:none"
       id="path3786"
       sodipodi:cx="86.785713"
       sodipodi:cy="244.50504"
       sodipodi:rx="16.071428"
       sodipodi:ry="10"
       d="m 102.85714,244.50504 a 16.071428,10 0 1 1 -32.142855,0 16.071428,10 0 1 1 32.142855,0 z"
       transform="matrix(0.25,0,0,0.25,67.857141,202.48593)" />
    <path
       sodipodi:type="arc"
       style="fill:#ffffff;fill-opacity:1;stroke:#000000;stroke-width:0.917;stroke-miterlimit:4;stroke-opacity:1;stroke-dasharray:none"
       id="path3788"
       sodipodi:cx="60.357143"
       sodipodi:cy="254.1479"
       sodipodi:rx="10.357142"
       sodipodi:ry="12.5"
       d="m 70.714286,254.1479 a 10.357142,12.5 0 1 1 -20.714285,0 10.357142,12.5 0 1 1 20.714285,0 z"
       transform="matrix(0.33382238,0,0,0.27659565,62.797863,195.72669)" />
    <path
       sodipodi:type="arc"
       style="fill:#ffffff;fill-opacity:1;stroke:#000000;stroke-width:0.917;stroke-miterlimit:4;stroke-opacity:1;stroke-dasharray:none"
       id="path3790"
       sodipodi:cx="65.35714"
       sodipodi:cy="280.93362"
       sodipodi:rx="13.214286"
       sodipodi:ry="13.571428"
       d="m 78.571425,280.93362 a 13.214286,13.571428 0 1 1 -26.428571,0 13.214286,13.571428 0 1 1 26.428571,0 z"
       transform="matrix(0.2826653,0,0,0.2818057,64.740087,193.63992)" />
    <path
       sodipodi:type="arc"
       style="fill:#ffffff;fill-opacity:1;stroke:#000000;stroke-width:0.917;stroke-miterlimit:4;stroke-opacity:1;stroke-dasharray:none"
       id="path3792"
       sodipodi:cx="90.35714"
       sodipodi:cy="290.21933"
       sodipodi:rx="11.785714"
       sodipodi:ry="15"
       d="m 102.14285,290.21933 a 11.785714,15 0 1 1 -23.571425,0 11.785714,15 0 1 1 23.571425,0 z"
       transform="matrix(0.3386969,0,0,0.27802375,59.307029,193.01361)" />
    <path
       sodipodi:type="arc"
       style="fill:#ffffff;fill-opacity:1;stroke:#000000;stroke-width:0.917;stroke-miterlimit:4;stroke-opacity:1;stroke-dasharray:none"
       id="path3794"
       sodipodi:cx="116.42857"
       sodipodi:cy="276.64789"
       sodipodi:rx="12.142858"
       sodipodi:ry="16.428572"
       d="m 128.57143,276.64789 a 12.142858,16.428572 0 1 1 -24.28571,0 12.142858,16.428572 0 1 1 24.28571,0 z"
       transform="matrix(0.34496098,0,0,0.20605812,53.318827,211.2495)" />
    <path
       sodipodi:type="arc"
       style="fill:#ffe000;fill-opacity:1;stroke:#000000;stroke-width:0.917;stroke-miterlimit:4;stroke-opacity:1;stroke-dasharray:none"
       id="path3784"
       sodipodi:cx="86.428574"
       sodipodi:cy="267.00504"
       sodipodi:rx="20"
       sodipodi:ry="15.357142"
       d="m 106.42857,267.00504 a 20,15.357142 0 1 1 -39.999996,0 20,15.357142 0 1 1 39.999996,0 z"
       transform="matrix(0.25,0,0,0.25,66.607141,201.95021)" />
  </g>
</svg>
