<?xml version="1.0" encoding="UTF-8" standalone="no"?>
<!-- Created with Inkscape (http://www.inkscape.org/) -->

<svg
   xmlns:dc="http://purl.org/dc/elements/1.1/"
   xmlns:cc="http://creativecommons.org/ns#"
   xmlns:rdf="http://www.w3.org/1999/02/22-rdf-syntax-ns#"
   xmlns:svg="http://www.w3.org/2000/svg"
   xmlns="http://www.w3.org/2000/svg"
   xmlns:sodipodi="http://sodipodi.sourceforge.net/DTD/sodipodi-0.dtd"
   xmlns:inkscape="http://www.inkscape.org/namespaces/inkscape"
   width="744.09448819"
   height="1052.3622047"
   id="svg2"
   version="1.1"
   inkscape:version="0.48.4 r9939"
   sodipodi:docname="hen.svg">
  <defs
     id="defs4" />
  <sodipodi:namedview
     id="base"
     pagecolor="#ffffff"
     bordercolor="#666666"
     borderopacity="1.0"
     inkscape:pageopacity="0.0"
     inkscape:pageshadow="2"
     inkscape:zoom="3.9597979"
     inkscape:cx="447.40515"
     inkscape:cy="516.58615"
     inkscape:document-units="px"
     inkscape:current-layer="layer1"
     showgrid="false"
     showborder="false"
     inkscape:window-width="1433"
     inkscape:window-height="1028"
     inkscape:window-x="0"
     inkscape:window-y="0"
     inkscape:window-maximized="0" />
  <metadata
     id="metadata7">
    <rdf:RDF>
      <cc:Work
         rdf:about="">
        <dc:format>image/svg+xml</dc:format>
        <dc:type
           rdf:resource="http://purl.org/dc/dcmitype/StillImage" />
        <dc:title />
      </cc:Work>
    </rdf:RDF>
  </metadata>
  <g
     inkscape:label="Layer 1"
     inkscape:groupmode="layer"
     id="layer1">
    <path
       style="fill:none;stroke:#000000;stroke-width:0.2px;stroke-linecap:butt;stroke-linejoin:miter;stroke-opacity:1"
       d="m 312.74087,569.88957 c -3.44175,0.089 -7.20268,1.13562 -11.71777,4.44467 2.31178,28.23849 10.98843,45.673 24.34638,58.35573 30.4744,28.934 79.30664,22.92546 89.72429,-8.69277 0.76733,-2.32889 -3.27849,-2.51744 -2.95389,-5.21625 l -0.62703,-0.46812 -0.9387,0.0641"
       id="path3070"
       inkscape:connector-curvature="0"
       sodipodi:nodetypes="ccssccc" />
    <path
       style="fill:none;stroke:#000000;stroke-width:0.2px;stroke-linecap:butt;stroke-linejoin:miter;stroke-opacity:1"
       d="m 382.23937,542.00936 c 0.30565,8.61839 -0.28941,17.86136 8.48528,20.60711 8.54563,-0.95905 11.65687,-2.71492 18.58681,-8.08122 1.97008,12.75304 1.12839,11.3556 8.48528,17.37462 9.7263,-3.83864 13.84218,1.05104 21.01117,-10.90964 2.07119,16.64497 14.30478,15.41588 12.92995,18.18274 11.18391,-6.45353 13.24361,-3.68861 17.37463,-13.33401 6.85814,11.20325 4.24565,7.72365 13.33401,12.92995 13.95974,-6.45894 11.19848,-7.58829 17.37462,-14.95026"
       id="path3850"
       inkscape:connector-curvature="0"
       sodipodi:nodetypes="ccccccccc" />
    <path
       style="fill:#ff7f2a;fill-opacity:0.98557691;stroke:#000000;stroke-width:0.90579998;stroke-miterlimit:4;stroke-opacity:0.9807692;stroke-dasharray:none"
       d="m 408.74624,756.31765 c -2.46821,-1.93918 -5.87833,-4.12808 -9,-5.777 -11.81926,-6.24312 -25.35692,-7.1782 -39.67166,-2.7402 -1.78369,0.55298 -3.29781,0.9507 -3.36471,0.8838 -0.1997,-0.19968 2.73036,-2.30312 5.17923,-3.71806 2.09582,-1.21096 7.71998,-3.3408 8.8219,-3.3408 0.61153,0 0.62845,-2.10498 0.0352,-4.38248 -0.23571,-0.90496 -0.42857,-1.88556 -0.42857,-2.17908 0,-0.29352 -0.11251,-0.57654 -0.25002,-0.62892 -0.31622,-0.12044 -2.11686,-3.68074 -1.94731,-3.85028 0.0692,-0.0692 1.1062,0.92952 2.30447,2.21934 1.19827,1.28982 2.26629,2.25752 2.37338,2.15042 0.10709,-0.10708 -0.20083,-0.61064 -0.68427,-1.119 -0.48344,-0.50836 -5.12753,-5.35712 -10.3202,-10.77504 -5.19266,-5.41792 -9.39965,-9.8923 -9.34886,-9.9431 0.0508,-0.0508 1.23224,0.10418 2.62543,0.3444 5.00645,0.86316 6.84854,1.03384 11.22855,1.04036 2.44607,0.004 6.05454,-0.18958 8.01883,-0.42936 1.96428,-0.23976 3.8712,-0.43848 4.23759,-0.4416 l 0.66616,-0.006 -0.61653,0.99756 c -0.89444,1.44724 -2.43028,4.67782 -2.8536,6.00244 -0.20088,0.62858 -0.45514,1.27144 -0.56502,1.42858 -0.10988,0.15714 -0.22331,0.8 -0.25207,1.42856 -0.0288,0.62858 -0.12069,1.47602 -0.20429,1.8832 -0.0836,0.40718 -0.0121,1.61614 0.15892,2.68658 0.76286,4.7753 4.2403,8.4625 10.73115,11.37844 3.76855,1.693 4.48447,1.78058 13.41197,1.6409 15.959,-0.2497 19.82838,-0.18322 21.85715,0.37558 3.03639,0.83634 8.32308,3.37888 7.90175,3.80022 -0.0604,0.0604 -2.08805,-0.10446 -4.50581,-0.36644 -7.51285,-0.81402 -20.35849,-0.61984 -23.76933,0.3593 -0.38884,0.11162 0.2105,0.68618 2.42857,2.3282 1.61965,1.19902 3.61234,2.85754 4.42819,3.68564 1.56535,1.5888 3.33278,4.82982 3.17822,5.82804 -0.0808,0.52192 -0.26794,0.44264 -1.80445,-0.76454 l 0,0 z"
       id="path3854"
       inkscape:connector-curvature="0" />
    <path
       style="fill:#ff7f2a;fill-opacity:0.98557691;stroke:#000000;stroke-width:0.90579998;stroke-miterlimit:4;stroke-opacity:0.9807692;stroke-dasharray:none"
       d="m 377.02447,732.36703 c -1.38518,-2.11872 -2.09439,-5.25658 -1.73291,-7.66712 l 0.18936,-1.26276 1.34695,0.6563 c 2.00197,0.97546 4.18741,1.22196 13.63266,1.53766 14.25817,0.47658 18.5175,1.02136 22.09152,2.82552 1.58971,0.80248 3.4799,2.54716 3.4799,3.21198 0,0.20714 -0.5889,0.25188 -1.78571,0.13564 -12.40974,-1.20528 -26.84127,-0.8788 -35.02229,0.79226 -1.72904,0.35318 -1.8251,0.34316 -2.19948,-0.22948 z"
       id="path3856"
       inkscape:connector-curvature="0" />
    <path
       style="fill:#ff7f2a;fill-opacity:0.98557691;stroke:#000000;stroke-width:0.90579998;stroke-miterlimit:4;stroke-opacity:0.9807692;stroke-dasharray:none"
       d="m 385.42677,725.04951 c -1.98285,-0.1113 -4.47748,-0.36694 -5.54363,-0.5681 -1.80802,-0.34114 -1.89226,-0.38958 -1.25196,-0.71988 1.66633,-0.85954 8.68719,-3.09942 11.68649,-3.72834 3.39075,-0.711 5.04564,-0.82032 7.66211,-0.5061 l 1.51926,0.18246 -1.94783,1.13476 c -1.0713,0.6241 -3.16926,1.77068 -4.66211,2.54794 -1.49286,0.77726 -2.83643,1.5334 -2.98572,1.6803 -0.14928,0.14692 -0.40643,0.24736 -0.57143,0.2232 -0.165,-0.0242 -1.92233,-0.13496 -3.90518,-0.24624 l 0,0 z"
       id="path3858"
       inkscape:connector-curvature="0" />
    <path
       style="fill:#ff7f2a;fill-opacity:0.98557691;stroke:#000000;stroke-width:0.90579998;stroke-miterlimit:4;stroke-opacity:0.9807692;stroke-dasharray:none"
       d="m 342.8891,741.97059 c 0,-0.28544 2.06733,-2.2572 3.57143,-3.4063 0.62857,-0.48022 3.26428,-1.99746 5.85714,-3.37166 5.2893,-2.80328 5.97028,-3.2272 7.52355,-4.68348 1.39943,-1.31206 1.93707,-2.33314 2.32254,-4.41094 l 0.30983,-1.67006 2.37503,2.59862 c 1.30628,1.42924 2.29848,2.59862 2.20489,2.59862 -0.0936,0 0.40822,1.1516 1.11511,2.5591 l 1.28526,2.55912 -0.92525,0.15072 c -10.45937,1.70396 -17.24439,3.5295 -23.03663,6.1981 -2.62937,1.2114 -2.6029,1.20248 -2.6029,0.87816 z"
       id="path3860"
       inkscape:connector-curvature="0" />
    <path
       style="fill:#ff7f2a;fill-opacity:0.98557691;stroke:#000000;stroke-width:0.57140005;stroke-miterlimit:4;stroke-opacity:0.9807692;stroke-dasharray:none"
       d="m 470.74273,489.15327 c 0.46286,-1.20621 1.38867,-7.26125 1.81205,-11.85138 0.28469,-3.08644 0.5465,-3.85516 1.31029,-3.84722 2.49985,0.026 9.23383,1.86105 12.58634,3.42988 3.56147,1.66661 8.65389,5.31291 8.65389,6.19639 0,0.22925 -2.0069,0.70933 -4.45978,1.06684 -2.45288,0.35751 -7.90946,1.82416 -12.12573,3.25921 -4.21627,1.43505 -7.76545,2.60919 -7.88707,2.60919 -0.12161,0 -0.0721,-0.38831 0.11001,-0.86291 z"
       id="path3864"
       inkscape:connector-curvature="0" />
    <path
       style="fill:#ff0000;fill-opacity:0.98557691;stroke:#000000;stroke-width:0.50279999;stroke-miterlimit:4;stroke-opacity:0.9807692;stroke-dasharray:none"
       d="m 473.86587,519.46128 c -2.5528,-1.60482 -5.38428,-4.22848 -7.39088,-6.08079 -1.12073,-1.03835 -3.37162,-3.09943 -5.00198,-4.58017 -1.63036,-1.48075 -2.96429,-2.73524 -2.96429,-2.78776 0,-0.0525 0.36965,-0.31478 0.82143,-0.5828 3.76398,-2.23296 6.80952,-5.6213 8.84854,-9.84454 l 0.65887,-1.30334 c 1.35069,3.05911 3.74417,5.66374 6.74259,5.63839 1.25714,8e-4 2.61366,-0.0477 3.01448,-0.10777 l 0.72875,-0.10925 -0.25981,0.7521 c -1.73327,4.46131 3.5439,13.36188 -0.27686,16.082 -0.2731,0.18356 -0.5399,0.51039 -0.59925,0.7341 -0.18238,0.6874 -1.00855,1.77151 -1.60731,2.10911 -0.69194,0.39014 -1.86428,0.42501 -2.71428,0.0807 z"
       id="path3866"
       inkscape:connector-curvature="0"
       sodipodi:nodetypes="ccssssccscccssc" />
    <path
       style="fill:#ffffff;fill-opacity:0.98557691;stroke:#000000;stroke-width:0.91820002;stroke-miterlimit:4;stroke-opacity:0.9807692;stroke-dasharray:none"
       d="m 451.68478,578.66837 c -0.28783,-0.31805 -1.55774,-1.12157 -2.82203,-1.7856 -3.34184,-1.75521 -6.03795,-4.48764 -7.53441,-7.6359 -1.07798,-2.26786 -2.06006,-5.46185 -2.07011,-6.73254 -0.002,-0.30425 -0.11629,-0.72986 -0.25307,-0.94579 -0.1834,-0.28954 -0.6239,0.16341 -1.67778,1.72518 -1.91497,2.83787 -4.47376,5.17298 -6.49868,5.9306 -0.87809,0.32854 -3.22896,0.85051 -5.22417,1.15993 -1.9952,0.30942 -4.55217,0.8432 -5.68216,1.18618 l -2.05453,0.62358 -2.45712,-2.06912 c -3.75614,-3.16302 -4.15419,-4.02284 -5.2952,-11.43792 -0.32547,-2.11508 -0.623,-3.87686 -0.66119,-3.91504 -0.0382,-0.0382 -1.18372,0.7545 -2.54562,1.76154 -4.9365,3.65024 -8.21984,5.11361 -13.43446,5.98771 l -2.78835,0.46739 -1.49736,-0.7478 c -4.61405,-2.30432 -6.36942,-6.65952 -6.53729,-16.21952 l -0.0592,-3.36848 1.19181,-0.58966 c 2.38642,-1.18071 3.76771,-3.74578 5.90147,-10.9591 4.69593,-34.32734 14.41844,-66.80864 45.43438,-72.69198 7.49001,-1.61542 16.37682,-1.87565 21.14285,-0.61912 4.71293,1.24254 10.16123,3.71117 12.41505,6.6609 -10.27346,-10.85275 -40.38667,7.37564 -26.26891,24.62585 2.44367,4.06224 8.95364,10.79185 21.37341,22.09456 17.10815,15.5694 24.97861,24.73932 30.34776,35.35836 1.0329,2.04286 2.28165,4.87143 2.77498,6.28571 1.05749,3.03156 2.92945,9.76687 2.92927,10.53951 -6e-5,0.29673 -0.68642,1.45388 -1.52522,2.57143 -0.8388,1.11756 -2.11242,2.86764 -2.83026,3.88906 -2.2858,3.25248 -4.2892,4.81935 -9.70221,7.58817 l -3.22749,1.65091 -3.27246,-1.69097 c -1.89238,-0.97784 -3.76016,-2.1796 -4.4289,-2.84961 -0.63604,-0.63726 -2.16325,-2.79083 -3.39378,-4.78572 -1.23054,-1.99488 -2.2825,-3.62706 -2.33769,-3.62706 -0.0552,0 -0.71904,1.17343 -1.47523,2.60763 -1.86638,3.53979 -3.07062,4.56601 -8.00054,6.81791 -2.17206,0.99215 -4.7329,2.23437 -5.69074,2.7605 -1.7405,0.95601 -1.74185,0.95624 -2.26486,0.37832 z"
       id="path3870"
       inkscape:connector-curvature="0"
       sodipodi:nodetypes="ssscssssscsscsscsscsccsccssscssscssssssss" />
    <path
       style="fill:#ff0000;fill-opacity:0.98557691;stroke:#000000;stroke-width:0.90279996;stroke-miterlimit:4;stroke-opacity:0.9807692;stroke-dasharray:none"
       d="m 474.5679,473.67707 c -0.31816,-0.0416 -0.54875,-0.22897 -0.89505,-0.72714 -2.50209,-14.35573 -29.85998,-18.06002 -40.78099,-14.0797 -14.53045,-9.59476 5.3384,-32.23587 9.20533,-9.37277 l 0.52929,0.63857 c 3.93585,-24.56019 24.32599,-15.60641 17.98386,2.53571 17.39989,-30.76689 29.83031,-3.07205 15.67274,20 -0.68604,1.16721 -0.64812,1.14498 -1.71518,1.00533 z"
       id="path3868"
       inkscape:connector-curvature="0"
       sodipodi:nodetypes="sccccccs" />
    <path
       style="fill:#ff7f2a;fill-opacity:0.98557691;stroke:#000000;stroke-width:0.5714286;stroke-miterlimit:4;stroke-opacity:0.9807692;stroke-dasharray:none"
       d="m 470.58438,490.06345 c 0.0962,-0.13977 4.90987,2.57212 6.58393,2.57212 2.50746,0 6.95194,-1.95411 11.93699,-3.2305 -10.86521,18.41451 -25.43816,10.9534 -18.52092,0.65838 z"
       id="path3862"
       inkscape:connector-curvature="0"
       sodipodi:nodetypes="cscc" />
    <path
       style="fill:#ffffff;fill-opacity:0.98557691;stroke:#000000;stroke-width:0.9094286;stroke-miterlimit:4;stroke-opacity:0.9807692;stroke-dasharray:none"
       d="m 361.23157,713.91591 c -4.94624,-0.5954 -12.15048,-2.118 -16.71429,-3.53256 -7.90007,-2.44866 -17.9977,-7.3705 -27,-13.1605 -11.90496,-7.6569 -27.05391,-20.18892 -30.52836,-25.25468 -1.53699,-2.24095 -5.30325,-9.08982 -6.74122,-12.25877 -1.69635,-3.73839 -4.74246,-14.00264 -5.77959,-19.47506 -0.70751,-3.73314 -0.71046,-12.59654 -0.005,-15.71429 0.64203,-2.83838 1.98511,-6.29669 2.88216,-7.42129 l 0.0718,-0.84986 1.85327,1.06705 c 5.22466,3.00822 6.61233,4.53843 8.83919,4.53041 0.7974,-0.003 1.66598,0.16257 3.65865,-0.003 3.64187,-0.30213 10.00914,-0.30031 13.06971,0.3236 2.77536,0.56577 11.13967,3.63607 13.52887,4.80816 1.93092,0.94726 3.07345,1.21152 6,4.1263 4.69966,4.68075 6.28016,5.85564 10.20799,8.47826 7.75179,5.17591 17.27814,9.21001 26.90346,10.97491 4.59514,0.84256 13.80391,0.75176 18.74703,0.12093 7.40907,-0.94553 13.07205,-3.29189 18.43513,-6.6559 6.96853,-4.37104 13.21596,-12.2032 15.95876,-19.07126 1.4654,-3.66941 0.83625,-1.34926 -0.99299,-3.12099 -1.07747,-1.04358 -1.70606,-1.98342 -1.70606,-2.44668 0,-0.37954 -0.15287,-0.81863 -0.40143,-0.91401 -0.69658,-0.26731 -1.144,-0.40758 -1.144,-0.0897 0,0.15714 0.66104,-0.0173 1.03686,-0.0173 0.50838,0 0.37895,0.50419 0.52189,1.08876 0.10567,0.43214 0.85278,1.45896 1.66024,2.28183 l 1.46811,1.49612 -0.531,1.50388 c -0.80352,2.2757 -2.57498,5.76785 -4.07891,8.04091 -1.65543,2.50206 -6.12435,7.16668 -8.63746,9.0157 -5.96988,4.39238 -13.00223,7.2245 -21.43973,8.6344 -4.58156,0.76558 -12.87151,0.82316 -17.57143,0.12206 -19.48278,-2.9063 -36.55745,-13.82281 -47.60047,-30.43286 -7.24087,-10.89114 -11.94894,-25.68197 -13.64798,-42.87632 -0.14751,-1.49286 -0.24839,-2.7256 -0.22416,-2.73942 0.0242,-0.0138 0.65142,-0.43555 1.39377,-0.93719 2.5699,-1.73659 5.456,-2.80525 9.00742,-3.33526 1.56967,-2.0612 -8.10338,2.14257 -9.40834,2.9648 -1.37928,0.87983 -1.60558,1.14309 -1.50891,1.75535 0.0626,0.39616 0.47614,1.87822 0.72364,3.51826 3.15296,20.89291 8.08993,34.6255 16.75882,46.84488 0.90416,1.27448 1.73457,2.21429 1.67885,2.21429 -0.0557,0 -1.06513,-0.43923 -2.24315,-0.97608 -2.25535,-1.02779 -9.92243,-3.54943 -13.07234,-4.29937 -2.74282,-0.65303 -9.27045,-0.87295 -13.5169,-0.4554 -3.59153,0.35314 -3.609,0.35193 -5.16208,-0.3591 -2.39323,-1.09565 -4.5892,-2.83522 -8.13648,-6.44543 -4.59992,-4.68152 -9.20741,-10.93613 -9.63646,-13.08135 -0.21578,-1.0789 -0.0866,-1.11902 4.52335,-1.40431 1.68929,-0.10454 3.07143,-0.28673 3.07143,-0.40485 0,-0.11813 -0.61072,-0.29698 -1.35714,-0.39746 -2.95696,-0.39803 -6.06628,-2.48404 -10.34058,-6.93736 -1.48374,-1.5459 -3.7202,-3.87426 -4.96992,-5.17413 -1.24971,-1.29988 -2.22145,-2.40495 -2.15942,-2.45572 0.062,-0.0508 1.68777,-0.52975 3.61277,-1.06441 1.925,-0.53466 3.5,-1.04382 3.5,-1.13148 0,-0.0876 -1.50139,-1.30942 -3.33642,-2.71503 -8.11742,-6.21784 -10.60422,-8.61737 -12.08421,-11.66007 -0.88065,-1.81053 -1.42562,-4.18131 -0.96116,-4.18131 0.36499,0 6.9203,0.82516 7.88179,0.99213 1.29434,0.22477 0.89146,-0.3304 -0.80256,-1.10594 -2.00485,-0.91786 -4.21741,-3.17442 -5.65093,-5.76334 -1.69521,-3.06151 -5.63201,-13.0235 -5.0757,-12.84393 0.25177,0.0813 2.06491,0.77665 4.02919,1.54529 1.96429,0.76864 3.60867,1.30022 3.65418,1.18127 0.0455,-0.11894 -0.62946,-0.95749 -1.49994,-1.86345 -1.82981,-1.90439 -4.1282,-6.31378 -7.11089,-13.64203 l -1.83156,-4.5 3.10839,0 c 3.09861,0 4.10352,-0.33927 2.00083,-0.6755 -2.12407,-0.33965 -3.47169,-2.51883 -5.05959,-8.18164 -0.41861,-1.49286 -1.11701,-3.50519 -1.55201,-4.47185 l -0.7909,-1.75756 1.89789,-0.86279 c 3.42489,-1.55698 5.81679,-1.86325 8.42391,-1.07862 0.73212,0.22034 1.33112,0.3119 1.33112,0.20347 0,-0.10843 -0.80703,-1.02799 -1.7934,-2.04347 -2.00778,-2.06703 -3.63893,-4.9617 -5.03114,-8.92836 -0.80954,-2.30653 -0.84087,-2.52717 -0.38546,-2.71429 0.89359,-0.36715 12.92418,-0.22247 15.35286,0.18462 10.8993,1.82696 19.22994,6.51247 25.97897,14.61171 1.11304,1.33571 2.40882,3.03905 2.87951,3.7852 0.47069,0.74615 1.02194,1.35686 1.22499,1.35714 0.35145,4e-4 0.0241,-0.69048 -1.73276,-3.65737 -0.30731,-0.51898 -0.50362,-0.99873 -0.43624,-1.06611 0.20304,-0.20304 5.04724,0.65605 7.94355,1.40875 15.03149,3.90642 27.99668,14.10866 38.96989,30.66522 1.27322,1.92105 2.46726,3.49605 2.65341,3.5 0.19408,0.004 -0.45876,-1.91252 -1.53035,-4.49283 -1.02786,-2.475 -1.88731,-4.68178 -1.9099,-4.90396 -0.12127,-1.19275 4.11146,-2.29878 8.81607,-2.30368 6.15799,-0.006 10.52439,0.96569 19.85714,4.42089 7.37175,2.72918 8.82388,3.14316 12.57713,3.58553 2.5641,0.30221 5.35105,0.13046 7.30735,-0.45032 0.57774,-0.17152 0.60565,-0.0557 0.79526,3.29931 0.25457,4.50449 0.8024,7.08243 2.04484,9.62251 1.12921,2.30856 2.54806,3.70126 4.90828,4.81783 l 1.5113,0.71496 2.64221,-0.4526 c 5.45784,-0.93489 8.69946,-2.30144 13.17816,-5.55543 1.36434,-0.99125 2.52799,-1.75244 2.5859,-1.69152 0.0579,0.0609 0.37828,1.84648 0.71195,3.96791 0.7188,4.57014 1.2413,6.31458 2.35343,7.85714 0.82527,1.14469 5.21637,5 5.69487,5 0.13991,0 1.1929,-0.25748 2.33998,-0.57218 1.14708,-0.3147 3.83949,-0.87971 5.98313,-1.25558 2.27362,-0.39867 4.56093,-0.98713 5.48977,-1.41237 1.85258,-0.84814 4.24889,-3.01429 5.75712,-5.20417 1.08561,-1.57626 1.5479,-1.74617 1.5479,-0.56894 0,1.1226 1.14193,4.4749 2.24247,6.58309 1.42607,2.73178 3.85261,5.10169 7.1861,7.0184 1.54958,0.89099 2.8355,1.83568 2.99678,2.20157 0.15537,0.35249 0.34823,0.60217 0.42857,0.55485 0.0803,-0.0473 2.20322,-1.08142 4.7175,-2.29798 2.51429,-1.21657 5.27858,-2.55749 6.14286,-2.97982 2.08826,-1.02042 4.20515,-3.19137 5.47284,-5.61259 l 1.0337,-1.9743 0.79328,1.26001 c 2.52924,4.01732 3.8755,5.93179 4.73402,6.73208 0.88112,0.82137 7.16424,4.38507 7.73127,4.38507 0.41766,0 6.41817,-3.05977 8.05927,-4.10957 2.52311,-1.61401 3.74546,-2.88689 6.67078,-6.94654 1.7698,-2.45607 2.82546,-3.69183 2.95162,-3.45517 0.10804,0.20263 0.28374,0.97359 0.39048,1.71323 0.10672,0.73965 0.83572,3.69186 1.61996,6.56048 5.30152,19.39191 6.60018,34.32798 4.24536,48.82629 -4.07294,25.07663 -19.88122,47.63751 -47.50158,67.79217 -9.4417,6.88962 -25.82421,13.23726 -46.91528,18.17796 -10.21708,2.39342 -17.2677,3.60996 -30.14286,5.20098 -8.87239,1.09638 -17.35694,1.59438 -20.57143,1.20746 z"
       id="path3874"
       inkscape:connector-curvature="0"
       sodipodi:nodetypes="sssssssscscsssssssssssssssscssssssscsccssssssssssssssscssssssssssssscsssscssssssssscsssscssssssssscsscssssssssssscssscsssssccssssss" />
    <path
       style="fill:#ffffff;fill-opacity:1;stroke:#000000;stroke-width:0.11737286;stroke-miterlimit:4;stroke-opacity:1;stroke-dasharray:none"
       d="m 455.26954,502.96617 c -5.81573,-5.57094 -10.31538,-10.45705 -12.08729,-13.12539 -0.23386,-0.35219 -0.79508,-1.14296 -1.24713,-1.75729 -3.93954,-5.35365 -4.02318,-11.13155 -0.24148,-16.68073 0.90842,-1.33299 2.77941,-3.33305 4.16634,-4.45378 4.19925,-3.39326 9.5668,-5.46438 14.18235,-5.47242 2.06056,-0.004 2.98708,0.18436 4.24611,0.86134 4.79659,2.57913 7.88312,6.04085 8.77947,9.84666 0.20897,0.88725 0.20781,0.92558 -0.0409,1.34468 -0.34147,0.57542 -0.49296,1.378 -0.80662,4.27338 -0.72517,6.69407 -1.66052,11.96164 -2.28035,12.84217 -0.38711,0.54993 -1.02579,2.10158 -1.23275,2.99486 -0.22217,0.95904 -1.31226,3.11841 -2.46053,4.8741 -1.7279,2.64192 -3.76739,4.70349 -6.38243,6.45151 -0.77978,0.52125 -1.44182,0.94643 -1.47116,0.94484 -0.0294,-0.002 -1.43498,-1.32635 -3.12363,-2.94393 z"
       id="path3774"
       inkscape:connector-curvature="0" />
    <path
       sodipodi:type="arc"
       style="fill:#ffffff;fill-opacity:1;stroke:#000000;stroke-width:2.43448114;stroke-miterlimit:4;stroke-opacity:1;stroke-dasharray:none"
       id="path3080"
       sodipodi:cx="806.10175"
       sodipodi:cy="11.905062"
       sodipodi:rx="28.284271"
       sodipodi:ry="34.345188"
       d="m 834.38602,11.905062 a 28.284271,34.345188 0 1 1 -56.56855,0 28.284271,34.345188 0 1 1 56.56855,0 z"
       transform="matrix(0.37819668,0,0,0.37515272,153.96167,474.40689)" />
    <path
       sodipodi:type="arc"
       style="fill:#000000;fill-opacity:0.98557691;stroke:#000000;stroke-width:1;stroke-miterlimit:4;stroke-opacity:0.9807692;stroke-dasharray:none"
       id="path3852"
       sodipodi:cx="799.03064"
       sodipodi:cy="17.965977"
       sodipodi:rx="17.172594"
       sodipodi:ry="20.203051"
       d="m 816.20323,17.965977 a 17.172594,20.203051 0 1 1 -34.34518,0 17.172594,20.203051 0 1 1 34.34518,0 z"
       transform="matrix(0.43779264,0,0,0.43626588,111.69236,472.44938)" />
  </g>
</svg>
