<?xml version="1.0" encoding="UTF-8" standalone="no"?>
<!-- Created with Inkscape (http://www.inkscape.org/) -->

<svg
   xmlns:dc="http://purl.org/dc/elements/1.1/"
   xmlns:cc="http://creativecommons.org/ns#"
   xmlns:rdf="http://www.w3.org/1999/02/22-rdf-syntax-ns#"
   xmlns:svg="http://www.w3.org/2000/svg"
   xmlns="http://www.w3.org/2000/svg"
   xmlns:sodipodi="http://sodipodi.sourceforge.net/DTD/sodipodi-0.dtd"
   xmlns:inkscape="http://www.inkscape.org/namespaces/inkscape"
   width="250"
   height="250"
   id="svg2"
   version="1.1"
   inkscape:version="0.48.4 r9939"
   sodipodi:docname="rooster.svg">
  <defs
     id="defs4" />
  <sodipodi:namedview
     id="base"
     pagecolor="#ffffff"
     bordercolor="#666666"
     borderopacity="1.0"
     inkscape:pageopacity="0.0"
     inkscape:pageshadow="2"
     inkscape:zoom="1.4"
     inkscape:cx="67.284402"
     inkscape:cy="260.72225"
     inkscape:document-units="px"
     inkscape:current-layer="g6787"
     showgrid="false"
     showborder="true"
     inkscape:window-width="1920"
     inkscape:window-height="1030"
     inkscape:window-x="0"
     inkscape:window-y="0"
     inkscape:window-maximized="1" />
  <metadata
     id="metadata7">
    <rdf:RDF>
      <cc:Work
         rdf:about="">
        <dc:format>image/svg+xml</dc:format>
        <dc:type
           rdf:resource="http://purl.org/dc/dcmitype/StillImage" />
        <dc:title />
      </cc:Work>
    </rdf:RDF>
  </metadata>
  <g
     inkscape:label="rooster1"
     inkscape:groupmode="layer"
     id="layer1"
     transform="translate(0,-802.36212)"
     style="display:inline">
    <path
       style="fill:none;stroke:#000000;stroke-width:0.10233498px;stroke-linecap:butt;stroke-linejoin:miter;stroke-opacity:1"
       d="m 82.712501,948.35837 c -1.69271,0.48801 -3.41994,1.49136 -5.22875,3.71222 4.78707,13.6841 11.33214,21.19762 19.58225,25.75447 18.821499,10.39587 42.225769,1.12201 43.305719,-15.8775 0.0795,-1.25212 -1.94806,-0.82363 -2.13544,-2.20181 l -0.37086,-0.15091 -0.45653,0.15281"
       id="path3070"
       inkscape:connector-curvature="0"
       sodipodi:nodetypes="ccssccc" />
    <path
       style="fill:#ff7f2a;fill-opacity:0.98557691;stroke:#000000;stroke-width:0.46347514;stroke-miterlimit:4;stroke-opacity:0.9807692;stroke-dasharray:none"
       d="m 156.60863,1032.5585 c -1.16347,-1.1072 -2.79465,-2.3871 -4.30503,-3.378 -5.71857,-3.7518 -12.5692,-4.883 -20.07556,-3.3147 -0.93533,0.1954 -1.72583,0.3248 -1.75667,0.2874 -0.0921,-0.1113 1.5022,-1.0411 2.81805,-1.6434 1.12615,-0.5154 4.09402,-1.3283 4.65533,-1.275 0.3115,0.03 0.42192,-1.0419 0.2299,-2.2307 -0.0763,-0.4723 -0.12711,-0.9812 -0.11291,-1.1307 0.0142,-0.1495 -0.0294,-0.2991 -0.0969,-0.3324 -0.15525,-0.077 -0.90027,-1.9773 -0.8057,-2.0555 0.0386,-0.032 0.51852,0.527 1.06651,1.242 0.54799,0.7149 1.04522,1.2595 1.10495,1.2101 0.0597,-0.049 -0.0728,-0.3207 -0.29444,-0.6031 -0.22166,-0.2823 -2.35275,-2.9768 -4.73576,-5.9878 -2.383,-3.0109 -4.30955,-5.4936 -4.28122,-5.517 0.0283,-0.023 0.62264,0.1127 1.3207,0.3024 2.50844,0.6819 3.43852,0.8579 5.66931,1.0731 1.24579,0.1203 3.09326,0.1963 4.10543,0.1691 1.01217,-0.027 1.99314,-0.036 2.17992,-0.02 l 0.33962,0.029 -0.3623,0.4783 c -0.52562,0.694 -1.4642,2.2653 -1.74391,2.9196 -0.13275,0.3104 -0.29333,0.6256 -0.3569,0.7003 -0.0636,0.075 -0.15246,0.3967 -0.19752,0.7155 -0.0451,0.3188 -0.13287,0.746 -0.19514,0.9494 -0.0623,0.2034 -0.0843,0.8227 -0.049,1.3762 0.15761,2.4694 1.75062,4.5158 4.91591,6.315 1.83775,1.0447 2.19819,1.1239 6.75247,1.4846 8.14134,0.6447 10.10912,0.8657 11.11551,1.2485 1.50624,0.5729 4.07621,2.1237 3.84121,2.318 -0.0337,0.028 -1.05857,-0.1542 -2.27746,-0.4046 -3.78756,-0.778 -10.34031,-1.3005 -12.12509,-0.9667 -0.20347,0.038 0.074,0.3597 1.12446,1.3034 0.76703,0.6891 1.70185,1.6303 2.07738,2.0916 0.72052,0.8851 1.46405,2.6215 1.33704,3.1225 -0.0664,0.2619 -0.15789,0.2125 -0.88217,-0.4768 l 0,0 z"
       id="path3854"
       inkscape:connector-curvature="0" />
    <path
       style="fill:#ff7f2a;fill-opacity:0.98557691;stroke:#000000;stroke-width:0.46347514;stroke-miterlimit:4;stroke-opacity:0.9807692;stroke-dasharray:none"
       d="m 141.60853,1018.8241 c -0.6031,-1.1462 -0.81259,-2.7789 -0.51187,-3.9893 l 0.15754,-0.6341 0.65437,0.3995 c 0.97259,0.5937 2.0739,0.825 6.86988,1.4426 7.23983,0.9324 9.38311,1.416 11.11639,2.5078 0.77096,0.4857 1.64941,1.4658 1.61725,1.8045 -0.01,0.1055 -0.31216,0.1 -0.91618,-0.017 -6.26301,-1.2142 -13.62999,-1.7459 -17.8781,-1.2904 -0.89782,0.096 -0.94627,0.087 -1.10928,-0.2233 z"
       id="path3856"
       inkscape:connector-curvature="0" />
    <path
       style="fill:#ff7f2a;fill-opacity:0.98557691;stroke:#000000;stroke-width:0.46347514;stroke-miterlimit:4;stroke-opacity:0.9807692;stroke-dasharray:none"
       d="m 146.24247,1015.5031 c -1.00465,-0.1526 -2.26301,-0.4035 -2.79635,-0.5575 -0.90449,-0.2612 -0.94505,-0.29 -0.60292,-0.4273 0.89038,-0.3572 4.57503,-1.1586 6.13325,-1.3339 1.76158,-0.1981 2.60984,-0.1738 3.92743,0.1128 l 0.76506,0.1665 -1.04707,0.4838 c -0.5759,0.2661 -1.70002,0.7486 -2.49806,1.0724 -0.79803,0.3237 -1.51899,0.6438 -1.60214,0.7115 -0.0831,0.068 -0.219,0.1063 -0.30187,0.086 -0.0829,-0.02 -0.97268,-0.1618 -1.97733,-0.3144 l 0,0 z"
       id="path3858"
       inkscape:connector-curvature="0" />
    <path
       style="fill:#ff7f2a;fill-opacity:0.98557691;stroke:#000000;stroke-width:0.46347514;stroke-miterlimit:4;stroke-opacity:0.9807692;stroke-dasharray:none"
       d="m 123.75602,1022.0649 c 0.0138,-0.1454 1.16224,-1.0498 1.98399,-1.5624 0.34341,-0.2142 1.75939,-0.8595 3.14662,-1.4341 2.82987,-1.1721 3.19725,-1.3551 4.0589,-2.0218 0.77631,-0.6006 1.09957,-1.0948 1.39642,-2.1345 l 0.23859,-0.8357 1.08412,1.4385 c 0.59626,0.7912 1.04511,1.4349 0.99744,1.4304 -0.0477,0 0.15224,0.6063 0.44425,1.3575 l 0.5309,1.3657 -0.4786,0.032 c -5.41025,0.3621 -8.95473,0.9638 -12.03428,2.043 -1.39795,0.4899 -1.38403,0.4866 -1.36835,0.3214 z"
       id="path3860"
       inkscape:connector-curvature="0" />
    <path
       style="fill:#ff7f2a;fill-opacity:0.98557691;stroke:#000000;stroke-width:0.29237106;stroke-miterlimit:4;stroke-opacity:0.9807692;stroke-dasharray:none"
       d="m 194.27202,859.13988 c 0.0869,-0.65534 -0.17269,-3.77879 -0.508,-6.11346 -0.22546,-1.56985 -0.18661,-1.98355 0.19444,-2.07045 1.24715,-0.28443 4.81664,-0.17226 6.67166,0.20971 1.97063,0.40573 6.56685,1.45749 6.67194,1.89715 0.0271,0.11413 -2.54256,0.74882 -3.72073,1.21852 -1.17817,0.46968 -3.71919,1.84866 -5.64674,3.06437 -1.92754,1.2157 -3.55415,2.22221 -3.61467,2.23668 -0.0605,0.0147 -0.0823,-0.18458 -0.0479,-0.44252 z"
       id="path3864"
       inkscape:connector-curvature="0"
       sodipodi:nodetypes="csssccscc" />
    <path
       style="fill:#ff0000;fill-opacity:0.98557691;stroke:#000000;stroke-width:0.25727016;stroke-miterlimit:4;stroke-opacity:0.9807692;stroke-dasharray:none"
       d="m 191.99599,870.02001 c -0.9875,-0.54296 -1.80057,-1.00859 -1.80681,-1.03472 -0.006,-0.0263 0.14651,-0.20063 0.33946,-0.38776 1.60754,-1.55898 2.72012,-3.60749 3.23248,-5.95176 l 0.17285,-0.72698 c 2.16158,1.8165 4.58953,1.06209 6.55675,0.26851 0.15873,7.04482 7.82257,10.20598 6.88152,15.75818 -1.07777,6.35901 -4.00026,-1.98149 -3.36076,-1.08564 0.38406,0.53801 0.55298,6.7624 -2.45264,4.10993 -5.2954,-5.45282 -4.26289,-6.27362 -9.56285,-10.94976 z"
       id="path3866"
       inkscape:connector-curvature="0"
       sodipodi:nodetypes="csssccsscc" />
    <path
       style="fill:#ff7f2a;fill-opacity:0.98557691;stroke:#000000;stroke-width:0.2923857;stroke-miterlimit:4;stroke-opacity:0.9807692;stroke-dasharray:none"
       d="m 194.30149,859.61166 c 0.0313,-0.081 2.62172,0.46218 3.45482,0.26304 1.24785,-0.29826 4.31164,-1.48103 6.64064,-2.70922 -3.78985,9.53763 -12.31323,8.3924 -10.09546,2.44618 z"
       id="path3862"
       inkscape:connector-curvature="0"
       sodipodi:nodetypes="cscc" />
    <path
       style="fill:#d38d5f;fill-opacity:1;stroke:#000000;stroke-width:0.06466477;stroke-miterlimit:4;stroke-opacity:1;stroke-dasharray:none"
       d="m 180.82449,862.44041 c -0.17367,-0.14931 -0.58382,-0.47968 -0.91144,-0.73416 -2.8551,-2.21779 -3.60514,-5.1727 -2.16538,-8.5308 0.34584,-0.80666 1.14888,-2.08543 1.78821,-2.84756 1.9357,-2.30756 4.68579,-4.09373 7.26637,-4.71951 1.15202,-0.27959 1.69317,-0.30767 2.47978,-0.12972 2.99675,0.67801 5.14445,2.03942 6.10902,3.87247 0.22487,0.42735 0.22889,0.44719 0.14077,0.69584 -0.12095,0.34139 -0.10799,0.77381 0.069,2.30244 0.40919,3.53417 0.52718,6.36435 0.28767,6.89986 -0.3511,1.54677 -0.57407,3.20286 -1.10794,4.53709 -0.64488,1.58898 -1.53468,2.92202 -2.78456,4.1716 -0.3727,0.37261 -2.72189,1.34257 -2.00452,1.08774 -2.82549,-2.21163 -6.47761,-4.40101 -9.16697,-6.6053 z"
       id="path3774"
       inkscape:connector-curvature="0"
       sodipodi:nodetypes="cssscsccsccccc" />
    <path
       sodipodi:type="arc"
       style="fill:#ffffff;fill-opacity:1;stroke:#000000;stroke-width:2.43448114;stroke-miterlimit:4;stroke-opacity:1;stroke-dasharray:none"
       id="path3080"
       sodipodi:cx="806.10175"
       sodipodi:cy="11.905062"
       sodipodi:rx="28.284271"
       sodipodi:ry="34.345188"
       d="m 834.38602,11.905062 a 28.284271,34.345188 0 1 1 -56.56855,0 28.284271,34.345188 0 1 1 56.56855,0 z"
       transform="matrix(0.18821172,-0.04498805,0.04462596,0.18669687,34.870001,889.48366)" />
    <path
       style="fill:#ff0000;fill-opacity:0.98557691;stroke:#000000;stroke-width:0.46194011;stroke-miterlimit:4;stroke-opacity:0.9807692;stroke-dasharray:none"
       d="m 196.18496,851.07571 c -0.16397,-0.008 -0.28927,-0.0943 -0.48634,-0.33413 -3.30339,-9.37108 -19.31295,-6.84772 -24.71958,-4.3694 -25.6974,13.51659 -1.46565,-29.08257 4.31024,-5.15818 -9.66371,-22.8298 20.15992,-22.09571 12.91479,-0.27866 6.63972,-29.56056 34.0768,-0.93956 8.81442,9.55723 -0.302,0.62346 -0.28357,0.61057 -0.83353,0.58314 z"
       id="path3868"
       inkscape:connector-curvature="0"
       sodipodi:nodetypes="scccccs" />
    <path
       sodipodi:type="arc"
       style="fill:#000000;fill-opacity:0.98557691;stroke:#000000;stroke-width:1;stroke-miterlimit:4;stroke-opacity:0.9807692;stroke-dasharray:none"
       id="path3852"
       sodipodi:cx="799.03064"
       sodipodi:cy="17.965977"
       sodipodi:rx="17.172594"
       sodipodi:ry="20.203051"
       d="m 816.20323,17.965977 a 17.172594,20.203051 0 1 1 -34.34518,0 17.172594,20.203051 0 1 1 34.34518,0 z"
       transform="matrix(0.21786998,-0.05207723,0.05189561,0.21711019,13.601581,893.5376)" />
    <path
       style="fill:#a05a2c;fill-opacity:1;stroke:#000000;stroke-width:0.46533182;stroke-miterlimit:4;stroke-opacity:0.9807692;stroke-dasharray:none"
       d="m 155.22114,1009.0777 c -7.80019,2.4949 -16.72784,2.4283 -23.90269,1.3867 -9.92346,-1.9429 -17.65727,-3.0615 -25.26586,-9.6816 -7.852329,-6.44949 -11.399089,-13.88808 -13.803599,-21.56526 2.12289,1.75955 12.673029,0.25344 14.520149,-0.71555 1.636,-0.90547 4.60757,-2.2412 6.1667,-2.59252 1.41385,-0.31855 5.96141,-0.64167 7.32232,-0.59626 1.09989,0.0367 1.6885,-0.0798 3.66599,0.66599 3.17557,1.19766 4.15971,1.41414 6.5431,1.81343 4.70374,0.78803 9.99588,0.67077 14.85786,-0.52617 2.32112,-0.57139 6.59917,-2.54684 8.77338,-3.87885 3.25884,-1.99649 5.40884,-4.28012 7.20528,-6.97567 2.33421,-3.50247 15.51704,-27.23584 15.35521,-31.01647 -0.0866,-2.01987 0.107,-0.80515 -1.1185,-1.24792 -0.72184,-0.26079 -1.21246,-0.56739 -1.3097,-0.78356 -0.0797,-0.17712 -0.24317,-0.34992 -0.37919,-0.34225 -0.38116,0.0215 -0.61938,0.05 -0.55265,0.19829 0.033,0.0733 0.30483,-0.14684 0.4802,-0.22573 0.23723,-0.10669 0.28266,0.15572 0.47207,0.3985 0.14003,0.17947 0.7042,0.50179 1.25372,0.71627 l 0.99913,0.38996 c 0.18227,4.04052 -11.09063,24.26604 -12.68854,27.26325 -1.09475,3.78497 -5.84393,9.18139 -9.70068,11.47533 -2.04275,1.215 -5.83349,3.08603 -8.1738,3.74546 -9.7014,2.73354 -19.96055,1.22375 -28.60029,-4.20896 -5.66505,-3.5622 -10.96681,-9.47582 -15.36898,-17.14263 -0.38221,-0.66565 -0.68805,-1.21971 -0.67965,-1.23125 0.008,-0.0116 0.21255,-0.33999 0.45366,-0.72989 0.83466,-1.34981 1.95709,-2.45432 3.50304,-3.44714 0.29979,-1.29132 -3.33155,2.70081 -3.76789,3.35842 -0.45893,0.70009 -0.50927,0.87044 -0.33563,1.13585 0.11236,0.17172 0.61644,0.7765 1.0762,1.48984 5.85701,9.08749 11.04344,14.45923 17.65366,18.34148 0.68945,0.40492 1.27422,0.66915 1.24823,0.68084 -0.026,0.0116 -0.58923,0.0186 -1.25163,0.0154 -1.26817,-0.006 -5.37522,0.42658 -7.00249,0.73784 -1.41698,0.27104 -4.13403,1.44094 -6.02792,2.52717 -2.5237,1.70048 -11.703039,2.00821 -13.856769,1.17599 -3.71879,-4.4627 -53.06435,-23.06067 -4.14106,-40.51011 11.746739,-0.43015 9.82541,-2.32019 29.257509,-5.96451 27.84038,-9.80241 79.1343,-89.86381 82.28479,-38.51982 3.59304,17.81559 0.36412,56.58159 -8.31443,75.79636 -10.16193,22.49905 -20.10136,32.78985 -36.85017,38.58955 z"
       id="path3874"
       inkscape:connector-curvature="0"
       sodipodi:nodetypes="cccccsssssssssssssssccsssscsccsssssscccccscc" />
    <path
       style="fill:#ff0000;fill-opacity:1;stroke:#000000;stroke-width:0.42660782px;stroke-linecap:butt;stroke-linejoin:miter;stroke-opacity:1"
       d="m 87.962431,976.73263 c 0.80704,0.96334 4.19968,-2.93767 3.64736,-4.0292 -33.59322,-66.38853 -51.82697,17.7754 -37.61896,78.59117 -0.9184,-70.82903 11.37779,-101.53131 33.9716,-74.56197 z"
       id="path5693-7-6"
       inkscape:connector-curvature="0"
       sodipodi:nodetypes="sscs" />
    <path
       style="fill:#aa4400;fill-opacity:1;stroke:#000000;stroke-width:0.46981993;stroke-miterlimit:4;stroke-opacity:0.9807692;stroke-dasharray:none"
       d="m 188.88259,915.38485 c -3.15574,-1.62357 -4.27514,-12.28959 -6.21436,-15.28038 -2.01949,1.76581 -1.60701,8.57113 -8.99336,15.28545 -0.41436,-8.37645 -3.28239,-12.01844 -2.95146,-17.08907 -1.21079,1.66256 -8.47378,14.18923 -10.61181,14.50302 1.37321,-5.52151 1.88044,-11.68729 1.27861,-14.99276 l -7.79731,13.37114 c -3.13111,-7.53081 5.95601,-19.77693 7.14631,-28.0079 0.98606,-17.70058 -0.87788,-33.99131 14.69958,-38.26503 3.75379,-1.13134 8.27562,-1.62883 10.75799,-1.18359 2.45472,0.44029 5.33482,1.47572 6.6054,2.88766 -7.02548,-4.36378 -20.29552,5.41945 -12.38705,13.63804 1.41307,1.97155 5.00955,5.13662 11.80788,10.39151 9.36466,7.23859 8.993,11.76475 12.16726,16.96036 2.78235,12.99932 -0.88541,20.79234 -2.77107,26.81036 -2.87279,-5.79956 -0.87012,-8.428 -4.38958,-12.77752 -1.75838,5.03195 -6.16847,9.86859 -8.34703,13.74871 z"
       id="path3870"
       inkscape:connector-curvature="0"
       sodipodi:nodetypes="cccccccccsccscccc" />
    <path
       style="fill:#d40000;fill-opacity:1;stroke:#000000;stroke-width:0.47857213px;stroke-linecap:butt;stroke-linejoin:miter;stroke-opacity:1"
       d="m 89.739881,967.85497 c 0.9909,0.81783 1.70515,-5.77583 1.27959,-6.83628 -27.54073,-68.62937 -68.57711,23.13097 -55.10158,79.73701 4.96733,-67.89805 21.90404,-99.2442 53.82199,-72.90073 z"
       id="path5693-7-8"
       inkscape:connector-curvature="0"
       sodipodi:nodetypes="sscs" />
    <path
       style="fill:#aa4400;fill-opacity:1;stroke:#000000;stroke-width:0.35573176px;stroke-linecap:butt;stroke-linejoin:miter;stroke-opacity:1"
       d="m 89.406601,978.54154 c 0.75037,0.71827 2.21594,-1.31697 1.80089,-2.23174 -26.86123,-59.20132 -43.36291,14.86347 -27.20698,63.5149 -5.65909,-57.94897 1.23584,-84.41947 25.40609,-61.28316 z"
       id="path5693-7-4"
       inkscape:connector-curvature="0"
       sodipodi:nodetypes="sscs" />
    <path
       style="fill:#008000;fill-opacity:1;stroke:#000000;stroke-width:0.43447202px;stroke-linecap:butt;stroke-linejoin:miter;stroke-opacity:1"
       d="m 88.119111,969.87735 c 0.80845,0.93008 3.08476,-1.2113 2.74252,-2.32147 -22.14865,-71.84686 -58.1523,11.1463 -47.47628,69.37572 4.5568,-67.48888 18.69248,-97.01318 44.73376,-67.05425 z"
       id="path5693-7-2"
       inkscape:connector-curvature="0"
       sodipodi:nodetypes="sscs" />
    <path
       style="fill:#008000;fill-opacity:1;stroke:#000000;stroke-width:0.50453943px;stroke-linecap:butt;stroke-linejoin:miter;stroke-opacity:1"
       d="m 85.916991,959.69131 c 0.87382,1.13265 4.39415,0.28549 4.1321,-1.0354 -15.12314,-76.22778 -73.25935,-3.35806 -69.31163,68.12299 20.68668,-63.11416 42.76382,-96.14305 65.17953,-67.08759 z"
       id="path5693-0"
       inkscape:connector-curvature="0"
       sodipodi:nodetypes="sscs" />
    <path
       style="fill:#ff0000;fill-opacity:1;stroke:#000000;stroke-width:0.50453943px;stroke-linecap:butt;stroke-linejoin:miter;stroke-opacity:1"
       d="m 88.802611,956.2131 c 0.7318,1.22918 2.74811,-0.4857 2.58755,-1.82273 -10.39116,-86.52874 -66.32195,1.86467 -66.22857,70.47293 19.27429,-75.97976 40.06846,-108.24349 63.64102,-68.6502 z"
       id="path5693"
       inkscape:connector-curvature="0"
       sodipodi:nodetypes="sscs" />
    <path
       style="fill:#803300;fill-opacity:1;stroke:#000000;stroke-width:0.55590689px;stroke-linecap:butt;stroke-linejoin:miter;stroke-opacity:1"
       d="m 89.056251,954.20511 c 0.80604,1.35476 3.9067,1.25241 3.71636,-0.21955 -12.3112,-95.20338 -77.9965,-5.643 -75.47245,69.51044 21.23006,-83.74303 45.79238,-112.92946 71.75609,-69.29089 z"
       id="path5693-7"
       inkscape:connector-curvature="0"
       sodipodi:nodetypes="sscs" />
  </g>
  <g
     style="display:inline"
     transform="translate(0,-802.36212)"
     id="g6787"
     inkscape:groupmode="layer"
     inkscape:label="rooster2" />
  <g
     inkscape:label="rooster3"
     inkscape:groupmode="layer"
     id="g6831"
     transform="translate(0,-802.36212)"
     style="display:inline" />
  <g
     style="display:inline"
     transform="translate(0,-802.36212)"
     id="g6875"
     inkscape:groupmode="layer"
     inkscape:label="rooster4" />
  <g
     style="display:inline"
     transform="translate(0,-802.36212)"
     id="g6919"
     inkscape:groupmode="layer"
     inkscape:label="rooster5" />
</svg>
