<?xml version="1.0" encoding="UTF-8" standalone="no"?>
<!-- Created with Inkscape (http://www.inkscape.org/) -->

<svg
   xmlns:dc="http://purl.org/dc/elements/1.1/"
   xmlns:cc="http://creativecommons.org/ns#"
   xmlns:rdf="http://www.w3.org/1999/02/22-rdf-syntax-ns#"
   xmlns:svg="http://www.w3.org/2000/svg"
   xmlns="http://www.w3.org/2000/svg"
   xmlns:sodipodi="http://sodipodi.sourceforge.net/DTD/sodipodi-0.dtd"
   xmlns:inkscape="http://www.inkscape.org/namespaces/inkscape"
   width="1250"
   height="250"
   id="svg2"
   version="1.1"
   inkscape:version="0.48.4 r9939"
   sodipodi:docname="rooster_sprite.svg">
  <defs
     id="defs4" />
  <sodipodi:namedview
     id="base"
     pagecolor="#ffffff"
     bordercolor="#666666"
     borderopacity="1.0"
     inkscape:pageopacity="0.0"
     inkscape:pageshadow="2"
     inkscape:zoom="1.979899"
     inkscape:cx="208.4972"
     inkscape:cy="123.59065"
     inkscape:document-units="px"
     inkscape:current-layer="g6787"
     showgrid="false"
     showborder="true"
     inkscape:window-width="1920"
     inkscape:window-height="1030"
     inkscape:window-x="0"
     inkscape:window-y="0"
     inkscape:window-maximized="1" />
  <metadata
     id="metadata7">
    <rdf:RDF>
      <cc:Work
         rdf:about="">
        <dc:format>image/svg+xml</dc:format>
        <dc:type
           rdf:resource="http://purl.org/dc/dcmitype/StillImage" />
        <dc:title />
      </cc:Work>
    </rdf:RDF>
  </metadata>
  <g
     inkscape:label="rooster1"
     inkscape:groupmode="layer"
     id="layer1"
     transform="translate(0,-802.36212)"
     style="display:inline">
    <path
       style="fill:none;stroke:#000000;stroke-width:0.10233498px;stroke-linecap:butt;stroke-linejoin:miter;stroke-opacity:1"
       d="m 70.712501,948.35837 c -1.69271,0.48801 -3.41994,1.49136 -5.22875,3.71222 4.78707,13.6841 11.33214,21.19762 19.58225,25.75447 18.821499,10.39587 42.225769,1.12201 43.305719,-15.8775 0.0795,-1.25212 -1.94806,-0.82363 -2.13544,-2.20181 l -0.37086,-0.15091 -0.45653,0.15281"
       id="path3070"
       inkscape:connector-curvature="0"
       sodipodi:nodetypes="ccssccc" />
    <path
       style="fill:#ff7f2a;fill-opacity:0.98557691;stroke:#000000;stroke-width:0.46347514;stroke-miterlimit:4;stroke-opacity:0.9807692;stroke-dasharray:none"
       d="m 144.60863,1032.5585 c -1.16347,-1.1072 -2.79465,-2.3871 -4.30503,-3.378 -5.71857,-3.7518 -12.5692,-4.883 -20.07556,-3.3147 -0.93533,0.1954 -1.72583,0.3248 -1.75667,0.2874 -0.0921,-0.1113 1.5022,-1.0411 2.81805,-1.6434 1.12615,-0.5154 4.09402,-1.3283 4.65533,-1.275 0.3115,0.03 0.42192,-1.0419 0.2299,-2.2307 -0.0763,-0.4723 -0.12711,-0.9812 -0.11291,-1.1307 0.0142,-0.1495 -0.0294,-0.2991 -0.0969,-0.3324 -0.15525,-0.077 -0.90027,-1.9773 -0.8057,-2.0555 0.0386,-0.032 0.51852,0.527 1.06651,1.242 0.54799,0.7149 1.04522,1.2595 1.10495,1.2101 0.0597,-0.049 -0.0728,-0.3207 -0.29444,-0.6031 -0.22166,-0.2823 -2.35275,-2.9768 -4.73576,-5.9878 -2.383,-3.0109 -4.30955,-5.4936 -4.28122,-5.517 0.0283,-0.023 0.62264,0.1127 1.3207,0.3024 2.50844,0.6819 3.43852,0.8579 5.66931,1.0731 1.24579,0.1203 3.09326,0.1963 4.10543,0.1691 1.01217,-0.027 1.99314,-0.036 2.17992,-0.02 l 0.33962,0.029 -0.3623,0.4783 c -0.52562,0.694 -1.4642,2.2653 -1.74391,2.9196 -0.13275,0.3104 -0.29333,0.6256 -0.3569,0.7003 -0.0636,0.075 -0.15246,0.3967 -0.19752,0.7155 -0.0451,0.3188 -0.13287,0.746 -0.19514,0.9494 -0.0623,0.2034 -0.0843,0.8227 -0.049,1.3762 0.15761,2.4694 1.75062,4.5158 4.91591,6.315 1.83775,1.0447 2.19819,1.1239 6.75247,1.4846 8.14134,0.6447 10.10912,0.8657 11.11551,1.2485 1.50624,0.5729 4.07621,2.1237 3.84121,2.318 -0.0337,0.028 -1.05857,-0.1542 -2.27746,-0.4046 -3.78756,-0.778 -10.34031,-1.3005 -12.12509,-0.9667 -0.20347,0.038 0.074,0.3597 1.12446,1.3034 0.76703,0.6891 1.70185,1.6303 2.07738,2.0916 0.72052,0.8851 1.46405,2.6215 1.33704,3.1225 -0.0664,0.2619 -0.15789,0.2125 -0.88217,-0.4768 l 0,0 z"
       id="path3854"
       inkscape:connector-curvature="0" />
    <path
       style="fill:#ff7f2a;fill-opacity:0.98557691;stroke:#000000;stroke-width:0.46347514;stroke-miterlimit:4;stroke-opacity:0.9807692;stroke-dasharray:none"
       d="m 129.60853,1018.8241 c -0.6031,-1.1462 -0.81259,-2.7789 -0.51187,-3.9893 l 0.15754,-0.6341 0.65437,0.3995 c 0.97259,0.5937 2.0739,0.825 6.86988,1.4426 7.23983,0.9324 9.38311,1.416 11.11639,2.5078 0.77096,0.4857 1.64941,1.4658 1.61725,1.8045 -0.01,0.1055 -0.31216,0.1 -0.91618,-0.017 -6.26301,-1.2142 -13.62999,-1.7459 -17.8781,-1.2904 -0.89782,0.096 -0.94627,0.087 -1.10928,-0.2233 z"
       id="path3856"
       inkscape:connector-curvature="0" />
    <path
       style="fill:#ff7f2a;fill-opacity:0.98557691;stroke:#000000;stroke-width:0.46347514;stroke-miterlimit:4;stroke-opacity:0.9807692;stroke-dasharray:none"
       d="m 134.24247,1015.5031 c -1.00465,-0.1526 -2.26301,-0.4035 -2.79635,-0.5575 -0.90449,-0.2612 -0.94505,-0.29 -0.60292,-0.4273 0.89038,-0.3572 4.57503,-1.1586 6.13325,-1.3339 1.76158,-0.1981 2.60984,-0.1738 3.92743,0.1128 l 0.76506,0.1665 -1.04707,0.4838 c -0.5759,0.2661 -1.70002,0.7486 -2.49806,1.0724 -0.79803,0.3237 -1.51899,0.6438 -1.60214,0.7115 -0.0831,0.068 -0.219,0.1063 -0.30187,0.086 -0.0829,-0.02 -0.97268,-0.1618 -1.97733,-0.3144 l 0,0 z"
       id="path3858"
       inkscape:connector-curvature="0" />
    <path
       style="fill:#ff7f2a;fill-opacity:0.98557691;stroke:#000000;stroke-width:0.46347514;stroke-miterlimit:4;stroke-opacity:0.9807692;stroke-dasharray:none"
       d="m 111.75602,1022.0649 c 0.0138,-0.1454 1.16224,-1.0498 1.98399,-1.5624 0.34341,-0.2142 1.75939,-0.8595 3.14662,-1.4341 2.82987,-1.1721 3.19725,-1.3551 4.0589,-2.0218 0.77631,-0.6006 1.09957,-1.0948 1.39642,-2.1345 l 0.23859,-0.8357 1.08412,1.4385 c 0.59626,0.7912 1.04511,1.4349 0.99744,1.4304 -0.0477,0 0.15224,0.6063 0.44425,1.3575 l 0.5309,1.3657 -0.4786,0.032 c -5.41025,0.3621 -8.95473,0.9638 -12.03428,2.043 -1.39795,0.4899 -1.38403,0.4866 -1.36835,0.3214 z"
       id="path3860"
       inkscape:connector-curvature="0" />
    <path
       style="fill:#ff7f2a;fill-opacity:0.98557691;stroke:#000000;stroke-width:0.29237106;stroke-miterlimit:4;stroke-opacity:0.9807692;stroke-dasharray:none"
       d="m 182.27202,859.13988 c 0.0869,-0.65534 -0.17269,-3.77879 -0.508,-6.11346 -0.22546,-1.56985 -0.18661,-1.98355 0.19444,-2.07045 1.24715,-0.28443 4.81664,-0.17226 6.67166,0.20971 1.97063,0.40573 6.56685,1.45749 6.67194,1.89715 0.0271,0.11413 -2.54256,0.74882 -3.72073,1.21852 -1.17817,0.46968 -3.71919,1.84866 -5.64674,3.06437 -1.92754,1.2157 -3.55415,2.22221 -3.61467,2.23668 -0.0605,0.0147 -0.0823,-0.18458 -0.0479,-0.44252 z"
       id="path3864"
       inkscape:connector-curvature="0"
       sodipodi:nodetypes="csssccscc" />
    <path
       style="fill:#ff0000;fill-opacity:0.98557691;stroke:#000000;stroke-width:0.25727016;stroke-miterlimit:4;stroke-opacity:0.9807692;stroke-dasharray:none"
       d="m 179.99599,870.02001 c -0.9875,-0.54296 -1.80057,-1.00859 -1.80681,-1.03472 -0.006,-0.0263 0.14651,-0.20063 0.33946,-0.38776 1.60754,-1.55898 2.72012,-3.60749 3.23248,-5.95176 l 0.17285,-0.72698 c 2.16158,1.8165 4.58953,1.06209 6.55675,0.26851 0.15873,7.04482 7.82257,10.20598 6.88152,15.75818 -1.07777,6.35901 -4.00026,-1.98149 -3.36076,-1.08564 0.38406,0.53801 0.55298,6.7624 -2.45264,4.10993 -5.2954,-5.45282 -4.26289,-6.27362 -9.56285,-10.94976 z"
       id="path3866"
       inkscape:connector-curvature="0"
       sodipodi:nodetypes="csssccsscc" />
    <path
       style="fill:#ff7f2a;fill-opacity:0.98557691;stroke:#000000;stroke-width:0.2923857;stroke-miterlimit:4;stroke-opacity:0.9807692;stroke-dasharray:none"
       d="m 182.30149,859.61166 c 0.0313,-0.081 2.62172,0.46218 3.45482,0.26304 1.24785,-0.29826 4.31164,-1.48103 6.64064,-2.70922 -3.78985,9.53763 -12.31323,8.3924 -10.09546,2.44618 z"
       id="path3862"
       inkscape:connector-curvature="0"
       sodipodi:nodetypes="cscc" />
    <path
       style="fill:#d38d5f;fill-opacity:1;stroke:#000000;stroke-width:0.06466477;stroke-miterlimit:4;stroke-opacity:1;stroke-dasharray:none"
       d="m 168.82449,862.44041 c -0.17367,-0.14931 -0.58382,-0.47968 -0.91144,-0.73416 -2.8551,-2.21779 -3.60514,-5.1727 -2.16538,-8.5308 0.34584,-0.80666 1.14888,-2.08543 1.78821,-2.84756 1.9357,-2.30756 4.68579,-4.09373 7.26637,-4.71951 1.15202,-0.27959 1.69317,-0.30767 2.47978,-0.12972 2.99675,0.67801 5.14445,2.03942 6.10902,3.87247 0.22487,0.42735 0.22889,0.44719 0.14077,0.69584 -0.12095,0.34139 -0.10799,0.77381 0.069,2.30244 0.40919,3.53417 0.52718,6.36435 0.28767,6.89986 -0.3511,1.54677 -0.57407,3.20286 -1.10794,4.53709 -0.64488,1.58898 -1.53468,2.92202 -2.78456,4.1716 -0.3727,0.37261 -2.72189,1.34257 -2.00452,1.08774 -2.82549,-2.21163 -6.47761,-4.40101 -9.16697,-6.6053 z"
       id="path3774"
       inkscape:connector-curvature="0"
       sodipodi:nodetypes="cssscsccsccccc" />
    <path
       sodipodi:type="arc"
       style="fill:#ffffff;fill-opacity:1;stroke:#000000;stroke-width:2.43448114;stroke-miterlimit:4;stroke-opacity:1;stroke-dasharray:none"
       id="path3080"
       sodipodi:cx="806.10175"
       sodipodi:cy="11.905062"
       sodipodi:rx="28.284271"
       sodipodi:ry="34.345188"
       d="m 834.38602,11.905062 a 28.284271,34.345188 0 1 1 -56.56855,0 28.284271,34.345188 0 1 1 56.56855,0 z"
       transform="matrix(0.18821172,-0.04498805,0.04462596,0.18669687,22.870001,889.48366)" />
    <path
       style="fill:#ff0000;fill-opacity:0.98557691;stroke:#000000;stroke-width:0.46194011;stroke-miterlimit:4;stroke-opacity:0.9807692;stroke-dasharray:none"
       d="m 184.18496,851.07571 c -0.16397,-0.008 -0.28927,-0.0943 -0.48634,-0.33413 -3.30339,-9.37108 -19.31295,-6.84772 -24.71958,-4.3694 -25.6974,13.51659 -1.46565,-29.08257 4.31024,-5.15818 -9.66371,-22.8298 20.15992,-22.09571 12.91479,-0.27866 6.63972,-29.56056 34.0768,-0.93956 8.81442,9.55723 -0.302,0.62346 -0.28357,0.61057 -0.83353,0.58314 z"
       id="path3868"
       inkscape:connector-curvature="0"
       sodipodi:nodetypes="scccccs" />
    <path
       sodipodi:type="arc"
       style="fill:#000000;fill-opacity:0.98557691;stroke:#000000;stroke-width:1;stroke-miterlimit:4;stroke-opacity:0.9807692;stroke-dasharray:none"
       id="path3852"
       sodipodi:cx="799.03064"
       sodipodi:cy="17.965977"
       sodipodi:rx="17.172594"
       sodipodi:ry="20.203051"
       d="m 816.20323,17.965977 a 17.172594,20.203051 0 1 1 -34.34518,0 17.172594,20.203051 0 1 1 34.34518,0 z"
       transform="matrix(0.21786998,-0.05207723,0.05189561,0.21711019,1.601581,893.5376)" />
    <path
       style="fill:#a05a2c;fill-opacity:1;stroke:#000000;stroke-width:0.46533182;stroke-miterlimit:4;stroke-opacity:0.9807692;stroke-dasharray:none"
       d="m 143.22114,1009.0777 c -7.80019,2.4949 -16.72784,2.4283 -23.90269,1.3867 -9.92346,-1.9429 -17.65727,-3.0615 -25.26586,-9.6816 -7.852329,-6.44949 -11.399089,-13.88808 -13.803599,-21.56526 2.12289,1.75955 12.673029,0.25344 14.520149,-0.71555 1.636,-0.90547 4.60757,-2.2412 6.1667,-2.59252 1.41385,-0.31855 5.96141,-0.64167 7.32232,-0.59626 1.09989,0.0367 1.6885,-0.0798 3.66599,0.66599 3.17557,1.19766 4.15971,1.41414 6.5431,1.81343 4.70374,0.78803 9.99588,0.67077 14.85786,-0.52617 2.32112,-0.57139 6.59917,-2.54684 8.77338,-3.87885 3.25884,-1.99649 5.40884,-4.28012 7.20528,-6.97567 2.33421,-3.50247 15.51704,-27.23584 15.35521,-31.01647 -0.0866,-2.01987 0.107,-0.80515 -1.1185,-1.24792 -0.72184,-0.26079 -1.21246,-0.56739 -1.3097,-0.78356 -0.0797,-0.17712 -0.24317,-0.34992 -0.37919,-0.34225 -0.38116,0.0215 -0.61938,0.05 -0.55265,0.19829 0.033,0.0733 0.30483,-0.14684 0.4802,-0.22573 0.23723,-0.10669 0.28266,0.15572 0.47207,0.3985 0.14003,0.17947 0.7042,0.50179 1.25372,0.71627 l 0.99913,0.38996 c 0.18227,4.04052 -11.09063,24.26604 -12.68854,27.26325 -1.09475,3.78497 -5.84393,9.18139 -9.70068,11.47533 -2.04275,1.215 -5.83349,3.08603 -8.1738,3.74546 -9.7014,2.73354 -19.96055,1.22375 -28.60029,-4.20896 -5.66505,-3.5622 -10.96681,-9.47582 -15.36898,-17.14263 -0.38221,-0.66565 -0.68805,-1.21971 -0.67965,-1.23125 0.008,-0.0116 0.21255,-0.33999 0.45366,-0.72989 0.83466,-1.34981 1.95709,-2.45432 3.50304,-3.44714 0.29979,-1.29132 -3.33155,2.70081 -3.76789,3.35842 -0.45893,0.70009 -0.50927,0.87044 -0.33563,1.13585 0.11236,0.17172 0.61644,0.7765 1.0762,1.48984 5.85701,9.08749 11.04344,14.45923 17.65366,18.34148 0.68945,0.40492 1.27422,0.66915 1.24823,0.68084 -0.026,0.0116 -0.58923,0.0186 -1.25163,0.0154 -1.26817,-0.006 -5.37522,0.42658 -7.00249,0.73784 -1.41698,0.27104 -4.13403,1.44094 -6.02792,2.52717 -2.5237,1.70048 -11.703039,2.00821 -13.856769,1.17599 -3.71879,-4.4627 -53.06435,-23.06067 -4.14106,-40.51011 11.746739,-0.43015 9.82541,-2.32019 29.257509,-5.96451 27.84038,-9.80241 79.1343,-89.86381 82.28479,-38.51982 3.59304,17.81559 0.36412,56.58159 -8.31443,75.79636 -10.16193,22.49905 -20.10136,32.78985 -36.85017,38.58955 z"
       id="path3874"
       inkscape:connector-curvature="0"
       sodipodi:nodetypes="cccccsssssssssssssssccsssscsccsssssscccccscc" />
    <path
       style="fill:#ff0000;fill-opacity:1;stroke:#000000;stroke-width:0.42660782px;stroke-linecap:butt;stroke-linejoin:miter;stroke-opacity:1"
       d="m 75.962431,976.73263 c 0.80704,0.96334 4.19968,-2.93767 3.64736,-4.0292 -33.59322,-66.38853 -51.82697,17.7754 -37.61896,78.59117 -0.9184,-70.82903 11.37779,-101.53131 33.9716,-74.56197 z"
       id="path5693-7-6"
       inkscape:connector-curvature="0"
       sodipodi:nodetypes="sscs" />
    <path
       style="fill:#aa4400;fill-opacity:1;stroke:#000000;stroke-width:0.46981993;stroke-miterlimit:4;stroke-opacity:0.9807692;stroke-dasharray:none"
       d="m 176.88259,915.38485 c -3.15574,-1.62357 -4.27514,-12.28959 -6.21436,-15.28038 -2.01949,1.76581 -1.60701,8.57113 -8.99336,15.28545 -0.41436,-8.37645 -3.28239,-12.01844 -2.95146,-17.08907 -1.21079,1.66256 -8.47378,14.18923 -10.61181,14.50302 1.37321,-5.52151 1.88044,-11.68729 1.27861,-14.99276 l -7.79731,13.37114 c -3.13111,-7.53081 5.95601,-19.77693 7.14631,-28.0079 0.98606,-17.70058 -0.87788,-33.99131 14.69958,-38.26503 3.75379,-1.13134 8.27562,-1.62883 10.75799,-1.18359 2.45472,0.44029 5.33482,1.47572 6.6054,2.88766 -7.02548,-4.36378 -20.29552,5.41945 -12.38705,13.63804 1.41307,1.97155 5.00955,5.13662 11.80788,10.39151 9.36466,7.23859 8.993,11.76475 12.16726,16.96036 2.78235,12.99932 -0.88541,20.79234 -2.77107,26.81036 -2.87279,-5.79956 -0.87012,-8.428 -4.38958,-12.77752 -1.75838,5.03195 -6.16847,9.86859 -8.34703,13.74871 z"
       id="path3870"
       inkscape:connector-curvature="0"
       sodipodi:nodetypes="cccccccccsccscccc" />
    <path
       style="fill:#d40000;fill-opacity:1;stroke:#000000;stroke-width:0.47857213px;stroke-linecap:butt;stroke-linejoin:miter;stroke-opacity:1"
       d="m 77.739881,967.85497 c 0.9909,0.81783 1.70515,-5.77583 1.27959,-6.83628 -27.54073,-68.62937 -68.57711,23.13097 -55.10158,79.73701 4.96733,-67.89805 21.90404,-99.2442 53.82199,-72.90073 z"
       id="path5693-7-8"
       inkscape:connector-curvature="0"
       sodipodi:nodetypes="sscs" />
    <path
       style="fill:#aa4400;fill-opacity:1;stroke:#000000;stroke-width:0.35573176px;stroke-linecap:butt;stroke-linejoin:miter;stroke-opacity:1"
       d="m 77.406601,978.54154 c 0.75037,0.71827 2.21594,-1.31697 1.80089,-2.23174 -26.86123,-59.20132 -43.36291,14.86347 -27.20698,63.5149 -5.65909,-57.94897 1.23584,-84.41947 25.40609,-61.28316 z"
       id="path5693-7-4"
       inkscape:connector-curvature="0"
       sodipodi:nodetypes="sscs" />
    <path
       style="fill:#008000;fill-opacity:1;stroke:#000000;stroke-width:0.43447202px;stroke-linecap:butt;stroke-linejoin:miter;stroke-opacity:1"
       d="m 76.119111,969.87735 c 0.80845,0.93008 3.08476,-1.2113 2.74252,-2.32147 -22.14865,-71.84686 -58.1523,11.1463 -47.47628,69.37572 4.5568,-67.48888 18.69248,-97.01318 44.73376,-67.05425 z"
       id="path5693-7-2"
       inkscape:connector-curvature="0"
       sodipodi:nodetypes="sscs" />
    <path
       style="fill:#008000;fill-opacity:1;stroke:#000000;stroke-width:0.50453943px;stroke-linecap:butt;stroke-linejoin:miter;stroke-opacity:1"
       d="m 73.916991,959.69131 c 0.87382,1.13265 4.39415,0.28549 4.1321,-1.0354 -15.12314,-76.22778 -73.25935,-3.35806 -69.31163,68.12299 20.68668,-63.11416 42.76382,-96.14305 65.17953,-67.08759 z"
       id="path5693-0"
       inkscape:connector-curvature="0"
       sodipodi:nodetypes="sscs" />
    <path
       style="fill:#ff0000;fill-opacity:1;stroke:#000000;stroke-width:0.50453943px;stroke-linecap:butt;stroke-linejoin:miter;stroke-opacity:1"
       d="m 76.802611,956.2131 c 0.7318,1.22918 2.74811,-0.4857 2.58755,-1.82273 -10.39116,-86.52874 -66.32195,1.86467 -66.22857,70.47293 19.27429,-75.97976 40.06846,-108.24349 63.64102,-68.6502 z"
       id="path5693"
       inkscape:connector-curvature="0"
       sodipodi:nodetypes="sscs" />
    <path
       style="fill:#803300;fill-opacity:1;stroke:#000000;stroke-width:0.55590689px;stroke-linecap:butt;stroke-linejoin:miter;stroke-opacity:1"
       d="m 77.056251,954.20511 c 0.80604,1.35476 3.9067,1.25241 3.71636,-0.21955 -12.3112,-95.20338 -77.9965,-5.643 -75.47245,69.51044 21.23006,-83.74303 45.79238,-112.92946 71.75609,-69.29089 z"
       id="path5693-7"
       inkscape:connector-curvature="0"
       sodipodi:nodetypes="sscs" />
  </g>
  <g
     style="display:inline"
     transform="translate(0,-802.36212)"
     id="g6787"
     inkscape:groupmode="layer"
     inkscape:label="rooster2">
    <path
       sodipodi:nodetypes="ccssccc"
       inkscape:connector-curvature="0"
       id="path6789"
       d="m 319.95936,947.1344 c -1.69271,0.48801 -3.41994,1.49136 -5.22875,3.71222 4.78707,13.6841 11.33214,21.19762 19.58225,25.75447 18.8215,10.39587 42.22577,1.12202 43.30572,-15.8775 0.0795,-1.25212 -1.94806,-0.82363 -2.13544,-2.20181 l -0.37086,-0.15091 -0.45653,0.15282"
       style="fill:none;stroke:#000000;stroke-width:0.10233498px;stroke-linecap:butt;stroke-linejoin:miter;stroke-opacity:1" />
    <path
       inkscape:connector-curvature="0"
       id="path6791"
       d="m 392.54153,1032.8705 c -1.07592,-1.1924 -2.60507,-2.5927 -4.03573,-3.6956 -5.41676,-4.1757 -12.16156,-5.8244 -19.76543,-4.8314 -0.94748,0.1237 -1.74552,0.1926 -1.77344,0.153 -0.0833,-0.118 1.57701,-0.9239 2.93484,-1.4244 1.16209,-0.4283 4.18318,-1.0132 4.7388,-0.9174 0.30835,0.053 0.49992,-1.0067 0.39884,-2.2067 -0.0402,-0.4768 -0.0521,-0.988 -0.0266,-1.136 0.0255,-0.148 -0.007,-0.3005 -0.0714,-0.3389 -0.14897,-0.088 -0.74732,-2.04 -0.64709,-2.1108 0.0409,-0.029 0.47695,0.5649 0.96899,1.3195 0.49205,0.7545 0.94644,1.3354 1.00974,1.2907 0.0633,-0.045 -0.0481,-0.3254 -0.24773,-0.6238 -0.19955,-0.2983 -2.11961,-3.1471 -4.26679,-6.3305 -2.14717,-3.1834 -3.87938,-5.8054 -3.84936,-5.8266 0.03,-0.021 0.61228,0.1597 1.29389,0.402 2.44934,0.8706 3.36334,1.1168 5.57132,1.501 1.23303,0.2147 3.06937,0.4309 4.08068,0.4808 1.0113,0.05 1.99011,0.1156 2.17513,0.1458 l 0.33642,0.055 -0.39762,0.4494 c -0.57686,0.652 -1.6322,2.1474 -1.96084,2.7785 -0.15597,0.2995 -0.34006,0.6015 -0.40913,0.6712 -0.0691,0.07 -0.18217,0.384 -0.25134,0.6984 -0.0692,0.3144 -0.1892,0.7338 -0.26676,0.9318 -0.0776,0.198 -0.14664,0.8139 -0.15351,1.3685 -0.0306,2.4742 1.40221,4.6358 4.42154,6.6705 1.753,1.1814 2.10637,1.2878 6.62005,1.9937 8.06875,1.2618 10.01403,1.6318 10.9884,2.09 1.45832,0.6858 3.90295,2.4275 3.65386,2.6033 -0.0358,0.025 -1.04378,-0.2342 -2.24011,-0.5766 -3.71743,-1.0637 -10.21149,-2.0828 -12.01649,-1.8857 -0.20577,0.023 0.0465,0.3643 1.02211,1.3851 0.71241,0.7454 1.57296,1.755 1.91234,2.2435 0.65113,0.9372 1.26049,2.7252 1.09576,3.215 -0.0861,0.2562 -0.1736,0.1999 -0.84337,-0.5424 l 0,0 z"
       style="fill:#ff7f2a;fill-opacity:0.98557691;stroke:#000000;stroke-width:0.46347514;stroke-miterlimit:4;stroke-opacity:0.9807692;stroke-dasharray:none" />
    <path
       inkscape:connector-curvature="0"
       id="path6793"
       d="m 378.6291,1018.0354 c -0.5142,-1.1888 -0.59896,-2.8327 -0.20707,-4.0167 l 0.20529,-0.6203 0.62211,0.4481 c 0.92463,0.6659 2.00517,0.9802 6.74031,1.9608 7.14797,1.4801 9.24829,2.1252 10.89353,3.3457 0.73181,0.5429 1.53318,1.587 1.47537,1.9222 -0.018,0.1045 -0.31884,0.076 -0.9122,-0.087 -6.15258,-1.6869 -13.4578,-2.7772 -17.72825,-2.646 -0.90254,0.028 -0.95011,0.014 -1.08909,-0.307 z"
       style="fill:#ff7f2a;fill-opacity:0.98557691;stroke:#000000;stroke-width:0.46347514;stroke-miterlimit:4;stroke-opacity:0.9807692;stroke-dasharray:none" />
    <path
       inkscape:connector-curvature="0"
       id="path6795"
       d="m 383.50212,1015.0763 c -0.99013,-0.2286 -2.22577,-0.5744 -2.74586,-0.7685 -0.882,-0.3293 -0.92027,-0.361 -0.56869,-0.4719 0.91496,-0.2885 4.64988,-0.8074 6.21692,-0.8637 1.77155,-0.064 2.61549,0.025 3.90748,0.4111 l 0.7502,0.2241 -1.08084,0.4028 c -0.59445,0.2215 -1.75202,0.6173 -2.57235,0.8794 -0.82034,0.2621 -1.56355,0.5265 -1.65161,0.5876 -0.0881,0.061 -0.22644,0.089 -0.30754,0.063 -0.0811,-0.026 -0.95756,-0.2352 -1.94771,-0.4638 l 0,0 z"
       style="fill:#ff7f2a;fill-opacity:0.98557691;stroke:#000000;stroke-width:0.46347514;stroke-miterlimit:4;stroke-opacity:0.9807692;stroke-dasharray:none" />
    <path
       inkscape:connector-curvature="0"
       id="path6797"
       d="m 360.58186,1019.9094 c 0.0248,-0.1439 1.2387,-0.9583 2.09704,-1.407 0.3587,-0.1874 1.81965,-0.7233 3.24655,-1.1907 2.9108,-0.9536 3.29103,-1.1081 4.20088,-1.7074 0.81972,-0.5398 1.17961,-1.008 1.55466,-2.0221 l 0.30145,-0.8152 0.97159,1.5168 c 0.53438,0.8343 0.933,1.5102 0.88581,1.5021 -0.0472,-0.01 0.1057,0.6162 0.33974,1.3873 l 0.42553,1.4022 -0.47964,0 c -5.42212,-0.05 -9.00209,0.2801 -12.15478,1.122 -1.43115,0.3822 -1.41702,0.38 -1.38883,0.2165 z"
       style="fill:#ff7f2a;fill-opacity:0.98557691;stroke:#000000;stroke-width:0.46347514;stroke-miterlimit:4;stroke-opacity:0.9807692;stroke-dasharray:none" />
    <path
       sodipodi:nodetypes="csssccscc"
       inkscape:connector-curvature="0"
       id="path6799"
       d="m 435.63864,856.32866 c -0.0801,-0.77636 -1.11244,-4.2769 -2.02064,-6.85152 -0.61068,-1.73119 -0.67666,-2.21655 -0.33021,-2.42911 1.13391,-0.6957 4.61107,-1.62597 6.49909,-1.73871 2.00569,-0.11979 6.71006,-0.27843 6.92162,0.19398 0.0547,0.12269 -2.26942,1.61183 -3.29032,2.49927 -1.0209,0.88742 -3.13115,3.22058 -4.68947,5.18474 -1.55832,1.96418 -2.87819,3.59948 -2.93306,3.634 -0.0547,0.0347 -0.1257,-0.18699 -0.15701,-0.49265 z"
       style="fill:#ff7f2a;fill-opacity:0.98557691;stroke:#000000;stroke-width:0.31772563;stroke-miterlimit:4;stroke-opacity:0.9807692;stroke-dasharray:none" />
    <path
       sodipodi:nodetypes="csssccsscc"
       inkscape:connector-curvature="0"
       id="path6801"
       d="m 432.16671,865.87218 c -0.9875,-0.54295 -1.80057,-1.00858 -1.80681,-1.03472 -0.006,-0.0263 0.14651,-0.20062 0.33946,-0.38775 1.60754,-1.55898 2.72012,-3.60749 3.23248,-5.95176 l 0.17285,-0.72699 c 2.16158,1.81651 4.58953,1.06209 6.55675,0.26851 0.15873,7.04482 7.82256,10.20599 6.88152,15.75818 -1.07777,6.35901 -4.00026,-1.98149 -3.36077,-1.08564 0.38407,0.53801 0.55299,6.7624 -2.45263,4.10994 -5.2954,-5.45283 -4.26289,-6.27363 -9.56285,-10.94977 z"
       style="fill:#ff0000;fill-opacity:0.98557691;stroke:#000000;stroke-width:0.25727016;stroke-miterlimit:4;stroke-opacity:0.9807692;stroke-dasharray:none" />
    <path
       sodipodi:nodetypes="cscc"
       inkscape:connector-curvature="0"
       id="path6803"
       d="m 435.58451,853.26015 c 0.0663,-0.0561 2.07828,1.66366 2.90475,1.88877 1.2379,0.33718 4.49344,0.76985 7.12614,0.81003 -7.90209,6.54877 -14.83021,1.45361 -10.03089,-2.6988 z"
       style="fill:#ff7f2a;fill-opacity:0.98557691;stroke:#000000;stroke-width:0.2923857;stroke-miterlimit:4;stroke-opacity:0.9807692;stroke-dasharray:none" />
    <path
       sodipodi:nodetypes="cssscsccsccccc"
       inkscape:connector-curvature="0"
       id="path6805"
       d="m 420.99521,858.29259 c -0.17367,-0.14931 -0.58382,-0.47968 -0.91145,-0.73417 -2.85509,-2.21778 -3.60513,-5.17269 -2.16537,-8.5308 0.34584,-0.80666 1.14888,-2.08542 1.78821,-2.84756 1.9357,-2.30755 4.68579,-4.09373 7.26637,-4.71951 1.15202,-0.27959 1.69317,-0.30766 2.47978,-0.12972 2.99675,0.67801 5.14445,2.03943 6.10902,3.87248 0.22487,0.42734 0.22889,0.44718 0.14077,0.69583 -0.12096,0.34139 -0.108,0.77381 0.069,2.30244 0.40918,3.53418 0.52718,6.36435 0.28767,6.89986 -0.3511,1.54678 -0.57407,3.20286 -1.10794,4.53709 -0.64488,1.58899 -1.53468,2.92202 -2.78456,4.1716 -0.3727,0.37262 -2.72189,1.34258 -2.00452,1.08774 -2.8255,-2.21163 -6.47761,-4.401 -9.16697,-6.6053 z"
       style="fill:#d38d5f;fill-opacity:1;stroke:#000000;stroke-width:0.06466477;stroke-miterlimit:4;stroke-opacity:1;stroke-dasharray:none" />
    <path
       transform="matrix(0.20005174,-0.04864384,0.04743329,0.20186811,265.09755,887.55393)"
       d="m 834.38602,11.905062 a 28.284271,34.345188 0 1 1 -56.56855,0 28.284271,34.345188 0 1 1 56.56855,0 z"
       sodipodi:ry="34.345188"
       sodipodi:rx="28.284271"
       sodipodi:cy="11.905062"
       sodipodi:cx="806.10175"
       id="path6807"
       style="fill:#ffffff;fill-opacity:1;stroke:#000000;stroke-width:2.43448114;stroke-miterlimit:4;stroke-opacity:1;stroke-dasharray:none"
       sodipodi:type="arc" />
    <path
       sodipodi:nodetypes="scccccs"
       inkscape:connector-curvature="0"
       id="path6809"
       d="m 436.29525,846.25542 c -0.16417,3e-4 -0.29373,-0.0793 -0.50287,-0.30868 -3.78092,-9.18882 -19.63954,-5.84551 -24.91157,-3.09245 -24.96832,14.82017 -2.95925,-28.96872 4.03929,-5.37301 -10.82493,-22.30264 18.997,-23.10317 12.88337,-0.94242 5.11081,-29.86289 33.98339,-2.69067 9.29422,9.09132 -0.26953,0.63817 -0.25179,0.62434 -0.80244,0.62524 z"
       style="fill:#ff0000;fill-opacity:0.98557691;stroke:#000000;stroke-width:0.46194011;stroke-miterlimit:4;stroke-opacity:0.9807692;stroke-dasharray:none" />
    <path
       transform="matrix(0.20765073,-0.05420787,0.04946143,0.22599282,262.16427,890.7499)"
       d="m 816.20323,17.965977 a 17.172594,20.203051 0 1 1 -34.34518,0 17.172594,20.203051 0 1 1 34.34518,0 z"
       sodipodi:ry="20.203051"
       sodipodi:rx="17.172594"
       sodipodi:cy="17.965977"
       sodipodi:cx="799.03064"
       id="path6811"
       style="fill:#000000;fill-opacity:0.98557691;stroke:#000000;stroke-width:1;stroke-miterlimit:4;stroke-opacity:0.9807692;stroke-dasharray:none"
       sodipodi:type="arc" />
    <path
       sodipodi:nodetypes="cccccsssssssssssssssccsssscsccsssssscccccscc"
       inkscape:connector-curvature="0"
       id="path6813"
       d="m 392.468,1007.8536 c -7.80019,2.4949 -16.72784,2.4284 -23.90269,1.3867 -9.92346,-1.9428 -17.65727,-3.0614 -25.26586,-9.68146 -7.85233,-6.4495 -11.39909,-13.88809 -13.8036,-21.56527 2.12289,1.75955 12.67303,0.25344 14.52015,-0.71554 1.636,-0.90547 4.60757,-2.24121 6.1667,-2.59253 1.41385,-0.31855 5.96141,-0.64166 7.32232,-0.59626 1.09989,0.0367 1.6885,-0.0798 3.66599,0.66599 3.17557,1.19766 4.15971,1.41414 6.5431,1.81343 4.70374,0.78804 9.99588,0.67077 14.85786,-0.52617 2.32112,-0.57139 6.59917,-2.54684 8.77338,-3.87885 3.25884,-1.99648 5.40884,-4.28012 7.20528,-6.97567 2.33421,-3.50247 15.51704,-27.23584 15.35521,-31.01646 -0.0866,-2.01988 0.107,-0.80516 -1.1185,-1.24792 -0.72184,-0.2608 -1.21246,-0.5674 -1.3097,-0.78357 -0.0797,-0.17711 -0.24317,-0.34992 -0.37919,-0.34225 -0.38116,0.0215 -0.61938,0.05 -0.55265,0.19829 0.033,0.0733 0.30483,-0.14684 0.4802,-0.22573 0.23723,-0.10669 0.28266,0.15573 0.47207,0.3985 0.14003,0.17948 0.7042,0.50179 1.25372,0.71627 l 0.99913,0.38997 c 0.18227,4.04051 -11.09063,24.26603 -12.68854,27.26324 -1.09475,3.78497 -5.84393,9.18139 -9.70068,11.47533 -2.04275,1.21501 -5.83349,3.08604 -8.1738,3.74546 -9.7014,2.73354 -19.96055,1.22376 -28.60029,-4.20896 -5.66505,-3.5622 -10.96681,-9.47581 -15.36898,-17.14262 -0.38221,-0.66566 -0.68805,-1.21972 -0.67965,-1.23126 0.008,-0.0116 0.21255,-0.33998 0.45366,-0.72989 0.83466,-1.34981 1.95709,-2.45432 3.50304,-3.44714 0.29979,-1.29132 -3.33155,2.70082 -3.76789,3.35843 -0.45893,0.70008 -0.50927,0.87044 -0.33563,1.13584 0.11236,0.17173 0.61644,0.7765 1.0762,1.48984 5.85701,9.08749 11.04344,14.45923 17.65366,18.34148 0.68945,0.40492 1.27422,0.66915 1.24823,0.68084 -0.026,0.0116 -0.58923,0.0186 -1.25163,0.0154 -1.26817,-0.006 -5.37522,0.42657 -7.00249,0.73784 -1.41698,0.27103 -4.13403,1.44093 -6.02792,2.52716 -2.5237,1.70048 -11.70304,2.00822 -13.85677,1.17599 -3.71879,-4.46269 -53.06435,-23.06067 -4.14106,-40.51011 11.74674,-0.43015 9.82541,-2.32019 29.25751,-5.9645 27.84038,-9.80242 79.1343,-89.86381 82.28479,-38.51982 3.59304,17.81559 0.36412,56.58158 -8.31443,75.79635 -10.16193,22.49905 -20.10136,32.78983 -36.85017,38.58953 z"
       style="fill:#a05a2c;fill-opacity:1;stroke:#000000;stroke-width:0.46533182;stroke-miterlimit:4;stroke-opacity:0.9807692;stroke-dasharray:none" />
    <path
       sodipodi:nodetypes="sscs"
       inkscape:connector-curvature="0"
       id="path6815"
       d="m 325.35534,975.36591 c 0.77675,1.00357 4.28855,-2.85057 3.77036,-3.97627 -31.51719,-68.46742 -52.35071,16.41632 -40.03572,78.61456 1.27805,-71.94689 14.51963,-102.73395 36.26536,-74.63829 z"
       style="fill:#ff0000;fill-opacity:1;stroke:#000000;stroke-width:0.42996833px;stroke-linecap:butt;stroke-linejoin:miter;stroke-opacity:1" />
    <path
       sodipodi:nodetypes="cccccccccsccscccc"
       inkscape:connector-curvature="0"
       id="path6817"
       d="m 429.05331,911.23702 c -3.15574,-1.62357 -4.27514,-12.28959 -6.21436,-15.28038 -2.01949,1.76581 -1.60701,8.57113 -8.99336,15.28545 -0.41436,-8.37645 -3.28239,-12.01843 -2.95146,-17.08906 -1.21079,1.66256 -8.47378,14.18923 -10.61181,14.50302 1.37321,-5.52151 1.88044,-11.6873 1.27861,-14.99277 l -7.79731,13.37115 c -3.13111,-7.53082 5.95601,-19.77694 7.14631,-28.00791 0.98606,-17.70057 -0.87788,-33.9913 14.69958,-38.26502 3.75379,-1.13134 8.27562,-1.62883 10.75799,-1.18359 2.45471,0.44028 5.33482,1.47572 6.6054,2.88765 -7.02548,-4.36378 -20.29552,5.41945 -12.38705,13.63804 1.41307,1.97155 5.00955,5.13662 11.80788,10.39151 9.36466,7.23859 8.993,11.76476 12.16726,16.96036 2.78235,12.99932 -0.88541,20.79234 -2.77107,26.81037 -2.87279,-5.79957 -0.87012,-8.42801 -4.38958,-12.77753 -1.75838,5.03195 -6.16847,9.86859 -8.34703,13.74871 z"
       style="fill:#aa4400;fill-opacity:1;stroke:#000000;stroke-width:0.46981993;stroke-miterlimit:4;stroke-opacity:0.9807692;stroke-dasharray:none" />
    <path
       sodipodi:nodetypes="sscs"
       inkscape:connector-curvature="0"
       id="path6819"
       d="m 327.4071,966.40773 c 0.96501,0.86162 1.88332,-5.81093 1.49087,-6.90109 -25.39843,-70.55207 -69.25806,21.32665 -57.54464,79.22736 7.0698,-68.78545 24.96942,-100.08013 56.05377,-72.32627 z"
       style="fill:#d40000;fill-opacity:1;stroke:#000000;stroke-width:0.48234195px;stroke-linecap:butt;stroke-linejoin:miter;stroke-opacity:1" />
    <path
       sodipodi:nodetypes="sscs"
       inkscape:connector-curvature="0"
       id="path6821"
       d="m 326.74267,977.24812 c 0.72771,0.75295 2.2556,-1.26743 1.86913,-2.20933 -25.01159,-60.95766 -43.80084,13.7262 -29.16181,63.63451 -3.85947,-59.01819 3.8525,-85.67853 27.29268,-61.42518 z"
       style="fill:#aa4400;fill-opacity:1;stroke:#000000;stroke-width:0.35853395px;stroke-linecap:butt;stroke-linejoin:miter;stroke-opacity:1" />
    <path
       sodipodi:nodetypes="sscs"
       inkscape:connector-curvature="0"
       id="path6823"
       d="m 325.72448,968.41015 c 0.77919,0.96985 3.12069,-1.13276 2.81305,-2.27077 -19.90944,-73.64921 -58.46718,9.48605 -49.60212,68.94702 6.6468,-68.38302 21.69038,-97.91604 46.78907,-66.67625 z"
       style="fill:#008000;fill-opacity:1;stroke:#000000;stroke-width:0.43789446px;stroke-linecap:butt;stroke-linejoin:miter;stroke-opacity:1" />
    <path
       sodipodi:nodetypes="sscs"
       inkscape:connector-curvature="0"
       id="path6825"
       d="m 323.83933,957.99813 c 0.83824,1.17759 4.38298,0.42829 4.16201,-0.92117 -12.7518,-77.8762 -73.11655,-5.71715 -71.3871,66.98724 22.63254,-63.43295 45.72205,-96.27432 67.22509,-66.06607 z"
       style="fill:#008000;fill-opacity:1;stroke:#000000;stroke-width:0.50851381px;stroke-linecap:butt;stroke-linejoin:miter;stroke-opacity:1" />
    <path
       sodipodi:nodetypes="sscs"
       inkscape:connector-curvature="0"
       id="path6827"
       d="m 326.83126,954.55733 c 0.69331,1.27113 2.76173,-0.40661 2.6427,-1.76925 -7.70297,-88.18651 -66.34475,-0.19561 -68.37853,69.47042 21.61977,-76.54085 43.40326,-108.64572 65.73583,-67.70117 z"
       style="fill:#ff0000;fill-opacity:1;stroke:#000000;stroke-width:0.50851381px;stroke-linecap:butt;stroke-linejoin:miter;stroke-opacity:1" />
    <path
       sodipodi:nodetypes="sscs"
       inkscape:connector-curvature="0"
       id="path6829"
       d="m 327.14702,952.52646 c 0.76361,1.40097 3.86582,1.39471 3.72121,-0.10587 -9.35304,-97.05502 -77.78036,-8.18644 -77.58768,68.20201 23.81519,-84.36193 49.26943,-113.22349 73.86647,-68.09614 z"
       style="fill:#803300;fill-opacity:1;stroke:#000000;stroke-width:0.56028587px;stroke-linecap:butt;stroke-linejoin:miter;stroke-opacity:1" />
  </g>
  <g
     inkscape:label="rooster3"
     inkscape:groupmode="layer"
     id="g6831"
     transform="translate(0,-802.36212)"
     style="display:inline">
    <path
       style="fill:none;stroke:#000000;stroke-width:0.10233498px;stroke-linecap:butt;stroke-linejoin:miter;stroke-opacity:1"
       d="m 570.15768,944.93612 c -1.69271,0.48801 -3.41994,1.49136 -5.22875,3.71222 4.78707,13.6841 11.33214,21.19762 19.58225,25.75447 18.8215,10.39587 42.22577,1.12202 43.30572,-15.8775 0.0795,-1.25212 -1.94806,-0.82363 -2.13544,-2.20181 l -0.37086,-0.15091 -0.45653,0.15282"
       id="path6833"
       inkscape:connector-curvature="0"
       sodipodi:nodetypes="ccssccc" />
    <path
       style="fill:#ff7f2a;fill-opacity:0.98557691;stroke:#000000;stroke-width:0.46347514;stroke-miterlimit:4;stroke-opacity:0.9807692;stroke-dasharray:none"
       d="m 642.73985,1031.6956 c -1.07592,-1.1924 -2.60507,-2.5927 -4.03573,-3.6955 -5.41676,-4.1758 -12.16156,-5.8245 -19.76543,-4.8315 -0.94748,0.1237 -1.74552,0.1926 -1.77344,0.1531 -0.0833,-0.1181 1.57701,-0.9239 2.93484,-1.4244 1.16209,-0.4284 4.18318,-1.0133 4.7388,-0.9174 0.30835,0.053 0.49992,-1.0068 0.39884,-2.2068 -0.0402,-0.4768 -0.0521,-0.988 -0.0266,-1.136 0.0255,-0.148 -0.007,-0.3005 -0.0714,-0.3389 -0.14897,-0.088 -0.74732,-2.04 -0.64709,-2.1107 0.0409,-0.029 0.47695,0.5649 0.96899,1.3194 0.49205,0.7546 0.94644,1.3354 1.00974,1.2907 0.0633,-0.045 -0.0481,-0.3253 -0.24773,-0.6237 -0.19955,-0.2984 -2.11961,-3.1471 -4.26679,-6.3305 -2.14717,-3.1835 -3.87938,-5.8054 -3.84936,-5.8266 0.03,-0.021 0.61228,0.1596 1.29389,0.4019 2.44934,0.8706 3.36334,1.1169 5.57132,1.501 1.23303,0.2147 3.06937,0.4309 4.08068,0.4808 1.0113,0.05 1.99011,0.1156 2.17513,0.1459 l 0.33642,0.055 -0.39762,0.4494 c -0.57686,0.6519 -1.6322,2.1473 -1.96084,2.7784 -0.15597,0.2995 -0.34006,0.6016 -0.40913,0.6712 -0.0691,0.07 -0.18217,0.384 -0.25134,0.6984 -0.0692,0.3145 -0.1892,0.7338 -0.26676,0.9318 -0.0776,0.1981 -0.14664,0.8139 -0.15351,1.3685 -0.0306,2.4742 1.40221,4.6358 4.42154,6.6706 1.753,1.1813 2.10637,1.2877 6.62005,1.9936 8.06875,1.2619 10.01403,1.6319 10.9884,2.0901 1.45832,0.6857 3.90295,2.4275 3.65386,2.6033 -0.0358,0.025 -1.04378,-0.2343 -2.24011,-0.5766 -3.71743,-1.0638 -10.21149,-2.0829 -12.01649,-1.8858 -0.20577,0.022 0.0465,0.3643 1.02211,1.3852 0.71241,0.7454 1.57296,1.755 1.91234,2.2434 0.65113,0.9373 1.26049,2.7252 1.09576,3.2151 -0.0861,0.2561 -0.1736,0.1999 -0.84337,-0.5424 l 0,0 z"
       id="path6835"
       inkscape:connector-curvature="0" />
    <path
       style="fill:#ff7f2a;fill-opacity:0.98557691;stroke:#000000;stroke-width:0.46347514;stroke-miterlimit:4;stroke-opacity:0.9807692;stroke-dasharray:none"
       d="m 628.82742,1016.8605 c -0.5142,-1.1888 -0.59896,-2.8326 -0.20707,-4.0167 l 0.20529,-0.6202 0.62211,0.448 c 0.92463,0.666 2.00517,0.9803 6.74031,1.9608 7.14797,1.4802 9.24829,2.1253 10.89353,3.3458 0.73181,0.5428 1.53318,1.5869 1.47537,1.9222 -0.018,0.1044 -0.31884,0.076 -0.9122,-0.087 -6.15258,-1.6869 -13.4578,-2.7772 -17.72825,-2.646 -0.90254,0.028 -0.95011,0.014 -1.08909,-0.307 z"
       id="path6837"
       inkscape:connector-curvature="0" />
    <path
       style="fill:#ff7f2a;fill-opacity:0.98557691;stroke:#000000;stroke-width:0.46347514;stroke-miterlimit:4;stroke-opacity:0.9807692;stroke-dasharray:none"
       d="m 633.70044,1013.9014 c -0.99013,-0.2285 -2.22577,-0.5743 -2.74586,-0.7685 -0.882,-0.3292 -0.92027,-0.361 -0.56869,-0.4718 0.91496,-0.2885 4.64988,-0.8074 6.21692,-0.8638 1.77155,-0.064 2.61549,0.025 3.90748,0.4111 l 0.7502,0.2242 -1.08084,0.4028 c -0.59445,0.2215 -1.75202,0.6172 -2.57235,0.8793 -0.82034,0.2621 -1.56355,0.5265 -1.65161,0.5876 -0.0881,0.061 -0.22644,0.089 -0.30754,0.063 -0.0811,-0.027 -0.95756,-0.2352 -1.94771,-0.4637 l 0,0 z"
       id="path6839"
       inkscape:connector-curvature="0" />
    <path
       style="fill:#ff7f2a;fill-opacity:0.98557691;stroke:#000000;stroke-width:0.46347514;stroke-miterlimit:4;stroke-opacity:0.9807692;stroke-dasharray:none"
       d="m 610.78018,1018.7346 c 0.0248,-0.1439 1.2387,-0.9584 2.09704,-1.407 0.3587,-0.1875 1.81965,-0.7233 3.24655,-1.1908 2.9108,-0.9535 3.29103,-1.1081 4.20088,-1.7073 0.81972,-0.5399 1.17961,-1.008 1.55466,-2.0222 l 0.30145,-0.8151 0.97159,1.5168 c 0.53438,0.8343 0.933,1.5102 0.88581,1.502 -0.0472,-0.01 0.1057,0.6162 0.33974,1.3874 l 0.42553,1.4021 -0.47964,0 c -5.42212,-0.05 -9.00209,0.2802 -12.15478,1.1221 -1.43115,0.3822 -1.41702,0.38 -1.38883,0.2164 z"
       id="path6841"
       inkscape:connector-curvature="0" />
    <path
       style="fill:#ff7f2a;fill-opacity:0.98557691;stroke:#000000;stroke-width:0.31772563;stroke-miterlimit:4;stroke-opacity:0.9807692;stroke-dasharray:none"
       d="m 688.88632,849.74347 c -0.19684,-0.75525 -1.74806,-4.05878 -3.03613,-6.46593 -0.86611,-1.61858 -1.00492,-2.08833 -0.6947,-2.35096 1.01531,-0.85959 4.31122,-2.30632 6.16032,-2.70402 1.96434,-0.42251 6.59026,-1.29261 6.871,-0.85774 0.0727,0.11298 -1.99878,1.9373 -2.87332,2.96926 -0.87454,1.03195 -2.60664,3.6581 -3.84912,5.83583 -1.24249,2.17775 -2.29916,3.99427 -2.34816,4.03671 -0.0488,0.0426 -0.1526,-0.16578 -0.22989,-0.46315 z"
       id="path6843"
       inkscape:connector-curvature="0"
       sodipodi:nodetypes="csssccscc" />
    <path
       style="fill:#ff0000;fill-opacity:0.98557691;stroke:#000000;stroke-width:0.25727016;stroke-miterlimit:4;stroke-opacity:0.9807692;stroke-dasharray:none"
       d="m 684.55792,860.75005 c -0.9875,-0.54296 -1.80057,-1.00859 -1.80681,-1.03473 -0.006,-0.0263 0.14651,-0.20062 0.33946,-0.38775 1.60754,-1.55898 2.72012,-3.60749 3.23248,-5.95176 l 0.17285,-0.72699 c 2.16158,1.81651 4.58953,1.06209 6.55675,0.26852 0.15873,7.04481 7.82256,10.20598 6.88152,15.75817 -1.07777,6.35901 -4.00026,-1.98149 -3.36076,-1.08564 0.38406,0.53801 0.55298,6.7624 -2.45264,4.10994 -5.2954,-5.45283 -4.26289,-6.27363 -9.56285,-10.94976 z"
       id="path6845"
       inkscape:connector-curvature="0"
       sodipodi:nodetypes="csssccsscc" />
    <path
       style="fill:#ff7f2a;fill-opacity:0.98557691;stroke:#000000;stroke-width:0.2923857;stroke-miterlimit:4;stroke-opacity:0.9807692;stroke-dasharray:none"
       d="m 688.65979,848.36075 c 0.0763,-0.0413 1.69513,2.05269 2.45829,2.44169 1.14307,0.58265 4.24185,1.67043 6.81097,2.24692 -9.07199,4.79878 -14.81483,-1.60274 -9.26926,-4.68861 z"
       id="path6847"
       inkscape:connector-curvature="0"
       sodipodi:nodetypes="cscc" />
    <path
       style="fill:#d38d5f;fill-opacity:1;stroke:#000000;stroke-width:0.06466477;stroke-miterlimit:4;stroke-opacity:1;stroke-dasharray:none"
       d="m 673.38642,852.80496 c -0.17367,-0.1493 -0.58382,-0.47968 -0.91145,-0.73416 -2.85509,-2.21779 -3.60513,-5.1727 -2.16537,-8.5308 0.34584,-0.80666 1.14888,-2.08543 1.78821,-2.84756 1.9357,-2.30756 4.68579,-4.09373 7.26637,-4.71951 1.15202,-0.27959 1.69317,-0.30767 2.47978,-0.12972 2.99675,0.67801 5.14445,2.03942 6.10902,3.87247 0.22487,0.42735 0.22889,0.44719 0.14077,0.69584 -0.12096,0.34139 -0.10799,0.77381 0.069,2.30244 0.40919,3.53417 0.52718,6.36435 0.28767,6.89986 -0.3511,1.54677 -0.57407,3.20286 -1.10794,4.53709 -0.64488,1.58898 -1.53468,2.92202 -2.78456,4.1716 -0.3727,0.37261 -2.72189,1.34258 -2.00452,1.08774 -2.82549,-2.21163 -6.47761,-4.40101 -9.16697,-6.6053 z"
       id="path6849"
       inkscape:connector-curvature="0"
       sodipodi:nodetypes="cssscsccsccccc" />
    <path
       sodipodi:type="arc"
       style="fill:#ffffff;fill-opacity:1;stroke:#000000;stroke-width:2.43448114;stroke-miterlimit:4;stroke-opacity:1;stroke-dasharray:none"
       id="path6851"
       sodipodi:cx="806.10175"
       sodipodi:cy="11.905062"
       sodipodi:rx="28.284271"
       sodipodi:ry="34.345188"
       d="m 834.38602,11.905062 a 28.284271,34.345188 0 1 1 -56.56855,0 28.284271,34.345188 0 1 1 56.56855,0 z"
       transform="matrix(0.20005174,-0.04864384,0.04743329,0.20186811,517.48876,882.43179)" />
    <path
       style="fill:#ff0000;fill-opacity:0.98557691;stroke:#000000;stroke-width:0.46194011;stroke-miterlimit:4;stroke-opacity:0.9807692;stroke-dasharray:none"
       d="m 687.60024,840.07765 c -0.16366,0.013 -0.29897,-0.0564 -0.52518,-0.26897 -4.47834,-8.86984 -20.03188,-4.3134 -25.07588,-1.16193 -23.75094,16.7017 -5.18464,-28.65421 3.61287,-5.66854 -12.51278,-21.40134 17.15858,-24.4995 12.7723,-1.93324 2.79243,-30.16811 33.67466,-5.30363 9.96772,8.34742 -0.21952,0.65705 -0.20289,0.6419 -0.75183,0.68526 z"
       id="path6853"
       inkscape:connector-curvature="0"
       sodipodi:nodetypes="scccccs" />
    <path
       sodipodi:type="arc"
       style="fill:#000000;fill-opacity:0.98557691;stroke:#000000;stroke-width:1;stroke-miterlimit:4;stroke-opacity:0.9807692;stroke-dasharray:none"
       id="path6855"
       sodipodi:cx="799.03064"
       sodipodi:cy="17.965977"
       sodipodi:rx="17.172594"
       sodipodi:ry="20.203051"
       d="m 816.20323,17.965977 a 17.172594,20.203051 0 1 1 -34.34518,0 17.172594,20.203051 0 1 1 34.34518,0 z"
       transform="matrix(0.20765073,-0.05420787,0.04946143,0.22599282,514.55548,885.62776)" />
    <path
       style="fill:#a05a2c;fill-opacity:1;stroke:#000000;stroke-width:0.46533182;stroke-miterlimit:4;stroke-opacity:0.9807692;stroke-dasharray:none"
       d="m 642.66632,1005.6554 c -7.80019,2.495 -16.72784,2.4284 -23.90269,1.3867 -9.92346,-1.9428 -17.65727,-3.0614 -25.26586,-9.68154 -7.85233,-6.4495 -11.39909,-13.88809 -13.8036,-21.56527 2.12289,1.75955 12.67303,0.25345 14.52015,-0.71554 1.636,-0.90547 4.60757,-2.24121 6.1667,-2.59253 1.41385,-0.31855 5.96141,-0.64166 7.32232,-0.59626 1.09989,0.0367 1.6885,-0.0798 3.66599,0.66599 3.17557,1.19766 4.15971,1.41414 6.5431,1.81343 4.70374,0.78804 9.99588,0.67077 14.85786,-0.52617 2.32112,-0.57139 6.59917,-2.54684 8.77338,-3.87885 3.25884,-1.99648 5.40884,-4.28012 7.20528,-6.97567 2.33421,-3.50247 15.51704,-27.23584 15.35521,-31.01646 -0.0866,-2.01988 0.107,-0.80516 -1.1185,-1.24792 -0.72184,-0.2608 -1.21246,-0.5674 -1.3097,-0.78357 -0.0797,-0.17711 -0.24317,-0.34992 -0.37919,-0.34225 -0.38116,0.0215 -0.61938,0.05 -0.55265,0.19829 0.033,0.0733 0.30483,-0.14684 0.4802,-0.22573 0.23723,-0.10669 0.28266,0.15573 0.47207,0.3985 0.14003,0.17948 0.7042,0.50179 1.25372,0.71627 l 0.99913,0.38997 c 0.18227,4.04051 -11.09063,24.26603 -12.68854,27.26324 -1.09475,3.78497 -5.84393,9.18139 -9.70068,11.47533 -2.04275,1.21501 -5.83349,3.08604 -8.1738,3.74546 -9.7014,2.73354 -19.96055,1.22376 -28.60029,-4.20896 -5.66505,-3.5622 -10.96681,-9.47581 -15.36898,-17.14262 -0.38221,-0.66566 -0.68805,-1.21972 -0.67965,-1.23126 0.008,-0.0116 0.21255,-0.33998 0.45366,-0.72989 0.83466,-1.34981 1.95709,-2.45432 3.50304,-3.44714 0.29979,-1.29132 -3.33155,2.70082 -3.76789,3.35843 -0.45893,0.70008 -0.50927,0.87044 -0.33563,1.13584 0.11236,0.17173 0.61644,0.7765 1.0762,1.48984 5.85701,9.08749 11.04344,14.45923 17.65366,18.34148 0.68945,0.40492 1.27422,0.66915 1.24823,0.68084 -0.026,0.0116 -0.58923,0.0186 -1.25163,0.0154 -1.26817,-0.006 -5.37522,0.42657 -7.00249,0.73784 -1.41698,0.27103 -4.13403,1.44093 -6.02792,2.52716 -2.5237,1.70048 -11.70304,2.00822 -13.85677,1.17599 -3.71879,-4.46269 -53.06435,-23.06067 -4.14106,-40.51011 11.74674,-0.43015 9.82541,-2.32019 29.25751,-5.9645 27.84038,-9.80242 79.1343,-89.86381 82.28479,-38.51982 3.59304,17.81559 0.36412,56.58158 -8.31443,75.79635 -10.16193,22.49905 -20.10136,32.78987 -36.85017,38.58961 z"
       id="path6857"
       inkscape:connector-curvature="0"
       sodipodi:nodetypes="cccccsssssssssssssssccsssscsccsssssscccccscc" />
    <path
       style="fill:#ff0000;fill-opacity:1;stroke:#000000;stroke-width:0.42996833px;stroke-linecap:butt;stroke-linejoin:miter;stroke-opacity:1"
       d="m 575.80521,972.70455 c 0.69619,1.06105 4.49764,-2.50772 4.06874,-3.67038 -26.08611,-70.71517 -53.47075,12.28703 -46.03993,75.25583 6.88055,-71.62858 22.48091,-101.29019 41.97119,-71.58545 z"
       id="path6859"
       inkscape:connector-curvature="0"
       sodipodi:nodetypes="sscs" />
    <path
       style="fill:#aa4400;fill-opacity:1;stroke:#000000;stroke-width:0.46981993;stroke-miterlimit:4;stroke-opacity:0.9807692;stroke-dasharray:none"
       d="m 681.44452,906.11488 c -3.15574,-1.62357 -4.27514,-12.28959 -6.21436,-15.28037 -2.01949,1.7658 -1.60701,8.57112 -8.99336,15.28544 -0.41436,-8.37645 -3.28239,-12.01843 -2.95146,-17.08906 -1.21079,1.66256 -8.47378,14.18923 -10.61181,14.50302 1.37321,-5.52151 1.88044,-11.6873 1.27861,-14.99277 l -7.79731,13.37115 c -3.13111,-7.53082 5.95601,-19.77693 7.14631,-28.00791 0.98606,-17.70057 -0.87788,-33.9913 14.69958,-38.26502 3.75379,-1.13134 8.27562,-1.62883 10.75799,-1.18359 2.45472,0.44028 5.33482,1.47572 6.6054,2.88765 -7.02548,-4.36377 -20.29552,5.41946 -12.38705,13.63805 1.41307,1.97154 5.00955,5.13661 11.80788,10.3915 9.36466,7.23859 8.993,11.76476 12.16726,16.96037 2.78235,12.99931 -0.88541,20.79233 -2.77107,26.81036 -2.87279,-5.79956 -0.87012,-8.42801 -4.38958,-12.77753 -1.75838,5.03195 -6.16847,9.8686 -8.34703,13.74871 z"
       id="path6861"
       inkscape:connector-curvature="0"
       sodipodi:nodetypes="cccccccccsccscccc" />
    <path
       style="fill:#d40000;fill-opacity:1;stroke:#000000;stroke-width:0.48234195px;stroke-linecap:butt;stroke-linejoin:miter;stroke-opacity:1"
       d="m 578.54879,963.93349 c 0.89494,0.9342 2.3304,-5.64651 2.02409,-6.76393 -19.8235,-72.31669 -70.70932,15.86494 -63.54337,74.50244 12.40834,-68.02548 32.69213,-97.83019 61.51928,-67.73851 z"
       id="path6863"
       inkscape:connector-curvature="0"
       sodipodi:nodetypes="sscs" />
    <path
       style="fill:#aa4400;fill-opacity:1;stroke:#000000;stroke-width:0.35853395px;stroke-linecap:butt;stroke-linejoin:miter;stroke-opacity:1"
       d="m 577.04166,974.68915 c 0.66681,0.80736 2.3475,-1.08782 2.0356,-2.05697 -20.18548,-62.72131 -44.73725,10.27134 -34.03179,61.16872 0.7512,-59.13958 10.5172,-85.11791 31.99619,-59.11175 z"
       id="path6865"
       inkscape:connector-curvature="0"
       sodipodi:nodetypes="sscs" />
    <path
       style="fill:#008000;fill-opacity:1;stroke:#000000;stroke-width:0.43789446px;stroke-linecap:butt;stroke-linejoin:miter;stroke-opacity:1"
       d="m 576.71525,965.7987 c 0.70125,1.02763 3.19947,-0.88613 2.98144,-2.04466 -14.10987,-74.97668 -59.02858,4.90122 -54.82392,64.87226 11.95526,-67.65721 29.25443,-95.92818 51.84248,-62.8276 z"
       id="path6867"
       inkscape:connector-curvature="0"
       sodipodi:nodetypes="sscs" />
    <path
       style="fill:#008000;fill-opacity:1;stroke:#000000;stroke-width:0.50851381px;stroke-linecap:butt;stroke-linejoin:miter;stroke-opacity:1"
       d="m 575.64717,955.27145 c 0.74393,1.23933 4.33628,0.76852 4.22115,-0.59405 -6.64461,-78.63307 -72.44873,-11.39729 -76.38995,61.2209 27.50666,-61.47656 53.08509,-92.41885 72.1688,-60.62685 z"
       id="path6869"
       inkscape:connector-curvature="0"
       sodipodi:nodetypes="sscs" />
    <path
       style="fill:#ff0000;fill-opacity:1;stroke:#000000;stroke-width:0.50851381px;stroke-linecap:butt;stroke-linejoin:miter;stroke-opacity:1"
       d="m 578.89813,952.07425 c 0.59216,1.32129 2.78501,-0.19017 2.77254,-1.55794 -0.80772,-88.51861 -66.12778,-5.36486 -73.58403,63.93099 27.51839,-74.62354 51.73738,-104.93334 70.81149,-62.37305 z"
       id="path6871"
       inkscape:connector-curvature="0"
       sodipodi:nodetypes="sscs" />
    <path
       style="fill:#803300;fill-opacity:1;stroke:#000000;stroke-width:0.56028587px;stroke-linecap:butt;stroke-linejoin:miter;stroke-opacity:1"
       d="m 579.37118,950.07416 c 0.65212,1.45622 3.74538,1.69171 3.71815,0.18443 -1.7617,-97.48873 -76.90594,-14.2225 -82.66633,61.94871 30.31659,-82.24965 57.94243,-109.03996 78.94818,-62.13314 z"
       id="path6873"
       inkscape:connector-curvature="0"
       sodipodi:nodetypes="sscs" />
  </g>
  <g
     style="display:inline"
     transform="translate(0,-802.36212)"
     id="g6875"
     inkscape:groupmode="layer"
     inkscape:label="rooster4">
    <path
       sodipodi:nodetypes="ccssccc"
       inkscape:connector-curvature="0"
       id="path6877"
       d="m 820.32456,949.22673 c -1.68644,0.50923 -3.40094,1.53419 -5.18172,3.77759 4.95853,13.6229 11.59743,21.05365 19.90411,25.50654 18.95055,10.15871 42.23653,0.59169 43.10293,-16.42004 0.0638,-1.25302 -1.95825,-0.7991 -2.16292,-2.17482 l -0.37273,-0.14624 -0.45457,0.15853"
       style="fill:none;stroke:#000000;stroke-width:0.10233498px;stroke-linecap:butt;stroke-linejoin:miter;stroke-opacity:1" />
    <path
       inkscape:connector-curvature="0"
       id="path6879"
       d="m 895.27217,1032.4922 c -1.17728,-1.0925 -2.8244,-2.3518 -4.34711,-3.3236 -5.76523,-3.6797 -12.62952,-4.7248 -20.1156,-3.0624 -0.9328,0.2071 -1.72161,0.3465 -1.75292,0.3094 -0.0935,-0.1101 1.48901,-1.0598 2.79719,-1.6786 1.11959,-0.5295 4.07702,-1.3796 4.63896,-1.3334 0.31185,0.026 0.4088,-1.0471 0.20187,-2.2334 -0.0822,-0.4713 -0.13942,-0.9795 -0.1271,-1.1292 0.0123,-0.1496 -0.0332,-0.2987 -0.10107,-0.3311 -0.1562,-0.075 -0.92503,-1.9659 -0.83145,-2.0452 0.0382,-0.032 0.5251,0.5204 1.08203,1.2285 0.55692,0.7079 1.06095,1.2462 1.12005,1.1961 0.0591,-0.05 -0.0768,-0.3198 -0.30199,-0.5994 -0.22518,-0.2795 -2.38994,-2.947 -4.81057,-5.9278 -2.42062,-2.9808 -4.3782,-5.4391 -4.35016,-5.4628 0.028,-0.023 0.624,0.1048 1.32439,0.2858 2.51681,0.6503 3.44902,0.8146 5.68234,1.0018 1.2472,0.1046 3.09548,0.1574 4.10723,0.1175 1.01175,-0.04 1.99253,-0.061 2.1795,-0.047 l 0.33995,0.025 -0.35626,0.4828 c -0.51687,0.7005 -1.43564,2.2835 -1.70711,2.9413 -0.12884,0.312 -0.28545,0.6292 -0.34808,0.7047 -0.0626,0.076 -0.14747,0.3986 -0.18852,0.7179 -0.0411,0.3194 -0.12349,0.7476 -0.1832,0.9518 -0.0598,0.2042 -0.074,0.8237 -0.0317,1.3767 0.18861,2.4672 1.80719,4.4935 4.99482,6.2528 1.85072,1.0215 2.21213,1.0962 6.77058,1.3997 8.14879,0.5424 10.11919,0.7387 11.13031,1.1088 1.51332,0.5539 4.10256,2.0723 3.87002,2.2696 -0.0334,0.028 -1.06043,-0.1409 -2.28236,-0.376 -3.79704,-0.7304 -10.35583,-1.1706 -12.13628,-0.8144 -0.20297,0.041 0.0785,0.3588 1.14074,1.2892 0.77562,0.6794 1.72219,1.6088 2.10348,2.0654 0.73158,0.8759 1.49685,2.6029 1.37614,3.1054 -0.0631,0.2627 -0.1552,0.2145 -0.88808,-0.4657 l 0,0 z"
       style="fill:#ff7f2a;fill-opacity:0.98557691;stroke:#000000;stroke-width:0.46347514;stroke-miterlimit:4;stroke-opacity:0.9807692;stroke-dasharray:none" />
    <path
       inkscape:connector-curvature="0"
       id="path6881"
       d="m 880.10079,1018.9473 c -0.61744,-1.1386 -0.84742,-2.7685 -0.56192,-3.9826 l 0.14956,-0.636 0.65934,0.3912 c 0.97997,0.5815 2.08409,0.7989 6.88745,1.3563 7.25097,0.8414 9.40015,1.298 11.14701,2.368 0.77699,0.476 1.66768,1.4449 1.63978,1.784 -0.009,0.1056 -0.31088,0.1039 -0.91632,-0.01 -6.27777,-1.1354 -13.65084,-1.5746 -17.8929,-1.0658 -0.89654,0.1073 -0.9451,0.099 -1.11199,-0.2093 z"
       style="fill:#ff7f2a;fill-opacity:0.98557691;stroke:#000000;stroke-width:0.46347514;stroke-miterlimit:4;stroke-opacity:0.9807692;stroke-dasharray:none" />
    <path
       inkscape:connector-curvature="0"
       id="path6883"
       d="m 884.69266,1015.5683 c -1.00648,-0.1399 -2.26789,-0.375 -2.80313,-0.5223 -0.90769,-0.2498 -0.94861,-0.2781 -0.60823,-0.4197 0.88582,-0.3683 4.56012,-1.2159 6.11601,-1.4108 1.75896,-0.2202 2.60745,-0.2066 3.92854,0.063 l 0.76709,0.1569 -1.04091,0.4969 c -0.57252,0.2733 -1.69049,0.7699 -2.4844,1.1036 -0.7939,0.3337 -1.51079,0.6629 -1.59308,0.7316 -0.0822,0.069 -0.21765,0.1091 -0.30077,0.09 -0.0831,-0.019 -0.97463,-0.1496 -1.98112,-0.2896 l 0,0 z"
       style="fill:#ff7f2a;fill-opacity:0.98557691;stroke:#000000;stroke-width:0.46347514;stroke-miterlimit:4;stroke-opacity:0.9807692;stroke-dasharray:none" />
    <path
       inkscape:connector-curvature="0"
       id="path6885"
       d="m 862.29038,1022.412 c 0.012,-0.1456 1.14897,-1.0643 1.96422,-1.5872 0.34069,-0.2185 1.74846,-0.8815 3.12836,-1.4735 2.81493,-1.2075 3.17998,-1.3951 4.03319,-2.0726 0.76871,-0.6103 1.08574,-1.1085 1.36951,-2.1519 l 0.22808,-0.8386 1.1021,1.4248 c 0.60614,0.7836 1.06304,1.4216 1.01532,1.4177 -0.0477,6e-4 0.15984,0.6044 0.46126,1.3519 l 0.54801,1.3589 -0.47816,0.038 c -5.40528,0.43 -8.94192,1.0762 -12.00768,2.1939 -1.39169,0.5075 -1.37781,0.504 -1.36421,0.3386 z"
       style="fill:#ff7f2a;fill-opacity:0.98557691;stroke:#000000;stroke-width:0.46347514;stroke-miterlimit:4;stroke-opacity:0.9807692;stroke-dasharray:none" />
    <path
       sodipodi:nodetypes="csssccscc"
       inkscape:connector-curvature="0"
       id="path6887"
       d="m 930.75497,858.61442 c 0.0787,-0.65638 -0.22013,-3.77633 -0.58473,-6.1066 -0.24515,-1.5669 -0.2115,-1.98105 0.16843,-2.07273 1.24348,-0.30007 4.8141,-0.23273 6.67377,0.12592 1.97556,0.38095 6.58463,1.37491 6.69523,1.81322 0.0285,0.11378 -2.53295,0.78069 -3.70513,1.26514 -1.17218,0.48444 -3.69569,1.89522 -5.60782,3.13504 -1.91212,1.23981 -3.52596,2.26666 -3.5863,2.28189 -0.0603,0.0155 -0.0846,-0.18353 -0.0534,-0.44188 z"
       style="fill:#ff7f2a;fill-opacity:0.98557691;stroke:#000000;stroke-width:0.29237106;stroke-miterlimit:4;stroke-opacity:0.9807692;stroke-dasharray:none" />
    <path
       sodipodi:nodetypes="csssccsscc"
       inkscape:connector-curvature="0"
       id="path6889"
       d="m 928.61574,869.52227 c -0.99424,-0.53052 -1.81309,-0.9859 -1.81966,-1.01195 -0.006,-0.0262 0.14398,-0.20245 0.33456,-0.39199 1.58784,-1.57905 2.67461,-3.64136 3.15749,-5.99188 l 0.16371,-0.7291 c 2.18422,1.78922 4.60251,1.00438 6.55961,0.18616 0.24717,7.04227 7.95011,10.10695 7.07885,15.67052 -0.99784,6.37205 -4.02483,-1.9311 -3.37413,-1.04335 0.39079,0.53315 0.63785,6.75492 -2.40084,4.14041 -5.36345,-5.3859 -4.34133,-6.2196 -9.69959,-10.82882 z"
       style="fill:#ff0000;fill-opacity:0.98557691;stroke:#000000;stroke-width:0.25727016;stroke-miterlimit:4;stroke-opacity:0.9807692;stroke-dasharray:none" />
    <path
       sodipodi:nodetypes="cscc"
       inkscape:connector-curvature="0"
       id="path6891"
       d="m 930.79036,859.08579 c 0.0303,-0.0814 2.62732,0.42922 3.45785,0.21964 1.24401,-0.31391 4.2927,-1.53506 6.6061,-2.7924 -3.66979,9.58447 -12.20688,8.54636 -10.06395,2.57276 z"
       style="fill:#ff7f2a;fill-opacity:0.98557691;stroke:#000000;stroke-width:0.2923857;stroke-miterlimit:4;stroke-opacity:0.9807692;stroke-dasharray:none" />
    <path
       sodipodi:nodetypes="cssscsccsccccc"
       inkscape:connector-curvature="0"
       id="path6893"
       d="m 917.34994,862.08355 c -0.17553,-0.14712 -0.58979,-0.47231 -0.92058,-0.72266 -2.88273,-2.18176 -3.66981,-5.12702 -2.27233,-8.50294 0.33568,-0.81093 1.1226,-2.09969 1.75231,-2.86979 1.90657,-2.33168 4.63401,-4.15224 7.20653,-4.81038 1.14842,-0.29403 1.68918,-0.3289 2.47796,-0.16085 3.00503,0.64033 5.16965,1.97466 6.15716,3.79546 0.23022,0.42449 0.23449,0.44428 0.1495,0.69402 -0.11665,0.34288 -0.0983,0.7751 0.0979,2.30139 0.45353,3.52875 0.60705,6.35723 0.37429,6.8957 -0.33165,1.55106 -0.53381,3.20982 -1.05089,4.55065 -0.62487,1.59695 -1.49786,2.94106 -2.73195,4.20623 -0.36799,0.37726 -2.70482,1.37665 -1.99071,1.11283 -2.85303,-2.17598 -6.53236,-4.31933 -9.24919,-6.48967 z"
       style="fill:#d38d5f;fill-opacity:1;stroke:#000000;stroke-width:0.06466477;stroke-miterlimit:4;stroke-opacity:1;stroke-dasharray:none" />
    <path
       transform="matrix(0.18763196,-0.04734788,0.0469668,0.18612178,771.74654,890.95742)"
       d="m 834.38602,11.905062 a 28.284271,34.345188 0 1 1 -56.56855,0 28.284271,34.345188 0 1 1 56.56855,0 z"
       sodipodi:ry="34.345188"
       sodipodi:rx="28.284271"
       sodipodi:cy="11.905062"
       sodipodi:cx="806.10175"
       id="path6895"
       style="fill:#ffffff;fill-opacity:1;stroke:#000000;stroke-width:2.43448114;stroke-miterlimit:4;stroke-opacity:1;stroke-dasharray:none"
       sodipodi:type="arc" />
    <path
       sodipodi:nodetypes="scccccs"
       inkscape:connector-curvature="0"
       id="path6897"
       d="m 932.5665,850.52686 c -0.16406,-0.006 -0.29044,-0.0907 -0.4905,-0.32799 -3.4208,-9.32886 -19.39742,-6.60467 -24.7725,-4.05865 -25.52564,13.8382 -1.83072,-29.06188 4.24513,-5.2119 -9.94962,-22.70665 19.88087,-22.34712 12.91027,-0.44081 6.26801,-29.64161 34.06232,-1.36739 8.93374,9.44579 -0.29415,0.6272 -0.27588,0.61408 -0.82614,0.59356 z"
       style="fill:#ff0000;fill-opacity:0.98557691;stroke:#000000;stroke-width:0.46194011;stroke-miterlimit:4;stroke-opacity:0.9807692;stroke-dasharray:none" />
    <path
       transform="matrix(0.21719887,-0.05480893,0.05461778,0.21644142,750.53071,895.27811)"
       d="m 816.20323,17.965977 a 17.172594,20.203051 0 1 1 -34.34518,0 17.172594,20.203051 0 1 1 34.34518,0 z"
       sodipodi:ry="20.203051"
       sodipodi:rx="17.172594"
       sodipodi:cy="17.965977"
       sodipodi:cx="799.03064"
       id="path6899"
       style="fill:#000000;fill-opacity:0.98557691;stroke:#000000;stroke-width:1;stroke-miterlimit:4;stroke-opacity:0.9807692;stroke-dasharray:none"
       sodipodi:type="arc" />
    <path
       sodipodi:nodetypes="cccccsssssssssssssssccsssscsccsssssscccccscc"
       inkscape:connector-curvature="0"
       id="path6901"
       d="m 893.58994,1009.0307 c -7.76824,2.5927 -16.69603,2.6382 -23.88339,1.6867 -9.94708,-1.8181 -17.69432,-2.8395 -25.38544,-9.3635 -7.9327,-6.35033 -11.57258,-13.7438 -14.07331,-21.39018 2.14482,1.73275 12.67522,0.0943 14.51002,-0.89783 1.6245,-0.92594 4.57907,-2.29888 6.13366,-2.66975 1.40974,-0.33628 5.95288,-0.71647 7.31426,-0.68816 1.10026,0.0229 1.68736,-0.10099 3.67406,0.61991 3.19036,1.15769 4.17714,1.36179 6.56536,1.73112 4.71326,0.7289 10.00351,0.5452 14.85008,-0.7127 2.31376,-0.60049 6.56667,-2.6295 8.72398,-3.98871 3.23351,-2.03725 5.35467,-4.3477 7.11712,-7.0656 2.29004,-3.5315 15.17381,-27.42854 14.96452,-31.20684 -0.11195,-2.01862 0.0969,-0.80643 -1.13408,-1.23377 -0.72506,-0.25171 -1.21949,-0.55212 -1.31944,-0.76706 -0.0819,-0.1761 -0.24754,-0.34683 -0.38345,-0.33746 -0.38086,0.0263 -0.61871,0.0578 -0.55012,0.20522 0.0339,0.0729 0.30296,-0.15066 0.47733,-0.23175 0.23587,-0.10966 0.28459,0.15216 0.47703,0.39255 0.14228,0.17769 0.71045,0.4929 1.26262,0.70047 l 1.00395,0.37738 c 0.23299,4.03791 -10.78505,24.40339 -12.3452,27.42043 -1.04713,3.79842 -5.72817,9.25405 -9.55582,11.59624 -2.02733,1.24055 -5.79427,3.15904 -8.12612,3.8478 -9.66631,2.85515 -19.94361,1.4743 -28.65089,-3.84949 -5.70933,-3.49079 -11.08493,-9.33737 -15.58303,-16.94829 -0.39053,-0.6608 -0.70331,-1.21098 -0.69505,-1.22262 0.008,-0.0117 0.20826,-0.34263 0.44446,-0.73553 0.81764,-1.36018 1.92611,-2.4787 3.45947,-3.49086 0.28356,-1.29498 -3.29737,2.74244 -3.72542,3.40547 -0.4501,0.7058 -0.4983,0.87677 -0.32134,1.13998 0.11451,0.17029 0.62614,0.7687 1.09483,1.47621 5.97066,9.01322 11.22413,14.31941 17.88258,18.11835 0.69448,0.39623 1.28252,0.6531 1.25668,0.66511 -0.0259,0.0119 -0.58895,0.026 -1.25134,0.0311 -1.26814,0.01 -5.36944,0.49404 -6.99267,0.82571 -1.41347,0.28881 -4.11561,1.49274 -5.99571,2.60267 -2.50215,1.73203 -11.6769,2.155 -13.84091,1.34989 -3.77454,-4.41565 -53.34974,-22.39252 -4.64942,-40.45491 11.74041,-0.57762 9.7955,-2.44339 29.1803,-6.33143 27.7151,-10.15123 77.99964,-90.85042 81.79461,-39.55004 3.81647,17.76907 1.07459,56.57256 -7.362,75.89479 -9.8786,22.62488 -19.68803,33.03968 -36.36269,39.04918 z"
       style="fill:#a05a2c;fill-opacity:1;stroke:#000000;stroke-width:0.46533182;stroke-miterlimit:4;stroke-opacity:0.9807692;stroke-dasharray:none" />
    <path
       sodipodi:nodetypes="sscs"
       inkscape:connector-curvature="0"
       id="path6903"
       d="m 825.93038,977.53283 c 0.81907,0.95313 4.16246,-2.99017 3.59647,-4.07468 -34.42421,-65.96147 -51.59967,18.42479 -36.62912,79.05725 -1.80773,-70.81181 10.10196,-101.66607 33.03265,-74.98257 z"
       style="fill:#ff0000;fill-opacity:1;stroke:#000000;stroke-width:0.42660782px;stroke-linecap:butt;stroke-linejoin:miter;stroke-opacity:1" />
    <path
       sodipodi:nodetypes="cccccccccsccscccc"
       inkscape:connector-curvature="0"
       id="path6905"
       d="m 926.07223,914.92263 c -3.17587,-1.58382 -4.42912,-12.23494 -6.40574,-15.20114 -1.99716,1.79103 -1.49926,8.59063 -8.80071,15.39717 -0.51951,-8.37058 -3.43305,-11.97627 -3.16582,-17.05066 -1.18982,1.67763 -8.29494,14.29452 -10.42886,14.63513 1.30377,-5.53832 1.73354,-11.70998 1.09025,-15.00763 l -7.6288,13.46799 c -3.22542,-7.4909 5.7072,-19.85016 6.79405,-28.09542 0.76372,-17.71157 -1.30464,-33.97761 14.21793,-38.4466 3.73929,-1.17839 8.25451,-1.73262 10.74228,-1.31859 2.46005,0.40944 5.35293,1.40862 6.64114,2.80449 -7.07972,-4.27521 -20.22587,5.67388 -12.21482,13.79251 1.43771,1.95365 5.07365,5.07331 11.93743,10.24242 9.45482,7.12043 9.14003,11.6509 12.37928,16.80624 2.94536,12.96336 -0.62425,20.80182 -2.4342,26.84304 -2.94538,-5.76303 -0.97588,-8.41641 -4.54968,-12.72139 -1.69505,5.05363 -6.04406,9.94527 -8.17373,13.85244 z"
       style="fill:#aa4400;fill-opacity:1;stroke:#000000;stroke-width:0.46981993;stroke-miterlimit:4;stroke-opacity:0.9807692;stroke-dasharray:none" />
    <path
       sodipodi:nodetypes="sscs"
       inkscape:connector-curvature="0"
       id="path6907"
       d="m 827.59621,968.63355 c 1.00109,0.80532 1.63249,-5.79679 1.19365,-6.85181 -28.40034,-68.27813 -68.28125,23.99027 -54.09598,80.42256 4.11434,-67.95499 20.6561,-99.51135 52.90233,-73.57075 z"
       style="fill:#d40000;fill-opacity:1;stroke:#000000;stroke-width:0.47857213px;stroke-linecap:butt;stroke-linejoin:miter;stroke-opacity:1" />
    <path
       sodipodi:nodetypes="sscs"
       inkscape:connector-curvature="0"
       id="path6909"
       d="m 827.39715,979.32346 c 0.75933,0.70879 2.19923,-1.34469 1.77272,-2.25418 -27.6025,-58.85935 -43.17285,15.40681 -26.40727,63.85142 -6.38632,-57.87322 0.17568,-84.42822 24.63455,-61.59724 z"
       style="fill:#aa4400;fill-opacity:1;stroke:#000000;stroke-width:0.35573176px;stroke-linecap:butt;stroke-linejoin:miter;stroke-opacity:1" />
    <path
       sodipodi:nodetypes="sscs"
       inkscape:connector-curvature="0"
       id="path6911"
       d="m 826.00096,970.67612 c 0.82007,0.91986 3.06931,-1.24994 2.71316,-2.35572 -23.04909,-71.56308 -58.00775,11.87564 -46.60139,69.9663 3.70898,-67.54067 17.47281,-97.24014 43.88823,-67.61058 z"
       style="fill:#008000;fill-opacity:1;stroke:#000000;stroke-width:0.43447202px;stroke-linecap:butt;stroke-linejoin:miter;stroke-opacity:1" />
    <path
       sodipodi:nodetypes="sscs"
       inkscape:connector-curvature="0"
       id="path6913"
       d="m 823.67111,960.51854 c 0.88797,1.12159 4.39739,0.23029 4.11877,-1.08721 -16.07914,-76.03187 -73.29574,-2.43787 -68.45074,68.98787 19.89252,-63.36885 41.55318,-96.67236 64.33197,-67.90066 z"
       style="fill:#008000;fill-opacity:1;stroke:#000000;stroke-width:0.50453943px;stroke-linecap:butt;stroke-linejoin:miter;stroke-opacity:1" />
    <path
       sodipodi:nodetypes="sscs"
       inkscape:connector-curvature="0"
       id="path6915"
       d="m 826.51283,957.00437 c 0.74717,1.21989 2.74179,-0.52017 2.56445,-1.85508 -11.47688,-86.39144 -66.2933,2.69733 -65.33841,71.29891 18.31869,-76.2157 38.70608,-108.738 62.77396,-69.44383 z"
       style="fill:#ff0000;fill-opacity:1;stroke:#000000;stroke-width:0.50453943px;stroke-linecap:butt;stroke-linejoin:miter;stroke-opacity:1" />
    <path
       sodipodi:nodetypes="sscs"
       inkscape:connector-curvature="0"
       id="path6917"
       d="m 826.74123,954.99335 c 0.82299,1.34453 3.92212,1.20326 3.71331,-0.2662 -13.5057,-95.04128 -78.06121,-4.66315 -74.59365,70.45265 20.17682,-84.00299 44.37071,-113.49555 70.88034,-70.18645 z"
       style="fill:#803300;fill-opacity:1;stroke:#000000;stroke-width:0.55590689px;stroke-linecap:butt;stroke-linejoin:miter;stroke-opacity:1" />
  </g>
  <g
     style="display:inline"
     transform="translate(0,-802.36212)"
     id="g6919"
     inkscape:groupmode="layer"
     inkscape:label="rooster5">
    <path
       sodipodi:nodetypes="ccssccc"
       inkscape:connector-curvature="0"
       id="path6921"
       d="m 1071.8116,947.66945 c -1.7002,0.46108 -3.4431,1.43689 -5.287,3.62876 4.5693,13.75836 10.9943,21.37482 19.171,26.06205 18.6541,10.6933 42.2027,1.7921 43.5524,-15.18813 0.1,-1.25069 -1.9348,-0.85444 -2.1003,-2.23542 l -0.3684,-0.15678 -0.459,0.14554"
       style="fill:none;stroke:#000000;stroke-width:0.10233498px;stroke-linecap:butt;stroke-linejoin:miter;stroke-opacity:1" />
    <path
       inkscape:connector-curvature="0"
       id="path6923"
       d="m 1144.362,1033.0318 c -1.1458,-1.1255 -2.7564,-2.4311 -4.2509,-3.4459 -5.6582,-3.8421 -12.4901,-5.0819 -20.0204,-3.6329 -0.9384,0.1805 -1.7308,0.2973 -1.761,0.2595 -0.09,-0.1128 1.5185,-1.0172 2.8438,-1.5985 1.1342,-0.4975 4.1146,-1.2632 4.675,-1.201 0.311,0.035 0.4384,-1.035 0.2652,-2.2267 -0.068,-0.4735 -0.1115,-0.9831 -0.095,-1.1324 0.016,-0.1492 -0.024,-0.2995 -0.092,-0.3339 -0.1541,-0.079 -0.8688,-1.9913 -0.773,-2.068 0.039,-0.031 0.5101,0.5352 1.0467,1.2588 0.5366,0.7235 1.025,1.2759 1.0855,1.2275 0.061,-0.048 -0.068,-0.3219 -0.2848,-0.6077 -0.2172,-0.2858 -2.3052,-3.0138 -4.6401,-6.0623 -2.3349,-3.0483 -4.2218,-5.5613 -4.1931,-5.5842 0.028,-0.023 0.6208,0.1225 1.3157,0.3233 2.4974,0.7216 3.4245,0.9124 5.6516,1.163 1.2437,0.14 3.0898,0.2453 4.1023,0.2342 1.0124,-0.011 1.9934,0 2.1799,0.015 l 0.3391,0.034 -0.3698,0.4725 c -0.5366,0.6855 -1.5,2.2418 -1.7901,2.8915 -0.1377,0.3083 -0.3032,0.6209 -0.3679,0.6946 -0.065,0.074 -0.1588,0.3942 -0.2089,0.7123 -0.05,0.318 -0.1447,0.7437 -0.2102,0.9461 -0.065,0.2024 -0.097,0.8213 -0.071,1.3753 0.1183,2.4716 1.6787,4.543 4.815,6.3922 1.821,1.0738 2.1801,1.1587 6.7281,1.5916 8.13,0.7739 10.0941,1.0261 11.0943,1.4248 1.497,0.5967 4.0419,2.1881 3.8039,2.3787 -0.034,0.027 -1.0559,-0.171 -2.2707,-0.4407 -3.7748,-0.8381 -10.3184,-1.4645 -12.1082,-1.1591 -0.2041,0.035 0.068,0.3609 1.1035,1.3211 0.7561,0.7012 1.6758,1.6571 2.044,2.1243 0.7063,0.8964 1.4223,2.6444 1.2873,3.1434 -0.07,0.2608 -0.1612,0.2099 -0.8745,-0.4908 l 0,0 z"
       style="fill:#ff7f2a;fill-opacity:0.98557691;stroke:#000000;stroke-width:0.46347514;stroke-miterlimit:4;stroke-opacity:0.9807692;stroke-dasharray:none" />
    <path
       inkscape:connector-curvature="0"
       id="path6925"
       d="m 1129.5818,1019.0611 c -0.5848,-1.1557 -0.7684,-2.7915 -0.4485,-3.997 l 0.1675,-0.6315 0.648,0.4098 c 0.9631,0.6091 2.0606,0.8579 6.8462,1.5515 7.224,1.0472 9.3594,1.5648 11.0752,2.6839 0.763,0.4979 1.6259,1.4918 1.5883,1.83 -0.012,0.1053 -0.3136,0.095 -0.9158,-0.032 -6.2429,-1.3134 -13.6005,-1.962 -17.8554,-1.574 -0.8992,0.082 -0.9474,0.072 -1.1055,-0.2408 z"
       style="fill:#ff7f2a;fill-opacity:0.98557691;stroke:#000000;stroke-width:0.46347514;stroke-miterlimit:4;stroke-opacity:0.9807692;stroke-dasharray:none" />
    <path
       inkscape:connector-curvature="0"
       id="path6927"
       d="m 1134.2678,1015.814 c -1.002,-0.1685 -2.2563,-0.4393 -2.7871,-0.6018 -0.9002,-0.2755 -0.9403,-0.305 -0.5961,-0.4368 0.896,-0.343 4.5929,-1.0858 6.1537,-1.2364 1.7645,-0.1701 2.6122,-0.1323 3.9251,0.1751 l 0.7624,0.1787 -1.0547,0.4671 c -0.58,0.2569 -1.7116,0.7215 -2.5148,1.0326 -0.803,0.311 -1.5289,0.6196 -1.6132,0.686 -0.084,0.067 -0.2206,0.1028 -0.3032,0.081 -0.083,-0.021 -0.9699,-0.1773 -1.9721,-0.3458 l 0,0 z"
       style="fill:#ff7f2a;fill-opacity:0.98557691;stroke:#000000;stroke-width:0.46347514;stroke-miterlimit:4;stroke-opacity:0.9807692;stroke-dasharray:none" />
    <path
       inkscape:connector-curvature="0"
       id="path6929"
       d="m 1111.6801,1022.0181 c 0.016,-0.1452 1.1787,-1.0312 2.0085,-1.5307 0.3468,-0.2088 1.7728,-0.8315 3.169,-1.384 2.8481,-1.127 3.2183,-1.3042 4.0905,-1.9571 0.7858,-0.5882 1.1168,-1.0772 1.4301,-2.1121 l 0.2519,-0.8318 1.0611,1.4555 c 0.5837,0.8006 1.0222,1.4513 0.9746,1.4461 -0.048,-8e-4 0.1426,0.6086 0.4227,1.3644 l 0.5091,1.3739 -0.479,0.024 c -5.4154,0.2762 -8.9689,0.8216 -12.0652,1.8517 -1.4055,0.4677 -1.3916,0.4646 -1.3733,0.2997 z"
       style="fill:#ff7f2a;fill-opacity:0.98557691;stroke:#000000;stroke-width:0.46347514;stroke-miterlimit:4;stroke-opacity:0.9807692;stroke-dasharray:none" />
    <path
       sodipodi:nodetypes="csssccscc"
       inkscape:connector-curvature="0"
       id="path6931"
       d="m 1184.7733,860.23295 c 0.097,-0.65388 -0.1127,-3.78106 -0.4109,-6.12076 -0.2006,-1.57323 -0.1552,-1.98626 0.2272,-2.0671 1.2515,-0.2646 4.8188,-0.0958 6.6676,0.31558 1.9639,0.43696 6.5428,1.56154 6.6409,2.00281 0.025,0.11455 -2.5542,0.70837 -3.7396,1.15931 -1.1855,0.45092 -3.748,1.7894 -5.6947,2.97436 -1.9465,1.18495 -3.5889,2.16551 -3.6496,2.17902 -0.061,0.0137 -0.079,-0.18586 -0.041,-0.44322 z"
       style="fill:#ff7f2a;fill-opacity:0.98557691;stroke:#000000;stroke-width:0.29237106;stroke-miterlimit:4;stroke-opacity:0.9807692;stroke-dasharray:none" />
    <path
       sodipodi:nodetypes="csssccsscc"
       inkscape:connector-curvature="0"
       id="path6933"
       d="m 1182.3248,871.07558 c -0.9788,-0.55857 -1.7843,-1.03704 -1.7902,-1.06327 -0.01,-0.0265 0.1497,-0.19828 0.3456,-0.38232 1.6321,-1.53327 2.7771,-3.56386 3.3266,-5.8997 l 0.1843,-0.72415 c 2.1325,1.85058 4.5721,1.13481 6.5517,0.37255 0.047,7.04645 7.6596,10.32886 6.6305,15.86542 -1.1786,6.34111 -3.9683,-2.04473 -3.3431,-1.13884 0.3755,0.54403 0.4456,6.77032 -2.5175,4.07048 -5.2082,-5.53619 -4.1628,-6.34049 -9.3879,-11.10017 z"
       style="fill:#ff0000;fill-opacity:0.98557691;stroke:#000000;stroke-width:0.25727016;stroke-miterlimit:4;stroke-opacity:0.9807692;stroke-dasharray:none" />
    <path
       sodipodi:nodetypes="cscc"
       inkscape:connector-curvature="0"
       id="path6935"
       d="m 1184.7952,860.70514 c 0.032,-0.0805 2.614,0.50373 3.4502,0.31784 1.2525,-0.27842 4.3347,-1.41241 6.6829,-2.60347 -3.9409,9.47627 -12.4449,8.1959 -10.1331,2.28563 z"
       style="fill:#ff7f2a;fill-opacity:0.98557691;stroke:#000000;stroke-width:0.2923857;stroke-miterlimit:4;stroke-opacity:0.9807692;stroke-dasharray:none" />
    <path
       sodipodi:nodetypes="cssscsccsccccc"
       inkscape:connector-curvature="0"
       id="path6937"
       d="m 1171.275,863.31961 c -0.1712,-0.15204 -0.5761,-0.48888 -0.8996,-0.74853 -2.8196,-2.26283 -3.5227,-5.22927 -2.0298,-8.5641 0.3586,-0.80107 1.1819,-2.06693 1.8332,-2.81881 1.9721,-2.27655 4.7502,-4.01884 7.3404,-4.60358 1.1563,-0.26127 1.6979,-0.28076 2.4816,-0.0904 2.9855,0.72549 5.1113,2.12082 6.0467,3.96895 0.2181,0.43087 0.2218,0.45077 0.1298,0.69799 -0.1264,0.33943 -0.1203,0.772 0.032,2.30324 0.353,3.54022 0.426,6.37192 0.1781,6.90356 -0.3757,1.541 -0.6248,3.19335 -1.1798,4.51893 -0.6701,1.57855 -1.5809,2.8973 -2.8505,4.12688 -0.3786,0.36665 -2.7429,1.2992 -2.0215,1.05579 -2.79,-2.2562 -6.4069,-4.50328 -9.061,-6.74998 z"
       style="fill:#d38d5f;fill-opacity:1;stroke:#000000;stroke-width:0.06466477;stroke-miterlimit:4;stroke-opacity:1;stroke-dasharray:none" />
    <path
       transform="matrix(0.18890209,-0.04199496,0.04165696,0.18738168,1024.9096,888.04277)"
       d="m 834.38602,11.905062 a 28.284271,34.345188 0 1 1 -56.56855,0 28.284271,34.345188 0 1 1 56.56855,0 z"
       sodipodi:ry="34.345188"
       sodipodi:rx="28.284271"
       sodipodi:cy="11.905062"
       sodipodi:cx="806.10175"
       id="path6939"
       style="fill:#ffffff;fill-opacity:1;stroke:#000000;stroke-width:2.43448114;stroke-miterlimit:4;stroke-opacity:1;stroke-dasharray:none"
       sodipodi:type="arc" />
    <path
       sodipodi:nodetypes="scccccs"
       inkscape:connector-curvature="0"
       id="path6941"
       d="m 1186.814,852.20016 c -0.1639,-0.0106 -0.2878,-0.0989 -0.481,-0.34181 -3.1542,-9.42233 -19.2019,-7.15341 -24.6471,-4.76122 -25.9087,13.10701 -1.0039,-29.10217 4.3915,-5.08911 -9.3001,-22.98031 20.5081,-21.77294 12.9176,-0.0736 7.1081,-29.45145 34.0874,-0.39856 8.6616,9.69593 -0.3119,0.61859 -0.2932,0.60599 -0.8426,0.56984 z"
       style="fill:#ff0000;fill-opacity:0.98557691;stroke:#000000;stroke-width:0.46194011;stroke-miterlimit:4;stroke-opacity:0.9807692;stroke-dasharray:none" />
    <path
       transform="matrix(0.21866914,-0.04861249,0.04844296,0.21790656,1003.5796,891.75861)"
       d="m 816.20323,17.965977 a 17.172594,20.203051 0 1 1 -34.34518,0 17.172594,20.203051 0 1 1 34.34518,0 z"
       sodipodi:ry="20.203051"
       sodipodi:rx="17.172594"
       sodipodi:cy="17.965977"
       sodipodi:cx="799.03064"
       id="path6943"
       style="fill:#000000;fill-opacity:0.98557691;stroke:#000000;stroke-width:1;stroke-miterlimit:4;stroke-opacity:0.9807692;stroke-dasharray:none"
       sodipodi:type="arc" />
    <path
       sodipodi:nodetypes="cccccsssssssssssssssccsssscsccsssssscccccscc"
       inkscape:connector-curvature="0"
       id="path6945"
       d="m 1143.3474,1009.5319 c -7.8388,2.3708 -16.7643,2.1625 -23.9217,1.0072 -9.8914,-2.1002 -17.6065,-3.3414 -25.109,-10.0814 -7.749,-6.57327 -11.1773,-14.06722 -13.4596,-21.7816 2.0947,1.79303 12.6675,0.45457 14.5297,-0.48498 1.6502,-0.87939 4.6425,-2.16779 6.2071,-2.49431 1.4187,-0.29607 5.9708,-0.54697 7.3308,-0.47997 1.0992,0.0542 1.6896,-0.053 3.655,0.7241 3.1562,1.24791 4.1367,1.47999 6.5135,1.91706 4.6906,0.86259 9.984,0.82935 14.8643,-0.29027 2.33,-0.53448 6.6388,-2.44178 8.8338,-3.73911 3.2902,-1.94451 5.4762,-4.19372 7.3152,-6.86042 2.3895,-3.46498 15.9473,-26.98611 15.8455,-30.76884 -0.055,-2.02099 0.1198,-0.80335 -1.0985,-1.26551 -0.7176,-0.27222 -1.2033,-0.58656 -1.2971,-0.80425 -0.077,-0.17837 -0.2376,-0.35374 -0.3737,-0.34823 -0.3814,0.0154 -0.6202,0.0402 -0.5557,0.1895 0.032,0.0738 0.3071,-0.14199 0.4837,-0.21808 0.2389,-0.10291 0.2801,0.16018 0.4656,0.40594 0.1373,0.18167 0.6962,0.5129 1.2423,0.73608 l 0.9928,0.40577 c 0.1181,4.0429 -11.4744,24.08694 -13.1197,27.05841 -1.1547,3.76712 -5.989,9.08748 -9.8816,11.31991 -2.0618,1.18242 -5.8817,2.99305 -8.2322,3.61525 -9.7436,2.57921 -19.9775,0.90677 -28.5299,-4.66239 -5.6078,-3.65167 -10.815,-9.6487 -15.095,-17.38442 -0.3715,-0.67163 -0.6685,-1.23048 -0.6599,-1.24188 0.01,-0.0114 0.2178,-0.33658 0.4651,-0.7226 0.856,-1.33639 1.9958,-2.42295 3.5574,-3.3911 0.3201,-1.2864 -3.3741,2.64759 -3.8208,3.29819 -0.47,0.69271 -0.523,0.86224 -0.3536,1.13038 0.1096,0.17348 0.6041,0.78618 1.0524,1.50673 5.712,9.17931 10.8126,14.6327 17.3603,18.61938 0.6829,0.41581 1.2634,0.68929 1.2373,0.70057 -0.026,0.0112 -0.5895,0.009 -1.2517,-0.004 -1.268,-0.0261 -5.3813,0.34121 -7.0134,0.6266 -1.4211,0.24851 -4.1563,1.37514 -6.0672,2.43117 -2.5504,1.66021 -11.7335,1.8222 -13.8737,0.9559 -3.6475,-4.52117 -52.6916,-23.90004 -3.4975,-40.57074 11.752,-0.24364 9.861,-2.16394 29.3485,-5.49936 27.9924,-9.35928 80.5507,-88.59642 82.8858,-37.20889 3.3098,17.87038 -0.534,56.58024 -9.5165,75.65484 -10.5178,22.33492 -20.6192,32.46657 -37.458,37.99967 z"
       style="fill:#a05a2c;fill-opacity:1;stroke:#000000;stroke-width:0.46533182;stroke-miterlimit:4;stroke-opacity:0.9807692;stroke-dasharray:none" />
    <path
       sodipodi:nodetypes="sscs"
       inkscape:connector-curvature="0"
       id="path6947"
       d="m 1076.6106,976.12347 c 0.7916,0.97603 4.2457,-2.87064 3.7108,-3.9708 -32.5352,-66.91338 -52.1025,16.95053 -38.8616,77.98403 0.2059,-70.83456 12.9879,-101.3378 35.1508,-74.01323 z"
       style="fill:#ff0000;fill-opacity:1;stroke:#000000;stroke-width:0.42660782px;stroke-linecap:butt;stroke-linejoin:miter;stroke-opacity:1" />
    <path
       sodipodi:nodetypes="cccccccccsccscccc"
       inkscape:connector-curvature="0"
       id="path6949"
       d="m 1178.4917,916.38529 c -3.1295,-1.67346 -4.0795,-12.3559 -5.971,-15.3771 -2.0472,1.73354 -1.7428,8.54455 -9.2349,15.14078 -0.2813,-8.38197 -3.0912,-12.06903 -2.6798,-17.13377 -1.237,1.64314 -8.6979,14.05295 -10.8407,14.33276 1.4607,-5.49902 2.0658,-11.65597 1.5164,-14.97058 l -8.0085,13.24569 c -3.0112,-7.57956 6.2691,-19.6799 7.5899,-27.89094 1.267,-17.68269 -0.3381,-34.00096 15.3051,-38.02688 3.7713,-1.07162 8.3005,-1.49727 10.7755,-1.01269 2.4474,0.4792 5.3107,1.56021 6.5587,2.99214 -6.9553,-4.47474 -20.379,5.09663 -12.6019,13.43971 1.3815,1.99373 4.9273,5.21549 11.6414,10.57762 9.2486,7.38632 8.8051,11.90601 11.8965,17.15135 2.5757,13.04185 -1.2153,20.77567 -3.1963,26.763 -2.7804,-5.84443 -0.7362,-8.44075 -4.1861,-12.84558 -1.8381,5.0034 -6.3244,9.76944 -8.5643,13.61449 z"
       style="fill:#aa4400;fill-opacity:1;stroke:#000000;stroke-width:0.46981993;stroke-miterlimit:4;stroke-opacity:0.9807692;stroke-dasharray:none" />
    <path
       sodipodi:nodetypes="sscs"
       inkscape:connector-curvature="0"
       id="path6951"
       d="m 1078.5287,967.27514 c 0.9778,0.83345 1.7966,-5.74804 1.3879,-6.81511 -26.4479,-69.05787 -68.9356,22.03955 -56.3603,78.85227 6.0445,-67.81057 23.4766,-98.88394 54.9724,-72.03716 z"
       style="fill:#d40000;fill-opacity:1;stroke:#000000;stroke-width:0.47857213px;stroke-linecap:butt;stroke-linejoin:miter;stroke-opacity:1" />
    <path
       sodipodi:nodetypes="sscs"
       inkscape:connector-curvature="0"
       id="path6953"
       d="m 1078.0258,977.95507 c 0.7389,0.73009 2.2366,-1.28163 1.8361,-2.20287 -25.9182,-59.62022 -43.5934,14.17331 -28.2117,63.075 -4.7385,-58.03144 2.5757,-84.38917 26.3756,-60.87213 z"
       style="fill:#aa4400;fill-opacity:1;stroke:#000000;stroke-width:0.35573176px;stroke-linecap:butt;stroke-linejoin:miter;stroke-opacity:1" />
    <path
       sodipodi:nodetypes="sscs"
       inkscape:connector-curvature="0"
       id="path6955"
       d="m 1076.876,969.27154 c 0.7936,0.94279 3.1036,-1.16219 2.7791,-2.27765 -21.0055,-72.18937 -58.3219,10.22187 -48.5715,68.61331 5.6274,-67.40795 20.23,-96.70416 45.7924,-66.33566 z"
       style="fill:#008000;fill-opacity:1;stroke:#000000;stroke-width:0.43447202px;stroke-linecap:butt;stroke-linejoin:miter;stroke-opacity:1" />
    <path
       sodipodi:nodetypes="sscs"
       inkscape:connector-curvature="0"
       id="path6957"
       d="m 1074.8358,959.05183 c 0.8557,1.14637 4.3891,0.3552 4.148,-0.96969 -13.9112,-76.45822 -73.1968,-4.52045 -70.3841,67.01416 21.6859,-62.77776 44.2844,-95.45207 66.2361,-66.04447 z"
       style="fill:#008000;fill-opacity:1;stroke:#000000;stroke-width:0.50453943px;stroke-linecap:butt;stroke-linejoin:miter;stroke-opacity:1" />
    <path
       sodipodi:nodetypes="sscs"
       inkscape:connector-curvature="0"
       id="path6959"
       d="m 1077.7763,955.61986 c 0.7122,1.24064 2.7555,-0.44202 2.6162,-1.78143 -9.0165,-86.68278 -66.3433,0.81173 -67.3389,69.41277 20.4779,-75.6642 41.7816,-107.5938 64.7227,-67.63134 z"
       style="fill:#ff0000;fill-opacity:1;stroke:#000000;stroke-width:0.50453943px;stroke-linecap:butt;stroke-linejoin:miter;stroke-opacity:1" />
    <path
       sodipodi:nodetypes="sscs"
       inkscape:connector-curvature="0"
       id="path6961"
       d="m 1078.0618,953.61615 c 0.7844,1.36738 3.8863,1.31426 3.7193,-0.16054 -10.7985,-95.3868 -77.8971,-6.8803 -76.5662,68.30369 22.5567,-83.39545 47.5791,-112.18834 72.8469,-68.14315 z"
       style="fill:#803300;fill-opacity:1;stroke:#000000;stroke-width:0.55590689px;stroke-linecap:butt;stroke-linejoin:miter;stroke-opacity:1" />
  </g>
</svg>
