<?xml version="1.0" encoding="UTF-8" standalone="no"?>
<!-- Created with Inkscape (http://www.inkscape.org/) -->

<svg
   xmlns:dc="http://purl.org/dc/elements/1.1/"
   xmlns:cc="http://creativecommons.org/ns#"
   xmlns:rdf="http://www.w3.org/1999/02/22-rdf-syntax-ns#"
   xmlns:svg="http://www.w3.org/2000/svg"
   xmlns="http://www.w3.org/2000/svg"
   xmlns:sodipodi="http://sodipodi.sourceforge.net/DTD/sodipodi-0.dtd"
   xmlns:inkscape="http://www.inkscape.org/namespaces/inkscape"
   width="450"
   height="500"
   id="svg2"
   version="1.1"
   inkscape:version="0.48.4 r9939"
   sodipodi:docname="rooster.svg">
  <defs
     id="defs4" />
  <sodipodi:namedview
     id="base"
     pagecolor="#ffffff"
     bordercolor="#666666"
     borderopacity="1.0"
     inkscape:pageopacity="0.0"
     inkscape:pageshadow="2"
     inkscape:zoom="1.4"
     inkscape:cx="379.45926"
     inkscape:cy="231.49251"
     inkscape:document-units="px"
     inkscape:current-layer="layer1"
     showgrid="false"
     showborder="false"
     inkscape:window-width="1920"
     inkscape:window-height="1030"
     inkscape:window-x="0"
     inkscape:window-y="0"
     inkscape:window-maximized="1" />
  <metadata
     id="metadata7">
    <rdf:RDF>
      <cc:Work
         rdf:about="">
        <dc:format>image/svg+xml</dc:format>
        <dc:type
           rdf:resource="http://purl.org/dc/dcmitype/StillImage" />
        <dc:title></dc:title>
      </cc:Work>
    </rdf:RDF>
  </metadata>
  <g
     inkscape:label="Layer 1"
     inkscape:groupmode="layer"
     id="layer1"
     transform="translate(0,-552.36212)">
    <path
       style="fill:none;stroke:#000000;stroke-width:0.2px;stroke-linecap:butt;stroke-linejoin:miter;stroke-opacity:1"
       d="m 176.23853,840.66916 c -3.30816,0.95375 -6.6838,2.91466 -10.21889,7.25503 9.3557,26.74374 22.14716,41.42791 38.27088,50.33366 36.78411,20.31734 82.5246,2.19283 84.63523,-31.03044 0.15547,-2.4471 -3.80722,-1.60967 -4.17344,-4.30314 l -0.72479,-0.29493 -0.89222,0.29865"
       id="path3070"
       inkscape:connector-curvature="0"
       sodipodi:nodetypes="ccssccc" />
    <path
       style="fill:#ff7f2a;fill-opacity:0.98557691;stroke:#000000;stroke-width:0.90579998;stroke-miterlimit:4;stroke-opacity:0.9807692;stroke-dasharray:none"
       d="m 320.6586,1005.227 c -2.27384,-2.1638 -5.46177,-4.6653 -8.4136,-6.60189 -11.17617,-7.33243 -24.56481,-9.54305 -39.23498,-6.47809 -1.82798,0.38188 -3.3729,0.6347 -3.43318,0.56177 -0.17993,-0.21766 2.93584,-2.0347 5.5075,-3.21181 2.20091,-1.00742 8.00122,-2.59608 9.09821,-2.49191 0.60879,0.0578 0.8246,-2.03615 0.44932,-4.35953 -0.14912,-0.92319 -0.24842,-1.91763 -0.22067,-2.20983 0.0277,-0.29222 -0.0575,-0.5846 -0.18944,-0.64975 -0.30341,-0.14983 -1.75945,-3.86436 -1.57463,-4.01711 0.0754,-0.0623 1.01338,1.02993 2.08435,2.42725 1.07098,1.39731 2.04275,2.46164 2.15947,2.36514 0.1167,-0.0965 -0.1422,-0.62688 -0.57543,-1.17867 -0.43322,-0.55178 -4.59815,-5.81784 -9.25542,-11.70236 -4.65724,-5.88452 -8.42243,-10.73655 -8.36707,-10.78232 0.0553,-0.0458 1.21688,0.22019 2.58113,0.59104 4.90242,1.33256 6.72014,1.67659 11.07992,2.09713 2.43473,0.23521 6.04535,0.38361 8.02351,0.33059 1.97814,-0.053 3.89532,-0.0705 4.26036,-0.039 l 0.66374,0.057 -0.70806,0.9348 c -1.02726,1.35622 -2.8616,4.42715 -3.40824,5.70581 -0.25944,0.60677 -0.57329,1.22272 -0.69753,1.36878 -0.12423,0.14605 -0.29795,0.77529 -0.38601,1.39833 -0.0881,0.62304 -0.25968,1.458 -0.38139,1.85545 -0.12171,0.39745 -0.16482,1.60777 -0.0958,2.68958 0.30803,4.82602 3.42135,8.82544 9.60749,12.3419 3.59164,2.04166 4.29607,2.19652 13.1968,2.90138 15.91115,1.26003 19.75691,1.69198 21.72377,2.44006 2.94374,1.11963 7.96641,4.15053 7.50713,4.53016 -0.0659,0.0544 -2.06883,-0.30138 -4.45099,-0.79073 -7.40227,-1.52057 -20.20874,-2.54156 -23.69686,-1.88923 -0.39765,0.0744 0.1447,0.703 2.19761,2.54734 1.49906,1.34676 3.32604,3.18622 4.05996,4.08772 1.40815,1.7297 2.86129,5.1233 2.61306,6.1024 -0.12973,0.512 -0.30858,0.4153 -1.72409,-0.9317 l 0,0 z"
       id="path3854"
       inkscape:connector-curvature="0" />
    <path
       style="fill:#ff7f2a;fill-opacity:0.98557691;stroke:#000000;stroke-width:0.90579998;stroke-miterlimit:4;stroke-opacity:0.9807692;stroke-dasharray:none"
       d="m 291.34293,978.38498 c -1.17868,-2.24017 -1.58811,-5.43102 -1.00038,-7.7966 l 0.30789,-1.2392 1.27888,0.78069 c 1.90079,1.16034 4.05315,1.61232 13.42626,2.81947 14.14926,1.82227 18.33802,2.76725 21.72549,4.90118 1.50674,0.94917 3.22354,2.86472 3.16069,3.52656 -0.0196,0.2062 -0.61007,0.19507 -1.79054,-0.0338 -12.24023,-2.37299 -26.638,-3.41219 -34.94035,-2.52196 -1.75468,0.18815 -1.84937,0.16907 -2.16794,-0.43637 z"
       id="path3856"
       inkscape:connector-curvature="0" />
    <path
       style="fill:#ff7f2a;fill-opacity:0.98557691;stroke:#000000;stroke-width:0.90579998;stroke-miterlimit:4;stroke-opacity:0.9807692;stroke-dasharray:none"
       d="m 300.39933,971.8945 c -1.96344,-0.29824 -4.42274,-0.78855 -5.46509,-1.0896 -1.76769,-0.51051 -1.84697,-0.5667 -1.17832,-0.835 1.74012,-0.69817 8.94128,-2.26434 11.98661,-2.60692 3.44278,-0.38729 5.10058,-0.33968 7.67564,0.22047 l 1.49521,0.32526 -2.04637,0.94554 c -1.12551,0.52005 -3.32246,1.46317 -4.88211,2.09583 -1.55964,0.63266 -2.96866,1.2584 -3.13118,1.39053 -0.1625,0.13215 -0.42799,0.20784 -0.58996,0.16818 -0.16198,-0.0397 -1.90097,-0.31607 -3.86443,-0.61429 l 0,0 z"
       id="path3858"
       inkscape:connector-curvature="0" />
    <path
       style="fill:#ff7f2a;fill-opacity:0.98557691;stroke:#000000;stroke-width:0.90579998;stroke-miterlimit:4;stroke-opacity:0.9807692;stroke-dasharray:none"
       d="m 256.45259,984.71871 c 0.027,-0.28417 2.27145,-2.05166 3.87745,-3.05344 0.67114,-0.41864 3.43848,-1.67993 6.14963,-2.80287 5.53061,-2.29074 6.24861,-2.64839 7.93259,-3.95131 1.51718,-1.17389 2.14895,-2.13958 2.7291,-4.17164 l 0.46631,-1.63329 2.11875,2.81149 c 1.16532,1.54632 2.04254,2.80426 1.94937,2.79542 -0.0932,-0.009 0.29754,1.18502 0.86822,2.65304 l 1.03758,2.66916 -0.93535,0.0625 c -10.57362,0.7076 -17.50082,1.88359 -23.51939,3.9927 -2.73211,0.95741 -2.70491,0.95104 -2.67426,0.62816 z"
       id="path3860"
       inkscape:connector-curvature="0" />
    <path
       style="fill:#ff7f2a;fill-opacity:0.98557691;stroke:#000000;stroke-width:0.57140005;stroke-miterlimit:4;stroke-opacity:0.9807692;stroke-dasharray:none"
       d="m 394.26665,666.30359 c 0.16976,-1.28077 -0.3375,-7.38514 -0.99281,-11.94793 -0.44064,-3.06807 -0.36471,-3.87658 0.38,-4.04642 2.43739,-0.55589 9.41348,-0.33665 13.03886,0.40984 3.85134,0.79296 12.83404,2.84848 13.03942,3.70774 0.0529,0.22305 -4.9691,1.46347 -7.27167,2.38143 -2.30257,0.91792 -7.26867,3.61296 -11.03579,5.98889 -3.76713,2.37594 -6.94611,4.34302 -7.0644,4.37129 -0.11816,0.0287 -0.16083,-0.36072 -0.0936,-0.86484 z"
       id="path3864"
       inkscape:connector-curvature="0"
       sodipodi:nodetypes="csssccscc" />
    <path
       style="fill:#ff0000;fill-opacity:0.98557691;stroke:#000000;stroke-width:0.50279999;stroke-miterlimit:4;stroke-opacity:0.9807692;stroke-dasharray:none"
       d="m 389.81845,687.56735 c -1.92993,-1.06114 -3.51896,-1.97115 -3.53117,-2.02223 -0.0111,-0.0514 0.28634,-0.39209 0.66344,-0.75781 3.14172,-3.04682 5.3161,-7.05036 6.31744,-11.63192 l 0.33781,-1.42079 c 4.22452,3.55011 8.96962,2.07571 12.8143,0.52477 0.31022,13.76815 15.28815,19.94622 13.44901,30.79724 -2.10637,12.42783 -7.81797,-3.87255 -6.56817,-2.12174 0.75061,1.05147 1.08074,13.21621 -4.79335,8.03232 -10.34914,-10.65681 -8.33124,-12.26096 -18.68931,-21.39984 z"
       id="path3866"
       inkscape:connector-curvature="0"
       sodipodi:nodetypes="csssccsscc" />
    <path
       style="fill:#ff7f2a;fill-opacity:0.98557691;stroke:#000000;stroke-width:0.5714286;stroke-miterlimit:4;stroke-opacity:0.9807692;stroke-dasharray:none"
       d="m 394.32424,667.22563 c 0.0611,-0.1583 5.1238,0.90327 6.75199,0.51408 2.43876,-0.58291 8.42652,-2.89448 12.97824,-5.29482 -7.40675,18.64002 -24.06456,16.40182 -19.73023,4.78074 z"
       id="path3862"
       inkscape:connector-curvature="0"
       sodipodi:nodetypes="cscc" />
    <path
       style="fill:#d38d5f;fill-opacity:1;stroke:#000000;stroke-width:0.12637863;stroke-miterlimit:4;stroke-opacity:1;stroke-dasharray:none"
       d="m 367.98525,672.75404 c -0.33941,-0.2918 -1.14099,-0.93747 -1.78129,-1.43483 -5.5799,-4.33436 -7.04576,-10.10933 -4.23194,-16.6723 0.67591,-1.57651 2.24534,-4.07568 3.49482,-5.56517 3.78307,-4.50981 9.15775,-8.00065 14.20115,-9.22365 2.25147,-0.54642 3.30908,-0.60129 4.8464,-0.25352 5.85674,1.32508 10.05414,3.98578 11.93926,7.56823 0.43948,0.83519 0.44733,0.87396 0.27511,1.35992 -0.23639,0.6672 -0.21106,1.51231 0.13486,4.49981 0.79969,6.90707 1.03029,12.43827 0.5622,13.48485 -0.68618,3.02296 -1.12193,6.25956 -2.16531,8.86713 -1.26034,3.10546 -2.99933,5.7107 -5.44206,8.15283 -0.72838,0.72823 -5.31957,2.62389 -3.91756,2.12585 -5.52205,-4.32234 -12.65962,-8.60118 -17.91561,-12.90917 z"
       id="path3774"
       inkscape:connector-curvature="0"
       sodipodi:nodetypes="cssscsccsccccc" />
    <path
       sodipodi:type="arc"
       style="fill:#ffffff;fill-opacity:1;stroke:#000000;stroke-width:2.43448114;stroke-miterlimit:4;stroke-opacity:1;stroke-dasharray:none"
       id="path3080"
       sodipodi:cx="806.10175"
       sodipodi:cy="11.905062"
       sodipodi:rx="28.284271"
       sodipodi:ry="34.345188"
       d="m 834.38602,11.905062 c 0,18.968323 -12.6633,34.345188 -28.28427,34.345188 -15.62098,0 -28.28428,-15.376865 -28.28428,-34.345188 0,-18.9683239 12.6633,-34.345188 28.28428,-34.345188 15.62097,0 28.28427,15.3768641 28.28427,34.345188 z"
       transform="matrix(0.36783456,-0.0879231,0.08721545,0.36487399,82.736779,725.60644)" />
    <path
       style="fill:#ff0000;fill-opacity:0.98557691;stroke:#000000;stroke-width:0.90279996;stroke-miterlimit:4;stroke-opacity:0.9807692;stroke-dasharray:none"
       d="m 398.00523,650.54326 c -0.32046,-0.0159 -0.56534,-0.18422 -0.95048,-0.65301 -6.45603,-18.31453 -37.74458,-13.38295 -48.31111,-8.53941 -50.22211,26.41636 -2.86441,-56.83799 8.4238,-10.08098 -18.88644,-44.61777 39.39985,-43.1831 25.24021,-0.5446 12.97644,-57.77215 66.59853,-1.83625 17.2266,18.67832 -0.59021,1.21848 -0.55419,1.19328 -1.62902,1.13968 z"
       id="path3868"
       inkscape:connector-curvature="0"
       sodipodi:nodetypes="scccccs" />
    <path
       sodipodi:type="arc"
       style="fill:#000000;fill-opacity:0.98557691;stroke:#000000;stroke-width:1;stroke-miterlimit:4;stroke-opacity:0.9807692;stroke-dasharray:none"
       id="path3852"
       sodipodi:cx="799.03064"
       sodipodi:cy="17.965977"
       sodipodi:rx="17.172594"
       sodipodi:ry="20.203051"
       d="m 816.20323,17.965977 c 0,11.157836 -7.68843,20.20305 -17.17259,20.20305 -9.48416,0 -17.17259,-9.045214 -17.17259,-20.20305 0,-11.157837 7.68843,-20.2030509 17.17259,-20.2030509 9.48416,0 17.17259,9.0452139 17.17259,20.2030509 z"
       transform="matrix(0.42579765,-0.10177796,0.101423,0.42431273,41.170509,733.52933)" />
    <path
       style="fill:#a05a2c;fill-opacity:1;stroke:#000000;stroke-width:0.9094286;stroke-miterlimit:4;stroke-opacity:0.9807692;stroke-dasharray:none"
       d="m 317.94694,959.33686 c -15.24443,4.87602 -32.69231,4.74589 -46.71459,2.71017 -19.39408,-3.79703 -34.50877,-5.98326 -49.37875,-18.9214 -15.34632,-12.60462 -22.27799,-27.14234 -26.97727,-42.14636 4.14889,3.4388 24.76773,0.49532 28.37768,-1.39844 3.19735,-1.76962 9.00487,-4.38013 12.05199,-5.06674 2.76318,-0.62257 11.65078,-1.25405 14.3105,-1.16531 2.14957,0.0717 3.29994,-0.15601 7.16467,1.30158 6.20624,2.34067 8.1296,2.76375 12.78761,3.54411 9.19284,1.54011 19.53561,1.31093 29.0377,-1.02832 4.53631,-1.11671 12.8972,-4.97747 17.14639,-7.5807 6.36897,-3.90186 10.57086,-8.36492 14.08176,-13.63301 4.56189,-6.84511 30.32597,-53.22879 30.0097,-60.61752 -0.16923,-3.94757 0.20911,-1.57356 -2.18596,-2.43889 -1.41075,-0.50969 -2.36959,-1.1089 -2.55964,-1.53138 -0.15568,-0.34614 -0.47524,-0.68386 -0.74107,-0.66887 -0.74492,0.042 -1.21049,0.0977 -1.08009,0.38752 0.0645,0.1433 0.59575,-0.28697 0.9385,-0.44115 0.46363,-0.20851 0.55242,0.30434 0.9226,0.77881 0.27366,0.35076 1.37625,0.98068 2.45022,1.39986 l 1.95266,0.76213 c 0.35623,7.89665 -21.67514,47.42471 -24.79804,53.28236 -2.13954,7.39721 -11.42118,17.94379 -18.95868,22.42699 -3.99229,2.37456 -11.40078,6.03124 -15.9746,7.32 -18.96008,5.34234 -39.01022,2.39166 -55.89542,-8.22585 -11.07158,-6.96185 -21.43316,-18.51921 -30.03661,-33.50296 -0.74698,-1.30093 -1.34471,-2.38377 -1.32829,-2.40632 0.0164,-0.0226 0.4154,-0.66446 0.88661,-1.42648 1.63124,-2.63802 3.82488,-4.79664 6.84622,-6.73697 0.5859,-2.52371 -6.51106,5.27838 -7.36383,6.56359 -0.89692,1.36823 -0.99529,1.70116 -0.65595,2.21986 0.21961,0.33561 1.20475,1.51756 2.1033,2.91169 11.44674,17.76028 21.58292,28.25862 34.50171,35.84596 1.34743,0.79136 2.49029,1.30777 2.43949,1.33062 -0.0508,0.0226 -1.15157,0.0364 -2.44614,0.0301 -2.47847,-0.0121 -10.50515,0.83368 -13.68543,1.44201 -2.7693,0.5297 -8.0794,2.81611 -11.78075,4.93901 -4.93224,3.32335 -22.87203,3.92478 -27.0812,2.29831 -7.26787,-8.72174 -103.707149,-45.06898 -8.09315,-79.17157 22.95743,-0.84068 19.20244,-4.5345 57.17988,-11.65683 54.41029,-19.15751 154.65738,-175.62676 160.81458,-75.28182 7.02212,34.81818 0.71163,110.58111 -16.24944,148.13381 -19.86012,43.97137 -39.28541,64.08331 -72.01871,75.41813 z"
       id="path3874"
       inkscape:connector-curvature="0"
       sodipodi:nodetypes="cccccsssssssssssssssccsssscsccsssssscccccscc" />
    <path
       style="fill:#ff0000;fill-opacity:1;stroke:#000000;stroke-width:0.83374774px;stroke-linecap:butt;stroke-linejoin:miter;stroke-opacity:1"
       d="m 186.49881,896.12285 c 1.57726,1.88271 8.20772,-5.74129 7.12828,-7.87453 C 127.97365,758.50085 92.338231,922.98796 120.10589,1041.8442 118.311,903.41837 142.34224,843.4149 186.49881,896.12285 z"
       id="path5693-7-6"
       inkscape:connector-curvature="0"
       sodipodi:nodetypes="sscs" />
    <path
       style="fill:#aa4400;fill-opacity:1;stroke:#000000;stroke-width:0.91820002;stroke-miterlimit:4;stroke-opacity:0.9807692;stroke-dasharray:none"
       d="m 383.73374,776.22684 c -6.16748,-3.17305 -8.35519,-24.01836 -12.14514,-29.86345 -3.94682,3.45103 -3.14069,16.75112 -17.57632,29.87336 -0.80981,-16.37065 -6.41499,-23.48842 -5.76823,-33.39829 -2.36633,3.24925 -16.56086,27.73095 -20.73935,28.34421 2.68375,-10.79105 3.67506,-22.84125 2.49886,-29.30135 l -15.2388,26.13211 c -6.11933,-14.71797 11.64023,-38.65136 13.96651,-54.73769 1.92712,-34.5934 -1.71569,-66.43145 28.72836,-74.78386 7.33627,-2.21105 16.17359,-3.18333 21.02505,-2.31317 4.79741,0.86048 10.42618,2.8841 12.90936,5.64353 -13.73035,-8.52841 -39.66486,10.5916 -24.20882,26.65373 2.76166,3.85312 9.79049,10.03883 23.07692,20.30881 18.30196,14.14685 17.5756,22.99263 23.77928,33.14675 5.43773,25.40542 -1.73042,40.63583 -5.4157,52.39726 -5.61448,-11.33447 -1.70053,-16.47141 -8.57883,-24.97196 -3.43652,9.83427 -12.05545,19.28684 -16.31315,26.87001 z"
       id="path3870"
       inkscape:connector-curvature="0"
       sodipodi:nodetypes="cccccccccsccscccc" />
    <path
       style="fill:#d40000;fill-opacity:1;stroke:#000000;stroke-width:0.935305px;stroke-linecap:butt;stroke-linejoin:miter;stroke-opacity:1"
       d="m 189.97261,878.77266 c 1.93657,1.59834 3.33249,-11.28809 2.50079,-13.3606 C 138.64873,731.28517 58.448629,910.61843 84.784749,1021.2473 94.492721,888.54971 127.59326,827.28788 189.97261,878.77266 z"
       id="path5693-7-8"
       inkscape:connector-curvature="0"
       sodipodi:nodetypes="sscs" />
    <path
       style="fill:#aa4400;fill-opacity:1;stroke:#000000;stroke-width:0.69523001px;stroke-linecap:butt;stroke-linejoin:miter;stroke-opacity:1"
       d="m 189.32126,899.65812 c 1.4665,1.40376 4.33075,-2.57385 3.51959,-4.36164 -52.49667,-115.70104 -84.74698,29.04866 -53.17238,124.13142 -11.05995,-113.25355 2.41528,-164.9866 49.65279,-119.76978 z"
       id="path5693-7-4"
       inkscape:connector-curvature="0"
       sodipodi:nodetypes="sscs" />
    <path
       style="fill:#008000;fill-opacity:1;stroke:#000000;stroke-width:0.84911728px;stroke-linecap:butt;stroke-linejoin:miter;stroke-opacity:1"
       d="m 186.80502,882.72512 c 1.58002,1.81772 6.02876,-2.36732 5.3599,-4.53699 C 148.87835,737.77308 78.514049,899.97207 99.378901,1013.7737 108.28455,881.87569 135.91085,824.17442 186.80502,882.72512 z"
       id="path5693-7-2"
       inkscape:connector-curvature="0"
       sodipodi:nodetypes="sscs" />
    <path
       style="fill:#008000;fill-opacity:1;stroke:#000000;stroke-width:0.9860546px;stroke-linecap:butt;stroke-linejoin:miter;stroke-opacity:1"
       d="m 182.50128,862.81787 c 1.70776,2.21361 8.58778,0.55796 8.07563,-2.02354 C 161.02077,711.81736 47.401349,854.23145 55.116629,993.93154 95.545971,870.5834 138.69279,806.03287 182.50128,862.81787 z"
       id="path5693-0"
       inkscape:connector-curvature="0"
       sodipodi:nodetypes="sscs" />
    <path
       style="fill:#ff0000;fill-opacity:1;stroke:#000000;stroke-width:0.9860546px;stroke-linecap:butt;stroke-linejoin:miter;stroke-opacity:1"
       d="m 188.14083,856.02018 c 1.43022,2.40226 5.37083,-0.94924 5.05703,-3.56228 C 172.88972,683.34909 63.580499,856.10215 63.763009,990.18773 101.43202,841.69554 142.07143,778.6404 188.14083,856.02018 z"
       id="path5693"
       inkscape:connector-curvature="0"
       sodipodi:nodetypes="sscs" />
    <path
       style="fill:#803300;fill-opacity:1;stroke:#000000;stroke-width:1.08644545px;stroke-linecap:butt;stroke-linejoin:miter;stroke-opacity:1"
       d="m 188.63654,852.09583 c 1.5753,2.6477 7.63513,2.44766 7.26313,-0.42907 C 171.83909,665.60451 43.465979,840.63826 48.398899,987.51554 89.890201,823.85107 137.89396,766.81011 188.63654,852.09583 z"
       id="path5693-7"
       inkscape:connector-curvature="0"
       sodipodi:nodetypes="sscs" />
  </g>
</svg>
