<?xml version="1.0" encoding="UTF-8" standalone="no"?>
<!-- Created with Inkscape (http://www.inkscape.org/) -->

<svg
   xmlns:dc="http://purl.org/dc/elements/1.1/"
   xmlns:cc="http://creativecommons.org/ns#"
   xmlns:rdf="http://www.w3.org/1999/02/22-rdf-syntax-ns#"
   xmlns:svg="http://www.w3.org/2000/svg"
   xmlns="http://www.w3.org/2000/svg"
   xmlns:sodipodi="http://sodipodi.sourceforge.net/DTD/sodipodi-0.dtd"
   xmlns:inkscape="http://www.inkscape.org/namespaces/inkscape"
   width="80"
   height="80"
   id="svg3099"
   version="1.1"
   inkscape:version="0.48.4 r9939"
   sodipodi:docname="smile.svg">
  <defs
     id="defs3101" />
  <sodipodi:namedview
     id="base"
     pagecolor="#ffffff"
     bordercolor="#666666"
     borderopacity="1.0"
     inkscape:pageopacity="0"
     inkscape:pageshadow="2"
     inkscape:zoom="7.9195959"
     inkscape:cx="9.9525121"
     inkscape:cy="33.915459"
     inkscape:document-units="px"
     inkscape:current-layer="layer1"
     showgrid="false"
     inkscape:window-width="1920"
     inkscape:window-height="1030"
     inkscape:window-x="0"
     inkscape:window-y="0"
     inkscape:window-maximized="1" />
  <metadata
     id="metadata3104">
    <rdf:RDF>
      <cc:Work
         rdf:about="">
        <dc:format>image/svg+xml</dc:format>
        <dc:type
           rdf:resource="http://purl.org/dc/dcmitype/StillImage" />
        <dc:title></dc:title>
      </cc:Work>
    </rdf:RDF>
  </metadata>
  <g
     inkscape:label="Layer 1"
     inkscape:groupmode="layer"
     id="layer1"
     transform="translate(0,-972.36218)">
    <path
       style="fill:none;stroke:#000000;stroke-width:1.02419996000000002;stroke-linecap:round;stroke-linejoin:miter;stroke-miterlimit:4;stroke-opacity:0.80288464;stroke-dasharray:none"
       d="m 15.154703,999.46645 c -2.049323,-16.7265 22.533284,-16.00939 20.631552,0"
       id="path3895"
       inkscape:connector-curvature="0"
       sodipodi:nodetypes="cc" />
    <path
       style="fill:none;stroke:#000000;stroke-width:1.02419996000000002;stroke-linecap:round;stroke-linejoin:miter;stroke-miterlimit:4;stroke-opacity:0.80288464;stroke-dasharray:none"
       d="m 45.66762,999.46645 c -2.049322,-16.7265 22.533284,-16.00939 20.631557,0"
       id="path3895-7"
       inkscape:connector-curvature="0"
       sodipodi:nodetypes="cc" />
    <path
       style="fill:none;stroke:#000000;stroke-width:1.02419996000000002;stroke-linecap:round;stroke-linejoin:miter;stroke-miterlimit:4;stroke-opacity:0.80288464;stroke-dasharray:none"
       d="m 19.551989,1014.2564 c 0.325009,2.0493 0.930963,3.2249 1.638386,4.0085 8.420737,9.3268 31.218724,8.6563 36.749404,-2.6866"
       id="path3929"
       inkscape:connector-curvature="0"
       sodipodi:nodetypes="csc" />
    <path
       style="fill:none;stroke:#000000;stroke-width:0.99063045000000005px;stroke-linecap:round;stroke-linejoin:miter;stroke-opacity:0.80288464"
       d="m 54.883559,1012.795 c 4.138299,4.8462 7.588431,1.7605 7.559028,2.085"
       id="path3931"
       inkscape:connector-curvature="0"
       sodipodi:nodetypes="cc" />
    <path
       style="fill:none;stroke:#000000;stroke-width:1.02419996000000002;stroke-linecap:butt;stroke-linejoin:miter;stroke-miterlimit:4;stroke-opacity:0.80288464;stroke-dasharray:none"
       d="m 24.900446,1021.357 c 1.993711,19.6524 24.302662,37.5754 29.673549,-1.4673"
       id="path3933"
       inkscape:connector-curvature="0"
       sodipodi:nodetypes="cc" />
    <path
       style="fill:none;stroke:#000000;stroke-width:0.99063045000000005px;stroke-linecap:round;stroke-linejoin:miter;stroke-opacity:0.80288464"
       d="m 29.443071,1034.2737 c 6.696727,-4.6945 15.990208,-4.3668 22.438266,-2.738"
       id="path3935"
       inkscape:connector-curvature="0"
       sodipodi:nodetypes="cc" />
    <path
       style="fill:#ff4681;fill-opacity:1;stroke:#000000;stroke-width:0.01676064;stroke-linecap:round;stroke-miterlimit:4;stroke-opacity:1;stroke-dasharray:none"
       d="m 39.08794,1042.4067 c -1.85821,-0.5253 -3.878898,-1.7718 -5.694044,-3.5125 -1.071465,-1.0274 -3.394059,-3.9935 -3.394059,-4.3343 0,-0.4247 3.487462,-2.0192 5.877734,-2.6875 4.081683,-1.1411 10.107133,-1.2407 14.621697,-0.2418 0.841291,0.1861 0.877812,0.2165 0.775812,0.6449 -0.05888,0.2473 -0.475936,1.2446 -0.926813,2.2164 -2.491588,5.3697 -5.752377,8.1956 -9.398791,8.1453 -0.604981,-0.01 -1.442672,-0.112 -1.861536,-0.2305 l 0,0 z"
       id="path3937"
       inkscape:connector-curvature="0" />
    <path
       sodipodi:type="arc"
       style="fill:#ffaaaa;fill-opacity:1;stroke:none"
       id="path3939"
       sodipodi:cx="46.785713"
       sodipodi:cy="108.57143"
       sodipodi:rx="6.7857141"
       sodipodi:ry="6.9642859"
       d="m 53.571427,108.57143 a 6.7857141,6.9642859 0 1 1 -13.571428,0 6.7857141,6.9642859 0 1 1 13.571428,0 z"
       transform="matrix(0.84078947,0,0,0.83076923,-29.296757,923.08292)" />
    <path
       sodipodi:type="arc"
       style="fill:#ffaaaa;fill-opacity:1;stroke:none"
       id="path3939-0"
       sodipodi:cx="46.785713"
       sodipodi:cy="108.57143"
       sodipodi:rx="6.7857141"
       sodipodi:ry="6.9642859"
       d="m 53.571427,108.57143 a 6.7857141,6.9642859 0 1 1 -13.571428,0 6.7857141,6.9642859 0 1 1 13.571428,0 z"
       transform="matrix(0.84078947,0,0,0.83076923,30.890744,921.79721)" />
    <path
       style="fill:#ffffff;fill-opacity:1;stroke:none"
       d="m 28.271972,1031.5878 c -1.136766,-2.4443 -1.859258,-4.5595 -2.426276,-7.1037 -0.449901,-2.0185 -0.484315,-2.4303 -0.191807,-2.2953 7.15331,3.3019 15.012016,3.8627 22.304956,1.5917 1.694325,-0.5276 4.615517,-1.8556 5.492571,-2.497 0.27585,-0.2017 0.535302,-0.3321 0.576522,-0.2898 0.204831,0.2104 -1.465139,8.0686 -2.034287,9.5725 l -0.170129,0.4496 -1.020413,-0.2444 c -2.783885,-0.6671 -8.161137,-0.9388 -11.115716,-0.5617 -3.31852,0.4234 -6.317377,1.3384 -8.818446,2.6905 -0.845801,0.4572 -1.55181,0.8313 -1.568912,0.8313 -0.0171,0 -0.479728,-0.9646 -1.028063,-2.1437 z"
       id="path3977"
       inkscape:connector-curvature="0" />
  </g>
</svg>
