<?xml version="1.0" encoding="UTF-8" standalone="no"?>
<!-- Created with Inkscape (http://www.inkscape.org/) -->

<svg
   xmlns:dc="http://purl.org/dc/elements/1.1/"
   xmlns:cc="http://creativecommons.org/ns#"
   xmlns:rdf="http://www.w3.org/1999/02/22-rdf-syntax-ns#"
   xmlns:svg="http://www.w3.org/2000/svg"
   xmlns="http://www.w3.org/2000/svg"
   xmlns:sodipodi="http://sodipodi.sourceforge.net/DTD/sodipodi-0.dtd"
   xmlns:inkscape="http://www.inkscape.org/namespaces/inkscape"
   width="1550"
   height="420"
   id="svg2"
   version="1.1"
   inkscape:version="0.48.2 r9819"
   sodipodi:docname="tractor_animation.svg">
  <defs
     id="defs4" />
  <sodipodi:namedview
     id="base"
     pagecolor="#ffffff"
     bordercolor="#666666"
     borderopacity="1.0"
     inkscape:pageopacity="0.0"
     inkscape:pageshadow="2"
     inkscape:zoom="0.69999999"
     inkscape:cx="728.07752"
     inkscape:cy="231.05478"
     inkscape:document-units="px"
     inkscape:current-layer="layer1"
     showgrid="false"
     inkscape:window-width="1125"
     inkscape:window-height="688"
     inkscape:window-x="0"
     inkscape:window-y="0"
     inkscape:window-maximized="0"
     fit-margin-top="0"
     fit-margin-left="0"
     fit-margin-right="0"
     fit-margin-bottom="0" />
  <metadata
     id="metadata7">
    <rdf:RDF>
      <cc:Work
         rdf:about="">
        <dc:format>image/svg+xml</dc:format>
        <dc:type
           rdf:resource="http://purl.org/dc/dcmitype/StillImage" />
        <dc:title></dc:title>
      </cc:Work>
    </rdf:RDF>
  </metadata>
  <g
     inkscape:label="Layer 1"
     inkscape:groupmode="layer"
     id="layer1"
     transform="translate(-147.99925,-387.21782)">
    <g
       id="g4088">
      <rect
         ry="15.030248"
         y="575.2193"
         x="148.57143"
         height="141.97307"
         width="437.14285"
         id="rect2991"
         style="fill:#ff0000;fill-opacity:1;stroke:#0e2a00;stroke-width:1.14434934;stroke-miterlimit:4;stroke-opacity:1;stroke-dasharray:none" />
      <rect
         ry="13.446041"
         y="423.79074"
         x="380"
         height="292.82492"
         width="208.57143"
         id="rect2989"
         style="fill:#ff0000;fill-opacity:1;stroke:#0e2a00;stroke-width:1.11366069;stroke-miterlimit:4;stroke-opacity:1;stroke-dasharray:none" />
      <path
         transform="translate(0,3.0647375e-6)"
         sodipodi:open="true"
         sodipodi:end="10.511626"
         sodipodi:start="4.2368313"
         d="m 480.12013,577.26474 c 59.62165,-30.70381 132.84491,-7.26127 163.54872,52.36039 30.70382,59.62166 7.26127,132.84492 -52.36039,163.54873 -59.62165,30.70381 -132.84491,7.26126 -163.54873,-52.36039 -30.5218,-59.26823 -7.55349,-132.06045 51.45656,-163.07847"
         sodipodi:ry="121.42857"
         sodipodi:rx="121.42857"
         sodipodi:cy="685.2193"
         sodipodi:cx="535.71429"
         id="path2985"
         style="fill:#000000;fill-opacity:1;stroke:#0e2a00;stroke-width:1.08899999;stroke-miterlimit:4;stroke-opacity:1;stroke-dasharray:none"
         sodipodi:type="arc" />
      <path
         transform="matrix(0.48476902,0,0,0.48476902,-51.125982,415.90363)"
         sodipodi:type="arc"
         style="fill:#000000;fill-opacity:1;stroke:#0e2a00;stroke-width:1.08899999;stroke-miterlimit:4;stroke-opacity:1;stroke-dasharray:none"
         id="path2987"
         sodipodi:cx="535.71429"
         sodipodi:cy="685.2193"
         sodipodi:rx="121.42857"
         sodipodi:ry="121.42857"
         d="m 480.12013,577.26474 c 59.62165,-30.70381 132.84491,-7.26127 163.54872,52.36039 30.70382,59.62166 7.26127,132.84492 -52.36039,163.54873 -59.62165,30.70381 -132.84491,7.26126 -163.54873,-52.36039 -30.5218,-59.26823 -7.55349,-132.06045 51.45656,-163.07847"
         sodipodi:start="4.2368313"
         sodipodi:end="10.511626"
         sodipodi:open="true" />
      <path
         sodipodi:type="arc"
         style="fill:#b3b3b3;fill-opacity:1;stroke:#0e2a00;stroke-width:1.08899999;stroke-miterlimit:4;stroke-opacity:1;stroke-dasharray:none"
         id="path2993"
         sodipodi:cx="535.71429"
         sodipodi:cy="685.2193"
         sodipodi:rx="121.42857"
         sodipodi:ry="121.42857"
         d="m 480.12013,577.26474 c 59.62165,-30.70381 132.84491,-7.26127 163.54872,52.36039 30.70382,59.62166 7.26127,132.84492 -52.36039,163.54873 -59.62165,30.70381 -132.84491,7.26126 -163.54873,-52.36039 -30.5218,-59.26823 -7.55349,-132.06045 51.45656,-163.07847"
         sodipodi:start="4.2368313"
         sodipodi:end="10.511626"
         sodipodi:open="true"
         transform="matrix(0.55581963,0,0,0.53229454,237.954,320.48081)" />
      <path
         sodipodi:open="true"
         sodipodi:end="10.511626"
         sodipodi:start="4.2368313"
         d="m 480.12013,577.26474 c 59.62165,-30.70381 132.84491,-7.26127 163.54872,52.36039 30.70382,59.62166 7.26127,132.84492 -52.36039,163.54873 -59.62165,30.70381 -132.84491,7.26126 -163.54873,-52.36039 -30.5218,-59.26823 -7.55349,-132.06045 51.45656,-163.07847"
         sodipodi:ry="121.42857"
         sodipodi:rx="121.42857"
         sodipodi:cy="685.2193"
         sodipodi:cx="535.71429"
         id="path2995"
         style="fill:#b3b3b3;fill-opacity:1;stroke:#0e2a00;stroke-width:1.08899999;stroke-miterlimit:4;stroke-opacity:1;stroke-dasharray:none"
         sodipodi:type="arc"
         transform="matrix(0.22715353,0,0,0.22715353,86.88246,592.42674)" />
      <rect
         ry="5"
         y="458.07648"
         x="425.71429"
         height="85.714287"
         width="120"
         id="rect2997"
         style="fill:#ffffff;fill-opacity:1;stroke:#0e2a00;stroke-width:1.08899999;stroke-miterlimit:4;stroke-opacity:1;stroke-dasharray:none" />
      <path
         inkscape:connector-curvature="0"
         id="path3069"
         d="m 495.475,509.47812 c -3.38988,0.11407 -6.79768,1.16276 -10.0143,3.26311 l -0.18477,0.13053 c -8.96415,5.97451 -13.56427,18.3082 -12.19452,30.34699 l 46.04359,0 c 0.67343,-5.8756 0.0163,-12.03791 -2.29109,-17.71873 -4.23324,-10.4229 -12.69589,-16.31345 -21.35891,-16.0219 z"
         style="fill:#e6e6e6;fill-opacity:1;stroke:#0e2a00;stroke-width:0;stroke-miterlimit:4;stroke-opacity:1;stroke-dasharray:none" />
      <rect
         y="505.03549"
         x="227.20508"
         height="70.367676"
         width="16.796246"
         id="rect2999"
         style="fill:#000000;fill-opacity:1;stroke:#0e2a00;stroke-width:0.72132611;stroke-miterlimit:4;stroke-opacity:1;stroke-dasharray:none" />
      <rect
         ry="6.4279261"
         y="480.88181"
         x="218.90437"
         height="23.817875"
         width="33.397652"
         id="rect3001"
         style="fill:#000000;fill-opacity:1;stroke:#0e2a00;stroke-width:0.58645642;stroke-miterlimit:4;stroke-opacity:1;stroke-dasharray:none" />
      <rect
         ry="3.9285715"
         y="565.93359"
         x="410.71429"
         height="7.8571429"
         width="24.285715"
         id="rect3003"
         style="fill:#b3b3b3;fill-opacity:1;stroke:#0e2a00;stroke-width:1.08899999;stroke-miterlimit:4;stroke-opacity:1;stroke-dasharray:none" />
      <path
         sodipodi:open="true"
         sodipodi:end="10.511626"
         sodipodi:start="4.2368313"
         d="m 412.51719,567.04417 c 2.27966,-0.90306 5.07937,-0.21357 6.25334,1.54001 1.17397,1.75357 0.27763,3.9072 -2.00202,4.81025 -2.27965,0.90306 -5.07936,0.21357 -6.25333,-1.54001 -1.16701,-1.74318 -0.28881,-3.88413 1.96746,-4.79642"
         sodipodi:ry="3.5714285"
         sodipodi:rx="4.6428571"
         sodipodi:cy="570.2193"
         sodipodi:cx="414.64285"
         id="path3005"
         style="fill:#000000;fill-opacity:1;stroke:#0e2a00;stroke-width:1.08899999;stroke-miterlimit:4;stroke-opacity:1;stroke-dasharray:none"
         sodipodi:type="arc" />
      <path
         transform="translate(25.714286,38.571429)"
         inkscape:transform-center-y="-3.7375788"
         inkscape:transform-center-x="-0.83685385"
         d="m 548.57144,703.79079 -39.66243,-56.26816 -43.68163,53.83856 41.25784,-55.10903 -64.70188,-24.90667 65.16117,22.2089 3.69367,-69.23172 -0.98601,68.83489 66.98469,-17.88089 -65.77056,20.33339 z"
         inkscape:randomized="0"
         inkscape:rounded="0"
         inkscape:flatsided="false"
         sodipodi:arg2="1.4252718"
         sodipodi:arg1="0.97162101"
         sodipodi:r2="2.3278766"
         sodipodi:r1="70.926811"
         sodipodi:cy="645.21936"
         sodipodi:cx="508.57144"
         sodipodi:sides="5"
         id="path3007"
         style="fill:#000000;fill-opacity:1;stroke:#0e2a00;stroke-width:1.08899999;stroke-miterlimit:4;stroke-opacity:1;stroke-dasharray:none"
         sodipodi:type="star" />
      <path
         sodipodi:type="star"
         style="fill:#000000;fill-opacity:1;stroke:#0e2a00;stroke-width:1.08899999;stroke-miterlimit:4;stroke-opacity:1;stroke-dasharray:none"
         id="path3009"
         sodipodi:sides="5"
         sodipodi:cx="508.57144"
         sodipodi:cy="645.21936"
         sodipodi:r1="70.926811"
         sodipodi:r2="2.3278766"
         sodipodi:arg1="0.97162101"
         sodipodi:arg2="1.4252718"
         inkscape:flatsided="false"
         inkscape:rounded="0"
         inkscape:randomized="0"
         d="m 548.57144,703.79079 -39.66243,-56.26816 -43.68163,53.83856 41.25784,-55.10903 -64.70188,-24.90667 65.16117,22.2089 3.69367,-69.23172 -0.98601,68.83489 66.98469,-17.88089 -65.77056,20.33339 z"
         inkscape:transform-center-x="-0.35731375"
         inkscape:transform-center-y="-1.5783022"
         transform="matrix(0.42696847,0,0,0.42227845,-9.4566455,477.69506)" />
      <path
         sodipodi:open="true"
         sodipodi:end="10.511626"
         sodipodi:start="4.2368313"
         d="m 205.54778,743.87199 c 2.72792,-1.40482 6.07818,-0.33223 7.483,2.3957 1.40482,2.72792 0.33223,6.07818 -2.3957,7.483 -2.72792,1.40482 -6.07818,0.33223 -7.483,-2.3957 -1.39649,-2.71175 -0.3456,-6.04229 2.35434,-7.46148"
         sodipodi:ry="5.5558391"
         sodipodi:rx="5.5558391"
         sodipodi:cy="748.81134"
         sodipodi:cx="208.09143"
         id="path3011"
         style="fill:#000000;fill-opacity:1;stroke:#0e2a00;stroke-width:1.08899999;stroke-miterlimit:4;stroke-opacity:1;stroke-dasharray:none"
         sodipodi:type="arc" />
      <path
         transform="matrix(2.027218,0,0,2.027218,112.24472,-835.19247)"
         sodipodi:type="arc"
         style="fill:#000000;fill-opacity:1;stroke:#0e2a00;stroke-width:1.08899999;stroke-miterlimit:4;stroke-opacity:1;stroke-dasharray:none"
         id="path3013"
         sodipodi:cx="208.09143"
         sodipodi:cy="748.81134"
         sodipodi:rx="5.5558391"
         sodipodi:ry="5.5558391"
         d="m 205.54778,743.87199 c 2.72792,-1.40482 6.07818,-0.33223 7.483,2.3957 1.40482,2.72792 0.33223,6.07818 -2.3957,7.483 -2.72792,1.40482 -6.07818,0.33223 -7.483,-2.3957 -1.39649,-2.71175 -0.3456,-6.04229 2.35434,-7.46148"
         sodipodi:start="4.2368313"
         sodipodi:end="10.511626"
         sodipodi:open="true" />
      <path
         sodipodi:nodetypes="ssssssss"
         inkscape:connector-curvature="0"
         id="rect3015"
         d="m 393.91964,399.33036 c -15.75112,1.04817 -31.84731,20.75949 -35.41518,24.93303 -3.45335,4.03959 2.08728,9.44197 7.66518,9.44197 75.5,0 219.89286,0.35714 219.89286,0.35714 6.65768,0 12,-5.37357 12,-12.03125 l 0,-10.3125 c 0,-6.65768 -5.34232,-12.03125 -12,-12.03125 0,0 -150.9043,-3.10141 -192.14286,-0.35714 z"
         style="fill:#000000;fill-opacity:1;stroke:#0e2a00;stroke-width:1.08899999;stroke-miterlimit:4;stroke-opacity:1;stroke-dasharray:none" />
      <path
         style="fill:#ff0000;fill-opacity:1;stroke:#0e2a00;stroke-width:0.95307213;stroke-miterlimit:4;stroke-opacity:1;stroke-dasharray:none"
         d="m 393.51222,399.73106 c -15.40201,0.82103 -26.14144,15.54668 -29.63024,18.81582 -3.37681,3.16423 2.04102,7.39593 7.49529,7.39593 73.82662,0 215.01917,0.27975 215.01917,0.27975 6.51011,0 11.73403,-4.20914 11.73403,-9.42411 l 0,-8.07781 c 0,-5.21499 -5.22392,-9.42412 -11.73403,-9.42412 0,0 -152.55967,-1.71506 -192.88422,0.43454 z"
         id="path3039"
         inkscape:connector-curvature="0"
         sodipodi:nodetypes="ssssssss" />
      <path
         transform="matrix(0.89180159,0,0,0.81821991,39.358906,93.202649)"
         sodipodi:open="true"
         sodipodi:end="10.511626"
         sodipodi:start="4.2368313"
         d="m 505.39876,470.95998 c 6.69582,-5.61929 14.91917,-1.32893 18.36737,9.58278 3.4482,10.91171 0.81548,24.31273 -5.88034,29.93201 -6.69582,5.61929 -14.91918,1.32893 -18.36737,-9.58278 -3.42776,-10.84702 -0.8483,-24.16916 5.77883,-29.84595"
         sodipodi:ry="22.223356"
         sodipodi:rx="13.637059"
         sodipodi:cy="490.71738"
         sodipodi:cx="511.64227"
         id="path3067"
         style="fill:#e6e6e6;fill-opacity:1;stroke:#0e2a00;stroke-width:0;stroke-miterlimit:4;stroke-opacity:1;stroke-dasharray:none"
         sodipodi:type="arc" />
      <rect
         ry="13.446041"
         y="607.89508"
         x="222.23357"
         height="66.670067"
         width="103.03556"
         id="rect3842"
         style="fill:#b3b3b3;fill-opacity:1;stroke:#0e2a00;stroke-width:0;stroke-miterlimit:4;stroke-opacity:1;stroke-dasharray:none" />
      <rect
         ry="3.5355237"
         y="607.89508"
         x="234.55731"
         height="66.16497"
         width="7.0710592"
         id="rect3844"
         style="fill:#333333;fill-opacity:1;stroke:#0e2a00;stroke-width:0;stroke-miterlimit:4;stroke-opacity:1;stroke-dasharray:none" />
      <rect
         style="fill:#333333;fill-opacity:1;stroke:#0e2a00;stroke-width:0;stroke-miterlimit:4;stroke-opacity:1;stroke-dasharray:none"
         id="rect3846"
         width="7.0710592"
         height="66.16497"
         x="255.00175"
         y="607.89508"
         ry="3.5355237" />
      <rect
         ry="3.5355237"
         y="607.89508"
         x="265.22397"
         height="66.16497"
         width="7.0710592"
         id="rect3848"
         style="fill:#333333;fill-opacity:1;stroke:#0e2a00;stroke-width:0;stroke-miterlimit:4;stroke-opacity:1;stroke-dasharray:none" />
      <rect
         style="fill:#333333;fill-opacity:1;stroke:#0e2a00;stroke-width:0;stroke-miterlimit:4;stroke-opacity:1;stroke-dasharray:none"
         id="rect3850"
         width="7.0710592"
         height="66.16497"
         x="244.77953"
         y="607.89508"
         ry="3.5355237" />
      <rect
         ry="3.5355237"
         y="607.89508"
         x="275.4462"
         height="66.16497"
         width="7.0710592"
         id="rect3852"
         style="fill:#333333;fill-opacity:1;stroke:#0e2a00;stroke-width:0;stroke-miterlimit:4;stroke-opacity:1;stroke-dasharray:none" />
      <rect
         style="fill:#333333;fill-opacity:1;stroke:#0e2a00;stroke-width:0;stroke-miterlimit:4;stroke-opacity:1;stroke-dasharray:none"
         id="rect3854"
         width="7.0710592"
         height="66.16497"
         x="285.66843"
         y="607.89508"
         ry="3.5355237" />
      <rect
         ry="3.5355237"
         y="607.89508"
         x="295.89062"
         height="66.16497"
         width="7.0710592"
         id="rect3856"
         style="fill:#333333;fill-opacity:1;stroke:#0e2a00;stroke-width:0;stroke-miterlimit:4;stroke-opacity:1;stroke-dasharray:none" />
      <rect
         style="fill:#333333;fill-opacity:1;stroke:#0e2a00;stroke-width:0;stroke-miterlimit:4;stroke-opacity:1;stroke-dasharray:none"
         id="rect3858"
         width="7.0710592"
         height="66.16497"
         x="306.11285"
         y="607.89508"
         ry="3.5355237" />
      <rect
         ry="2.9957488"
         y="612.94586"
         x="316.33508"
         height="56.063446"
         width="7.0710592"
         id="rect3860"
         style="fill:#333333;fill-opacity:1;stroke:#0e2a00;stroke-width:0;stroke-miterlimit:4;stroke-opacity:1;stroke-dasharray:none" />
      <rect
         style="fill:#333333;fill-opacity:1;stroke:#0e2a00;stroke-width:0;stroke-miterlimit:4;stroke-opacity:1;stroke-dasharray:none"
         id="rect3862"
         width="7.0710592"
         height="56.063446"
         x="224.33508"
         y="612.94586"
         ry="2.9957488" />
    </g>
    <g
       id="g4152">
      <rect
         style="fill:#ff0000;fill-opacity:1;stroke:#0e2a00;stroke-width:1.14434934;stroke-miterlimit:4;stroke-opacity:1;stroke-dasharray:none"
         id="rect3949"
         width="437.14285"
         height="141.97307"
         x="1188.5714"
         y="581.2193"
         ry="15.030248" />
      <rect
         style="fill:#ff0000;fill-opacity:1;stroke:#0e2a00;stroke-width:1.11366069;stroke-miterlimit:4;stroke-opacity:1;stroke-dasharray:none"
         id="rect3951"
         width="208.57143"
         height="292.82492"
         x="1420"
         y="429.79074"
         ry="13.446041" />
      <path
         sodipodi:type="arc"
         style="fill:#000000;fill-opacity:1;stroke:#0e2a00;stroke-width:1.08899999;stroke-miterlimit:4;stroke-opacity:1;stroke-dasharray:none"
         id="path3953"
         sodipodi:cx="535.71429"
         sodipodi:cy="685.2193"
         sodipodi:rx="121.42857"
         sodipodi:ry="121.42857"
         d="m 480.12013,577.26474 c 59.62165,-30.70381 132.84491,-7.26127 163.54872,52.36039 30.70382,59.62166 7.26127,132.84492 -52.36039,163.54873 -59.62165,30.70381 -132.84491,7.26126 -163.54873,-52.36039 -30.5218,-59.26823 -7.55349,-132.06045 51.45656,-163.07847"
         sodipodi:start="4.2368313"
         sodipodi:end="10.511626"
         sodipodi:open="true"
         transform="translate(1040,3.0647375e-6)" />
      <path
         sodipodi:open="true"
         sodipodi:end="10.511626"
         sodipodi:start="4.2368313"
         d="m 480.12013,577.26474 c 59.62165,-30.70381 132.84491,-7.26127 163.54872,52.36039 30.70382,59.62166 7.26127,132.84492 -52.36039,163.54873 -59.62165,30.70381 -132.84491,7.26126 -163.54873,-52.36039 -30.5218,-59.26823 -7.55349,-132.06045 51.45656,-163.07847"
         sodipodi:ry="121.42857"
         sodipodi:rx="121.42857"
         sodipodi:cy="685.2193"
         sodipodi:cx="535.71429"
         id="path3955"
         style="fill:#000000;fill-opacity:1;stroke:#0e2a00;stroke-width:1.08899999;stroke-miterlimit:4;stroke-opacity:1;stroke-dasharray:none"
         sodipodi:type="arc"
         transform="matrix(0.48476902,0,0,0.48476902,988.87402,415.90363)" />
      <path
         transform="matrix(0.55581963,0,0,0.53229454,1277.954,320.48081)"
         sodipodi:open="true"
         sodipodi:end="10.511626"
         sodipodi:start="4.2368313"
         d="m 480.12013,577.26474 c 59.62165,-30.70381 132.84491,-7.26127 163.54872,52.36039 30.70382,59.62166 7.26127,132.84492 -52.36039,163.54873 -59.62165,30.70381 -132.84491,7.26126 -163.54873,-52.36039 -30.5218,-59.26823 -7.55349,-132.06045 51.45656,-163.07847"
         sodipodi:ry="121.42857"
         sodipodi:rx="121.42857"
         sodipodi:cy="685.2193"
         sodipodi:cx="535.71429"
         id="path3957"
         style="fill:#b3b3b3;fill-opacity:1;stroke:#0e2a00;stroke-width:1.08899999;stroke-miterlimit:4;stroke-opacity:1;stroke-dasharray:none"
         sodipodi:type="arc" />
      <path
         transform="matrix(0.22715353,0,0,0.22715353,1126.8825,592.42674)"
         sodipodi:type="arc"
         style="fill:#b3b3b3;fill-opacity:1;stroke:#0e2a00;stroke-width:1.08899999;stroke-miterlimit:4;stroke-opacity:1;stroke-dasharray:none"
         id="path3959"
         sodipodi:cx="535.71429"
         sodipodi:cy="685.2193"
         sodipodi:rx="121.42857"
         sodipodi:ry="121.42857"
         d="m 480.12013,577.26474 c 59.62165,-30.70381 132.84491,-7.26127 163.54872,52.36039 30.70382,59.62166 7.26127,132.84492 -52.36039,163.54873 -59.62165,30.70381 -132.84491,7.26126 -163.54873,-52.36039 -30.5218,-59.26823 -7.55349,-132.06045 51.45656,-163.07847"
         sodipodi:start="4.2368313"
         sodipodi:end="10.511626"
         sodipodi:open="true" />
      <rect
         style="fill:#ffffff;fill-opacity:1;stroke:#0e2a00;stroke-width:1.08899999;stroke-miterlimit:4;stroke-opacity:1;stroke-dasharray:none"
         id="rect3961"
         width="120"
         height="85.714287"
         x="1465.7144"
         y="464.07648"
         ry="5" />
      <path
         style="fill:#e6e6e6;fill-opacity:1;stroke:#0e2a00;stroke-width:0;stroke-miterlimit:4;stroke-opacity:1;stroke-dasharray:none"
         d="m 1535.475,515.47812 c -3.3899,0.11407 -6.7977,1.16276 -10.0143,3.26311 l -0.1848,0.13053 c -8.9641,5.97451 -13.5642,18.3082 -12.1945,30.34699 l 46.0436,0 c 0.6734,-5.8756 0.016,-12.03791 -2.2911,-17.71873 -4.2332,-10.4229 -12.6959,-16.31345 -21.3589,-16.0219 z"
         id="path3963"
         inkscape:connector-curvature="0" />
      <rect
         style="fill:#000000;fill-opacity:1;stroke:#0e2a00;stroke-width:0.72132611;stroke-miterlimit:4;stroke-opacity:1;stroke-dasharray:none"
         id="rect3965"
         width="16.796246"
         height="70.367676"
         x="1267.2051"
         y="511.03549" />
      <rect
         style="fill:#000000;fill-opacity:1;stroke:#0e2a00;stroke-width:0.58645642;stroke-miterlimit:4;stroke-opacity:1;stroke-dasharray:none"
         id="rect3967"
         width="33.397652"
         height="23.817875"
         x="1258.9044"
         y="486.88181"
         ry="6.4279261" />
      <rect
         style="fill:#b3b3b3;fill-opacity:1;stroke:#0e2a00;stroke-width:1.08899999;stroke-miterlimit:4;stroke-opacity:1;stroke-dasharray:none"
         id="rect3969"
         width="24.285715"
         height="7.8571429"
         x="1450.7144"
         y="571.93359"
         ry="3.9285715" />
      <path
         transform="translate(1040,6)"
         sodipodi:type="arc"
         style="fill:#000000;fill-opacity:1;stroke:#0e2a00;stroke-width:1.08899999;stroke-miterlimit:4;stroke-opacity:1;stroke-dasharray:none"
         id="path3971"
         sodipodi:cx="414.64285"
         sodipodi:cy="570.2193"
         sodipodi:rx="4.6428571"
         sodipodi:ry="3.5714285"
         d="m 412.51719,567.04417 a 4.6428571,3.5714285 0 1 1 -0.0346,0.0138"
         sodipodi:start="4.2368313"
         sodipodi:end="10.511626"
         sodipodi:open="true" />
      <path
         sodipodi:type="star"
         style="fill:#000000;fill-opacity:1;stroke:#0e2a00;stroke-width:1.08899999;stroke-miterlimit:4;stroke-opacity:1;stroke-dasharray:none"
         id="path3973"
         sodipodi:sides="5"
         sodipodi:cx="508.57144"
         sodipodi:cy="645.21936"
         sodipodi:r1="70.926811"
         sodipodi:r2="2.3278766"
         sodipodi:arg1="0.97162101"
         sodipodi:arg2="1.4252718"
         inkscape:flatsided="false"
         inkscape:rounded="0"
         inkscape:randomized="0"
         d="m 548.57144,703.79079 -39.66243,-56.26816 -43.68163,53.83856 41.25784,-55.10903 -64.70188,-24.90667 65.16117,22.2089 3.69367,-69.23172 -0.98601,68.83489 66.98469,-17.88089 -65.77056,20.33339 z"
         inkscape:transform-center-x="-6.2736199"
         inkscape:transform-center-y="-1.9128945"
         transform="matrix(0.4524732,-0.891778,0.891778,0.4524732,770.83245,843.87461)" />
      <path
         transform="matrix(0.22898253,-0.36037352,0.35641501,0.22646728,902.09261,786.76562)"
         inkscape:transform-center-y="0.1222638"
         inkscape:transform-center-x="-3.5295269"
         d="m 548.57144,703.79079 -39.66243,-56.26816 -43.68163,53.83856 41.25784,-55.10903 -64.70188,-24.90667 65.16117,22.2089 3.69367,-69.23172 -0.98601,68.83489 66.98469,-17.88089 -65.77056,20.33339 z"
         inkscape:randomized="0"
         inkscape:rounded="0"
         inkscape:flatsided="false"
         sodipodi:arg2="1.4252718"
         sodipodi:arg1="0.97162101"
         sodipodi:r2="2.3278766"
         sodipodi:r1="70.926811"
         sodipodi:cy="645.21936"
         sodipodi:cx="508.57144"
         sodipodi:sides="5"
         id="path3975"
         style="fill:#000000;fill-opacity:1;stroke:#0e2a00;stroke-width:1.08899999;stroke-miterlimit:4;stroke-opacity:1;stroke-dasharray:none"
         sodipodi:type="star" />
      <path
         transform="translate(1042,0)"
         sodipodi:type="arc"
         style="fill:#000000;fill-opacity:1;stroke:#0e2a00;stroke-width:1.08899999;stroke-miterlimit:4;stroke-opacity:1;stroke-dasharray:none"
         id="path3977"
         sodipodi:cx="208.09143"
         sodipodi:cy="748.81134"
         sodipodi:rx="5.5558391"
         sodipodi:ry="5.5558391"
         d="m 205.54778,743.87199 c 2.72792,-1.40482 6.07818,-0.33223 7.483,2.3957 1.40482,2.72792 0.33223,6.07818 -2.3957,7.483 -2.72792,1.40482 -6.07818,0.33223 -7.483,-2.3957 -1.39649,-2.71175 -0.3456,-6.04229 2.35434,-7.46148"
         sodipodi:start="4.2368313"
         sodipodi:end="10.511626"
         sodipodi:open="true" />
      <path
         sodipodi:open="true"
         sodipodi:end="10.511626"
         sodipodi:start="4.2368313"
         d="m 205.54778,743.87199 c 2.72792,-1.40482 6.07818,-0.33223 7.483,2.3957 1.40482,2.72792 0.33223,6.07818 -2.3957,7.483 -2.72792,1.40482 -6.07818,0.33223 -7.483,-2.3957 -1.39649,-2.71175 -0.3456,-6.04229 2.35434,-7.46148"
         sodipodi:ry="5.5558391"
         sodipodi:rx="5.5558391"
         sodipodi:cy="748.81134"
         sodipodi:cx="208.09143"
         id="path3979"
         style="fill:#000000;fill-opacity:1;stroke:#0e2a00;stroke-width:1.08899999;stroke-miterlimit:4;stroke-opacity:1;stroke-dasharray:none"
         sodipodi:type="arc"
         transform="matrix(2.027218,0,0,2.027218,1154.2447,-835.19247)" />
      <path
         style="fill:#000000;fill-opacity:1;stroke:#0e2a00;stroke-width:1.08899999;stroke-miterlimit:4;stroke-opacity:1;stroke-dasharray:none"
         d="m 1433.9196,405.33036 c -15.7511,1.04817 -31.8473,20.75949 -35.4151,24.93303 -3.4534,4.03959 2.0872,9.44197 7.6651,9.44197 75.5,0 219.8929,0.35714 219.8929,0.35714 6.6577,0 12,-5.37357 12,-12.03125 l 0,-10.3125 c 0,-6.65768 -5.3423,-12.03125 -12,-12.03125 0,0 -150.9043,-3.10141 -192.1429,-0.35714 z"
         id="path3981"
         inkscape:connector-curvature="0"
         sodipodi:nodetypes="ssssssss" />
      <path
         sodipodi:nodetypes="ssssssss"
         inkscape:connector-curvature="0"
         id="path3983"
         d="m 1433.5122,405.73106 c -15.402,0.82103 -26.1414,15.54668 -29.6302,18.81582 -3.3768,3.16423 2.041,7.39593 7.4953,7.39593 73.8266,0 215.0191,0.27975 215.0191,0.27975 6.5102,0 11.7341,-4.20914 11.7341,-9.42411 l 0,-8.07781 c 0,-5.21499 -5.224,-9.42412 -11.7341,-9.42412 0,0 -152.5596,-1.71506 -192.8842,0.43454 z"
         style="fill:#ff0000;fill-opacity:1;stroke:#0e2a00;stroke-width:0.95307213;stroke-miterlimit:4;stroke-opacity:1;stroke-dasharray:none" />
      <path
         sodipodi:type="arc"
         style="fill:#e6e6e6;fill-opacity:1;stroke:#0e2a00;stroke-width:0;stroke-miterlimit:4;stroke-opacity:1;stroke-dasharray:none"
         id="path3985"
         sodipodi:cx="511.64227"
         sodipodi:cy="490.71738"
         sodipodi:rx="13.637059"
         sodipodi:ry="22.223356"
         d="m 505.39876,470.95998 a 13.637059,22.223356 0 1 1 -0.10151,0.0861"
         sodipodi:start="4.2368313"
         sodipodi:end="10.511626"
         sodipodi:open="true"
         transform="matrix(0.89180159,0,0,0.81821991,1079.3589,99.202649)" />
      <rect
         style="fill:#b3b3b3;fill-opacity:1;stroke:#0e2a00;stroke-width:0;stroke-miterlimit:4;stroke-opacity:1;stroke-dasharray:none"
         id="rect3987"
         width="103.03556"
         height="66.670067"
         x="1262.2336"
         y="613.89508"
         ry="13.446041" />
      <rect
         style="fill:#333333;fill-opacity:1;stroke:#0e2a00;stroke-width:0;stroke-miterlimit:4;stroke-opacity:1;stroke-dasharray:none"
         id="rect3989"
         width="7.0710592"
         height="66.16497"
         x="1274.5574"
         y="613.89508"
         ry="3.5355237" />
      <rect
         ry="3.5355237"
         y="613.89508"
         x="1295.0017"
         height="66.16497"
         width="7.0710592"
         id="rect3991"
         style="fill:#333333;fill-opacity:1;stroke:#0e2a00;stroke-width:0;stroke-miterlimit:4;stroke-opacity:1;stroke-dasharray:none" />
      <rect
         style="fill:#333333;fill-opacity:1;stroke:#0e2a00;stroke-width:0;stroke-miterlimit:4;stroke-opacity:1;stroke-dasharray:none"
         id="rect3993"
         width="7.0710592"
         height="66.16497"
         x="1305.224"
         y="613.89508"
         ry="3.5355237" />
      <rect
         ry="3.5355237"
         y="613.89508"
         x="1284.7795"
         height="66.16497"
         width="7.0710592"
         id="rect3995"
         style="fill:#333333;fill-opacity:1;stroke:#0e2a00;stroke-width:0;stroke-miterlimit:4;stroke-opacity:1;stroke-dasharray:none" />
      <rect
         style="fill:#333333;fill-opacity:1;stroke:#0e2a00;stroke-width:0;stroke-miterlimit:4;stroke-opacity:1;stroke-dasharray:none"
         id="rect3997"
         width="7.0710592"
         height="66.16497"
         x="1315.4463"
         y="613.89508"
         ry="3.5355237" />
      <rect
         ry="3.5355237"
         y="613.89508"
         x="1325.6685"
         height="66.16497"
         width="7.0710592"
         id="rect3999"
         style="fill:#333333;fill-opacity:1;stroke:#0e2a00;stroke-width:0;stroke-miterlimit:4;stroke-opacity:1;stroke-dasharray:none" />
      <rect
         style="fill:#333333;fill-opacity:1;stroke:#0e2a00;stroke-width:0;stroke-miterlimit:4;stroke-opacity:1;stroke-dasharray:none"
         id="rect4001"
         width="7.0710592"
         height="66.16497"
         x="1335.8906"
         y="613.89508"
         ry="3.5355237" />
      <rect
         ry="3.5355237"
         y="613.89508"
         x="1346.1129"
         height="66.16497"
         width="7.0710592"
         id="rect4003"
         style="fill:#333333;fill-opacity:1;stroke:#0e2a00;stroke-width:0;stroke-miterlimit:4;stroke-opacity:1;stroke-dasharray:none" />
      <rect
         style="fill:#333333;fill-opacity:1;stroke:#0e2a00;stroke-width:0;stroke-miterlimit:4;stroke-opacity:1;stroke-dasharray:none"
         id="rect4005"
         width="7.0710592"
         height="56.063446"
         x="1356.3351"
         y="618.94586"
         ry="2.9957488" />
      <rect
         ry="2.9957488"
         y="618.94586"
         x="1264.3351"
         height="56.063446"
         width="7.0710592"
         id="rect4007"
         style="fill:#333333;fill-opacity:1;stroke:#0e2a00;stroke-width:0;stroke-miterlimit:4;stroke-opacity:1;stroke-dasharray:none" />
    </g>
    <g
       id="g4120">
      <rect
         ry="15.030248"
         y="567.2193"
         x="668.57141"
         height="141.97307"
         width="437.14285"
         id="rect4009"
         style="fill:#ff0000;fill-opacity:1;stroke:#0e2a00;stroke-width:1.14434934;stroke-miterlimit:4;stroke-opacity:1;stroke-dasharray:none" />
      <rect
         ry="13.446041"
         y="415.79074"
         x="900"
         height="292.82492"
         width="208.57143"
         id="rect4011"
         style="fill:#ff0000;fill-opacity:1;stroke:#0e2a00;stroke-width:1.11366069;stroke-miterlimit:4;stroke-opacity:1;stroke-dasharray:none" />
      <path
         transform="translate(520,3.0647375e-6)"
         sodipodi:open="true"
         sodipodi:end="10.511626"
         sodipodi:start="4.2368313"
         d="m 480.12013,577.26474 c 59.62165,-30.70381 132.84491,-7.26127 163.54872,52.36039 30.70382,59.62166 7.26127,132.84492 -52.36039,163.54873 -59.62165,30.70381 -132.84491,7.26126 -163.54873,-52.36039 -30.5218,-59.26823 -7.55349,-132.06045 51.45656,-163.07847"
         sodipodi:ry="121.42857"
         sodipodi:rx="121.42857"
         sodipodi:cy="685.2193"
         sodipodi:cx="535.71429"
         id="path4013"
         style="fill:#000000;fill-opacity:1;stroke:#0e2a00;stroke-width:1.08899999;stroke-miterlimit:4;stroke-opacity:1;stroke-dasharray:none"
         sodipodi:type="arc" />
      <path
         transform="matrix(0.48476902,0,0,0.48476902,468.87402,415.90363)"
         sodipodi:type="arc"
         style="fill:#000000;fill-opacity:1;stroke:#0e2a00;stroke-width:1.08899999;stroke-miterlimit:4;stroke-opacity:1;stroke-dasharray:none"
         id="path4015"
         sodipodi:cx="535.71429"
         sodipodi:cy="685.2193"
         sodipodi:rx="121.42857"
         sodipodi:ry="121.42857"
         d="m 480.12013,577.26474 c 59.62165,-30.70381 132.84491,-7.26127 163.54872,52.36039 30.70382,59.62166 7.26127,132.84492 -52.36039,163.54873 -59.62165,30.70381 -132.84491,7.26126 -163.54873,-52.36039 -30.5218,-59.26823 -7.55349,-132.06045 51.45656,-163.07847"
         sodipodi:start="4.2368313"
         sodipodi:end="10.511626"
         sodipodi:open="true" />
      <path
         sodipodi:type="arc"
         style="fill:#b3b3b3;fill-opacity:1;stroke:#0e2a00;stroke-width:1.08899999;stroke-miterlimit:4;stroke-opacity:1;stroke-dasharray:none"
         id="path4017"
         sodipodi:cx="535.71429"
         sodipodi:cy="685.2193"
         sodipodi:rx="121.42857"
         sodipodi:ry="121.42857"
         d="m 480.12013,577.26474 c 59.62165,-30.70381 132.84491,-7.26127 163.54872,52.36039 30.70382,59.62166 7.26127,132.84492 -52.36039,163.54873 -59.62165,30.70381 -132.84491,7.26126 -163.54873,-52.36039 -30.5218,-59.26823 -7.55349,-132.06045 51.45656,-163.07847"
         sodipodi:start="4.2368313"
         sodipodi:end="10.511626"
         sodipodi:open="true"
         transform="matrix(0.55581963,0,0,0.53229454,757.954,320.48081)" />
      <path
         sodipodi:open="true"
         sodipodi:end="10.511626"
         sodipodi:start="4.2368313"
         d="m 480.12013,577.26474 c 59.62165,-30.70381 132.84491,-7.26127 163.54872,52.36039 30.70382,59.62166 7.26127,132.84492 -52.36039,163.54873 -59.62165,30.70381 -132.84491,7.26126 -163.54873,-52.36039 -30.5218,-59.26823 -7.55349,-132.06045 51.45656,-163.07847"
         sodipodi:ry="121.42857"
         sodipodi:rx="121.42857"
         sodipodi:cy="685.2193"
         sodipodi:cx="535.71429"
         id="path4019"
         style="fill:#b3b3b3;fill-opacity:1;stroke:#0e2a00;stroke-width:1.08899999;stroke-miterlimit:4;stroke-opacity:1;stroke-dasharray:none"
         sodipodi:type="arc"
         transform="matrix(0.22459666,-0.03398628,0.03398628,0.22459666,584.9642,612.38571)" />
      <rect
         ry="5"
         y="450.07648"
         x="945.71442"
         height="85.714287"
         width="120"
         id="rect4021"
         style="fill:#ffffff;fill-opacity:1;stroke:#0e2a00;stroke-width:1.08899999;stroke-miterlimit:4;stroke-opacity:1;stroke-dasharray:none" />
      <path
         inkscape:connector-curvature="0"
         id="path4023"
         d="m 1015.475,501.47812 c -3.3899,0.11407 -6.7977,1.16276 -10.0143,3.26311 l -0.1848,0.13053 c -8.9641,5.97451 -13.5642,18.3082 -12.1945,30.34699 l 46.0436,0 c 0.6734,-5.8756 0.016,-12.03791 -2.2911,-17.71873 -4.2332,-10.4229 -12.6959,-16.31345 -21.3589,-16.0219 z"
         style="fill:#e6e6e6;fill-opacity:1;stroke:#0e2a00;stroke-width:0;stroke-miterlimit:4;stroke-opacity:1;stroke-dasharray:none" />
      <rect
         y="497.03549"
         x="747.20508"
         height="70.367676"
         width="16.796246"
         id="rect4025"
         style="fill:#000000;fill-opacity:1;stroke:#0e2a00;stroke-width:0.72132611;stroke-miterlimit:4;stroke-opacity:1;stroke-dasharray:none" />
      <rect
         ry="6.4279261"
         y="472.88181"
         x="738.90442"
         height="23.817875"
         width="33.397652"
         id="rect4027"
         style="fill:#000000;fill-opacity:1;stroke:#0e2a00;stroke-width:0.58645642;stroke-miterlimit:4;stroke-opacity:1;stroke-dasharray:none" />
      <rect
         ry="3.9285715"
         y="557.93359"
         x="930.71442"
         height="7.8571429"
         width="24.285715"
         id="rect4029"
         style="fill:#b3b3b3;fill-opacity:1;stroke:#0e2a00;stroke-width:1.08899999;stroke-miterlimit:4;stroke-opacity:1;stroke-dasharray:none" />
      <path
         sodipodi:open="true"
         sodipodi:end="10.511626"
         sodipodi:start="4.2368313"
         d="m 412.51719,567.04417 a 4.6428571,3.5714285 0 1 1 -0.0346,0.0138"
         sodipodi:ry="3.5714285"
         sodipodi:rx="4.6428571"
         sodipodi:cy="570.2193"
         sodipodi:cx="414.64285"
         id="path4031"
         style="fill:#000000;fill-opacity:1;stroke:#0e2a00;stroke-width:1.08899999;stroke-miterlimit:4;stroke-opacity:1;stroke-dasharray:none"
         sodipodi:type="arc"
         transform="translate(520,-8)" />
      <path
         transform="matrix(0.87810445,-0.47846898,0.47846898,0.87810445,300.1256,360.16602)"
         inkscape:transform-center-y="5.4314179"
         inkscape:transform-center-x="2.1261745"
         d="m 548.57144,703.79079 -39.66243,-56.26816 -43.68163,53.83856 41.25784,-55.10903 -64.70188,-24.90667 65.16117,22.2089 3.69367,-69.23172 -0.98601,68.83489 66.98469,-17.88089 -65.77056,20.33339 z"
         inkscape:randomized="0"
         inkscape:rounded="0"
         inkscape:flatsided="false"
         sodipodi:arg2="1.4252718"
         sodipodi:arg1="0.97162101"
         sodipodi:r2="2.3278766"
         sodipodi:r1="70.926811"
         sodipodi:cy="645.21936"
         sodipodi:cx="508.57144"
         sodipodi:sides="5"
         id="path4033"
         style="fill:#000000;fill-opacity:1;stroke:#0e2a00;stroke-width:1.08899999;stroke-miterlimit:4;stroke-opacity:1;stroke-dasharray:none"
         sodipodi:type="star" />
      <path
         sodipodi:type="star"
         style="fill:#000000;fill-opacity:1;stroke:#0e2a00;stroke-width:1.08899999;stroke-miterlimit:4;stroke-opacity:1;stroke-dasharray:none"
         id="path4035"
         sodipodi:sides="5"
         sodipodi:cx="508.57144"
         sodipodi:cy="645.21936"
         sodipodi:r1="70.926811"
         sodipodi:r2="2.3278766"
         sodipodi:arg1="0.97162101"
         sodipodi:arg2="1.4252718"
         inkscape:flatsided="false"
         inkscape:rounded="0"
         inkscape:randomized="0"
         d="m 548.57144,703.79079 -39.66243,-56.26816 -43.68163,53.83856 41.25784,-55.10903 -64.70188,-24.90667 65.16117,22.2089 3.69367,-69.23172 -0.98601,68.83489 66.98469,-17.88089 -65.77056,20.33339 z"
         inkscape:transform-center-x="1.0774802"
         inkscape:transform-center-y="2.2309263"
         transform="matrix(0.37744788,-0.19958751,0.19739515,0.37330182,408.83387,610.64191)" />
      <path
         sodipodi:open="true"
         sodipodi:end="10.511626"
         sodipodi:start="4.2368313"
         d="m 205.54778,743.87199 c 2.72792,-1.40482 6.07818,-0.33223 7.483,2.3957 1.40482,2.72792 0.33223,6.07818 -2.3957,7.483 -2.72792,1.40482 -6.07818,0.33223 -7.483,-2.3957 -1.39649,-2.71175 -0.3456,-6.04229 2.35434,-7.46148"
         sodipodi:ry="5.5558391"
         sodipodi:rx="5.5558391"
         sodipodi:cy="748.81134"
         sodipodi:cx="208.09143"
         id="path4037"
         style="fill:#000000;fill-opacity:1;stroke:#0e2a00;stroke-width:1.08899999;stroke-miterlimit:4;stroke-opacity:1;stroke-dasharray:none"
         sodipodi:type="arc"
         transform="translate(520,0)" />
      <path
         transform="matrix(2.027218,0,0,2.027218,634.2447,-835.19247)"
         sodipodi:type="arc"
         style="fill:#000000;fill-opacity:1;stroke:#0e2a00;stroke-width:1.08899999;stroke-miterlimit:4;stroke-opacity:1;stroke-dasharray:none"
         id="path4039"
         sodipodi:cx="208.09143"
         sodipodi:cy="748.81134"
         sodipodi:rx="5.5558391"
         sodipodi:ry="5.5558391"
         d="m 205.54778,743.87199 c 2.72792,-1.40482 6.07818,-0.33223 7.483,2.3957 1.40482,2.72792 0.33223,6.07818 -2.3957,7.483 -2.72792,1.40482 -6.07818,0.33223 -7.483,-2.3957 -1.39649,-2.71175 -0.3456,-6.04229 2.35434,-7.46148"
         sodipodi:start="4.2368313"
         sodipodi:end="10.511626"
         sodipodi:open="true" />
      <path
         sodipodi:nodetypes="ssssssss"
         inkscape:connector-curvature="0"
         id="path4041"
         d="m 913.9196,391.33036 c -15.7511,1.04817 -31.8473,20.75949 -35.4151,24.93303 -3.4534,4.03959 2.0872,9.44197 7.6651,9.44197 75.5,0 219.8929,0.35714 219.8929,0.35714 6.6577,0 12,-5.37357 12,-12.03125 l 0,-10.3125 c 0,-6.65768 -5.3423,-12.03125 -12,-12.03125 0,0 -150.9043,-3.10141 -192.1429,-0.35714 z"
         style="fill:#000000;fill-opacity:1;stroke:#0e2a00;stroke-width:1.08899999;stroke-miterlimit:4;stroke-opacity:1;stroke-dasharray:none" />
      <path
         style="fill:#ff0000;fill-opacity:1;stroke:#0e2a00;stroke-width:0.95307213;stroke-miterlimit:4;stroke-opacity:1;stroke-dasharray:none"
         d="m 913.5122,391.73106 c -15.402,0.82103 -26.1414,15.54668 -29.6302,18.81582 -3.3768,3.16423 2.041,7.39593 7.4953,7.39593 73.8266,0 215.0191,0.27975 215.0191,0.27975 6.5102,0 11.7341,-4.20914 11.7341,-9.42411 l 0,-8.07781 c 0,-5.21499 -5.224,-9.42412 -11.7341,-9.42412 0,0 -152.5596,-1.71506 -192.8842,0.43454 z"
         id="path4043"
         inkscape:connector-curvature="0"
         sodipodi:nodetypes="ssssssss" />
      <path
         transform="matrix(0.89180159,0,0,0.81821991,559.3589,85.202649)"
         sodipodi:open="true"
         sodipodi:end="10.511626"
         sodipodi:start="4.2368313"
         d="m 505.39876,470.95998 a 13.637059,22.223356 0 1 1 -0.10151,0.0861"
         sodipodi:ry="22.223356"
         sodipodi:rx="13.637059"
         sodipodi:cy="490.71738"
         sodipodi:cx="511.64227"
         id="path4045"
         style="fill:#e6e6e6;fill-opacity:1;stroke:#0e2a00;stroke-width:0;stroke-miterlimit:4;stroke-opacity:1;stroke-dasharray:none"
         sodipodi:type="arc" />
      <rect
         ry="13.446041"
         y="599.89508"
         x="742.23358"
         height="66.670067"
         width="103.03556"
         id="rect4047"
         style="fill:#b3b3b3;fill-opacity:1;stroke:#0e2a00;stroke-width:0;stroke-miterlimit:4;stroke-opacity:1;stroke-dasharray:none" />
      <rect
         ry="3.5355237"
         y="599.89508"
         x="754.55737"
         height="66.16497"
         width="7.0710592"
         id="rect4049"
         style="fill:#333333;fill-opacity:1;stroke:#0e2a00;stroke-width:0;stroke-miterlimit:4;stroke-opacity:1;stroke-dasharray:none" />
      <rect
         style="fill:#333333;fill-opacity:1;stroke:#0e2a00;stroke-width:0;stroke-miterlimit:4;stroke-opacity:1;stroke-dasharray:none"
         id="rect4051"
         width="7.0710592"
         height="66.16497"
         x="775.00171"
         y="599.89508"
         ry="3.5355237" />
      <rect
         ry="3.5355237"
         y="599.89508"
         x="785.224"
         height="66.16497"
         width="7.0710592"
         id="rect4053"
         style="fill:#333333;fill-opacity:1;stroke:#0e2a00;stroke-width:0;stroke-miterlimit:4;stroke-opacity:1;stroke-dasharray:none" />
      <rect
         style="fill:#333333;fill-opacity:1;stroke:#0e2a00;stroke-width:0;stroke-miterlimit:4;stroke-opacity:1;stroke-dasharray:none"
         id="rect4055"
         width="7.0710592"
         height="66.16497"
         x="764.77948"
         y="599.89508"
         ry="3.5355237" />
      <rect
         ry="3.5355237"
         y="599.89508"
         x="795.44629"
         height="66.16497"
         width="7.0710592"
         id="rect4057"
         style="fill:#333333;fill-opacity:1;stroke:#0e2a00;stroke-width:0;stroke-miterlimit:4;stroke-opacity:1;stroke-dasharray:none" />
      <rect
         style="fill:#333333;fill-opacity:1;stroke:#0e2a00;stroke-width:0;stroke-miterlimit:4;stroke-opacity:1;stroke-dasharray:none"
         id="rect4059"
         width="7.0710592"
         height="66.16497"
         x="805.66852"
         y="599.89508"
         ry="3.5355237" />
      <rect
         ry="3.5355237"
         y="599.89508"
         x="815.89062"
         height="66.16497"
         width="7.0710592"
         id="rect4061"
         style="fill:#333333;fill-opacity:1;stroke:#0e2a00;stroke-width:0;stroke-miterlimit:4;stroke-opacity:1;stroke-dasharray:none" />
      <rect
         style="fill:#333333;fill-opacity:1;stroke:#0e2a00;stroke-width:0;stroke-miterlimit:4;stroke-opacity:1;stroke-dasharray:none"
         id="rect4063"
         width="7.0710592"
         height="66.16497"
         x="826.11292"
         y="599.89508"
         ry="3.5355237" />
      <rect
         ry="2.9957488"
         y="604.94586"
         x="836.33508"
         height="56.063446"
         width="7.0710592"
         id="rect4065"
         style="fill:#333333;fill-opacity:1;stroke:#0e2a00;stroke-width:0;stroke-miterlimit:4;stroke-opacity:1;stroke-dasharray:none" />
      <rect
         style="fill:#333333;fill-opacity:1;stroke:#0e2a00;stroke-width:0;stroke-miterlimit:4;stroke-opacity:1;stroke-dasharray:none"
         id="rect4067"
         width="7.0710592"
         height="56.063446"
         x="744.33508"
         y="604.94586"
         ry="2.9957488" />
    </g>
  </g>
</svg>
